<?xml version="1.0" encoding="utf-8"?>
<!-- Generator: Adobe Illustrator 23.0.1, SVG Export Plug-In . SVG Version: 6.00 Build 0)  -->
<svg version="1.1" id="Layer_1" xmlns="http://www.w3.org/2000/svg" xmlns:xlink="http://www.w3.org/1999/xlink" x="0px" y="0px"
	 viewBox="0 0 252.3 215.9" style="enable-background:new 0 0 252.3 215.9;" xml:space="preserve">
<style type="text/css">
	.st0{fill:#2AFBFE;}
	.st1{opacity:0.2;}
	.st2{fill:#41C0FD;}
	.st3{fill:#C5F9FF;}
	.st4{fill:#5C697C;}
	.st5{fill:#CBCFDA;}
	.st6{fill:#F3E7E0;}
	.st7{fill:url(#SVGID_1_);}
	.st8{opacity:0.6;}
	.st9{opacity:0;fill:#FFFFFF;}
	.st10{opacity:0.1667;fill:#FFFFFF;}
	.st11{opacity:0.3333;fill:#FFFFFF;}
	.st12{opacity:0.5;fill:#FFFFFF;}
	.st13{opacity:0.6667;fill:#FFFFFF;}
	.st14{opacity:0.8333;fill:#FFFFFF;}
	.st15{fill:#FFFFFF;}
	.st16{opacity:0.1667;fill:#DCFEFF;}
	.st17{opacity:0.3333;fill:#B8FEFF;}
	.st18{opacity:0.5;fill:#95FDFF;}
	.st19{opacity:0.6667;fill:#71FCFE;}
	.st20{opacity:0.8333;fill:#4EFCFE;}
	.st21{fill:#CB83FF;}
	.st22{opacity:0.4;}
	.st23{fill:url(#SVGID_2_);}
	.st24{fill:#D8CDFF;}
	.st25{opacity:0.1;}
	.st26{fill:url(#SVGID_3_);}
	.st27{fill:#E6A376;}
	.st28{fill:#460689;}
	.st29{fill:#111114;}
	.st30{fill:#37007F;}
	.st31{fill:#43008D;}
	.st32{fill:#5D0CA6;}
	.st33{fill:#EFB185;}
	.st34{fill:#DD9569;}
	.st35{fill:#8C2DDF;}
	.st36{fill:#DEF0F9;}
	.st37{fill:#BFD4DB;}
	.st38{fill:#8FEDFF;}
	.st39{fill:url(#SVGID_4_);}
	.st40{fill:#35C2DA;}
	.st41{fill:url(#SVGID_5_);}
	.st42{enable-background:new    ;}
	.st43{clip-path:url(#SVGID_7_);enable-background:new    ;}
	.st44{fill:#B2C5CC;}
	.st45{fill:#ADC0C7;}
	.st46{fill:#A9BBC2;}
	.st47{fill:#A4B6BD;}
	.st48{fill:#A0B1B8;}
	.st49{fill:#9BACB3;}
	.st50{fill:#97A7AD;}
	.st51{fill:#93A2A8;}
	.st52{fill:#8E9DA3;}
	.st53{fill:#8A999E;}
	.st54{fill:#859499;}
	.st55{fill:#818F94;}
	.st56{fill:#7C8A8F;}
	.st57{fill:#78858A;}
	.st58{fill:#738085;}
	.st59{clip-path:url(#SVGID_9_);enable-background:new    ;}
	.st60{fill:#32B5CA;}
	.st61{fill:#30B0C5;}
	.st62{fill:#2FACC0;}
	.st63{fill:#2EA7BB;}
	.st64{fill:#2DA3B6;}
	.st65{fill:#2B9EB1;}
	.st66{fill:#2A9AAC;}
	.st67{fill:#2995A7;}
	.st68{fill:#2891A2;}
	.st69{fill:#268C9D;}
	.st70{clip-path:url(#SVGID_11_);enable-background:new    ;}
	.st71{clip-path:url(#SVGID_13_);enable-background:new    ;}
	.st72{fill:#207684;}
	.st73{fill:#217A89;}
	.st74{fill:#237F8E;}
	.st75{fill:#248393;}
	.st76{fill:#258898;}
	.st77{fill:#F7F7F7;}
	.st78{opacity:0.5;}
	.st79{opacity:0.7;fill:#2AFBFE;}
	.st80{opacity:0.4;fill:#2AFBFE;}
	.st81{opacity:0.5;fill:#24D8DB;}
	.st82{fill:#53D5EA;}
	.st83{fill:#6AFCE5;}
	.st84{opacity:0.5;fill:#D4FCF4;}
	.st85{opacity:0.3;fill:#24D8DB;}
	.st86{fill:#0A2222;}
	.st87{fill:#232A65;}
	.st88{fill:#1B1B1B;}
	.st89{fill:#9A45F4;}
	.st90{fill:#F9F8F8;}
</style>
<g>
	<g>
		<g>
			<path class="st0" d="M460.8,147.7c31,17.9,31.1,46.9,0.4,64.8c-30.8,17.9-80.9,17.9-111.9,0c-31-17.9-31.1-46.9-0.4-64.8
				C379.6,129.8,429.8,129.8,460.8,147.7z M350.1,212c30.5,17.6,79.9,17.6,110.2,0c30.3-17.6,30.1-46.2-0.3-63.8
				c-30.5-17.6-79.9-17.6-110.2,0C319.4,165.8,319.6,194.4,350.1,212L350.1,212z"/>
		</g>
	</g>
	<g>
		<g>
			<path class="st0" d="M415.5,174c5.8,3.4,5.8,8.8,0.1,12.2c-5.8,3.4-15.2,3.4-21,0c-5.8-3.4-5.8-8.8-0.1-12.2
				C400.2,170.6,409.6,170.6,415.5,174z M395.4,185.7c5.3,3.1,14,3.1,19.3,0c5.3-3.1,5.3-8.1-0.1-11.2c-5.3-3.1-14-3.1-19.3,0
				C390,177.6,390,182.6,395.4,185.7L395.4,185.7z"/>
		</g>
	</g>
	<g>
		<g>
			<path class="st0" d="M424.7,168.6c11,6.3,11,16.6,0.1,23c-10.9,6.3-28.7,6.3-39.6,0c-11-6.3-11-16.6-0.1-23
				C396,162.3,413.8,162.3,424.7,168.6z M386.1,191.1c10.5,6,27.5,6,37.9,0c10.4-6.1,10.4-15.9-0.1-21.9c-10.5-6.1-27.5-6.1-37.9,0
				C375.6,175.2,375.6,185,386.1,191.1L386.1,191.1z"/>
		</g>
	</g>
	<g>
		<g>
			<path class="st0" d="M433.3,163.6c15.7,9.1,15.8,23.8,0.2,32.9c-15.6,9.1-41.1,9.1-56.8,0c-15.7-9.1-15.8-23.8-0.2-32.9
				C392.1,154.5,417.6,154.5,433.3,163.6z M377.5,196c15.2,8.8,40,8.8,55.1,0c15.1-8.8,15.1-23.1-0.2-31.9c-15.2-8.8-40-8.8-55.1,0
				C362.2,172.9,362.3,187.2,377.5,196L377.5,196z"/>
		</g>
	</g>
	<g>
		<g>
			<path class="st0" d="M443.2,157.9c21.2,12.2,21.3,32.1,0.2,44.4c-21,12.2-55.4,12.2-76.6,0c-21.2-12.2-21.3-32.1-0.2-44.4
				C387.6,145.7,422,145.7,443.2,157.9z M367.7,201.8c20.7,12,54.3,12,74.9,0c20.6-12,20.5-31.4-0.2-43.4c-20.7-12-54.3-12-74.9,0
				C346.9,170.4,347,189.8,367.7,201.8L367.7,201.8z"/>
		</g>
	</g>
	<g>
		<g>
			<path class="st0" d="M452.2,152.6c26.2,15.1,26.4,39.8,0.3,54.9c-26.1,15.1-68.6,15.1-94.8,0c-26.2-15.1-26.4-39.8-0.3-54.9
				C383.5,137.5,426,137.5,452.2,152.6z M358.6,207c25.7,14.9,67.5,14.9,93.1,0c25.6-14.9,25.5-39.1-0.3-53.9
				c-25.7-14.9-67.5-14.9-93.1,0C332.7,168,332.8,192.2,358.6,207L358.6,207z"/>
		</g>
	</g>
</g>
<g class="st1">
	<path d="M349,183.3l35,19.4c2.2,1.2,6.7,1,8.9-0.2c15.5-8.5,61-34,61-34c2.2-1.2,2.2-3.2,0-4.5l-35.3-19.6L349,183.3z"/>
</g>
<g>
	<path class="st2" d="M470.6,174.3c0,0.5-0.3,1.1-1.1,1.5l-1.9,1.1l0-2.4l-3.8-2.2l-3.7,2.1l2.1,1.2l1.6-0.9l1.7,1l-1.6,0.9
		l-3.8-2.2v0.1l-1.8-1c-0.2-0.5-0.4-1.1-0.6-1.5l1.2-0.7l0-2.4l-3.8-2.2l-0.8,0.5v-1l-3.8-2.2l-0.8,0.5v-1l-3.8-2.2l-3.7,2.1l0,0.6
		l-0.5-0.3l-3.7,2.1v0.6l-0.5-0.3l-3.7,2.1v0.6l-0.5-0.3l-3.7,2.1v0.6l-0.5-0.3l-3.7,2.1v0.6l-0.5-0.3l-3.7,2.1l0,0.6l-0.5-0.3
		l-3.7,2.1l0,0.6l-0.5-0.3l-3.7,2.1v0.6l-0.5-0.3l-3.7,2.1l0,0.6l-0.5-0.3l-3.7,2.1v0.6l-0.5-0.3l-3.7,2.1v0.6l-0.5-0.3l-3.7,2.1
		v0.6l-0.5-0.3l-3.7,2.1h0l0,0l0,0.6l-0.5-0.3l-3.7,2.1l0,2.2l-1.9-1.1l-3.7,2.1v2.2l-1.8-1c-0.7-0.4-1.1-0.9-1.1-1.5l0,2.4
		c0,0.5,0.4,1.1,1.1,1.5l21.5,12.5c1.4,0.8,3.7,0.8,5.2,0l62.7-36.2c0.7-0.4,1.1-1,1.1-1.5C470.7,176,470.7,175.1,470.6,174.3z"/>
	<g>
		<path class="st3" d="M469.6,172.9l-21.5-12.5c-1.4-0.8-3.7-0.8-5.2,0l-62.7,36.2c-1.4,0.8-1.4,2.2,0,3l21.5,12.5
			c1.4,0.8,3.7,0.8,5.2,0l62.7-36.2C471,175.1,471,173.8,469.6,172.9z"/>
		<g>
			<path class="st4" d="M444.9,167.3c-0.1,0-0.3,0-0.4-0.1l-2.1-1.2c-0.3-0.2-0.4-0.4-0.4-0.7c0-0.3,0.2-0.6,0.4-0.7l2.1-1.2
				c0.1-0.1,0.3-0.1,0.4-0.1c0.1,0,0.3,0,0.4,0.1l2.1,1.2c0.3,0.2,0.4,0.4,0.4,0.7c0,0.3-0.2,0.6-0.4,0.7l-2.1,1.2
				C445.2,167.2,445,167.3,444.9,167.3z"/>
			<path class="st5" d="M445.2,163.4l2.1,1.2c0.5,0.3,0.5,1,0,1.2l-2.1,1.2c-0.2,0.1-0.5,0.1-0.7,0l-2.1-1.2c-0.5-0.3-0.5-1,0-1.2
				l2.1-1.2C444.7,163.2,444.9,163.2,445.2,163.4z"/>
			<path class="st4" d="M440.9,169.5c-0.1,0-0.3,0-0.4-0.1l-2.1-1.2c-0.3-0.2-0.4-0.4-0.4-0.7c0-0.3,0.2-0.6,0.4-0.7l2.1-1.2
				c0.1-0.1,0.3-0.1,0.4-0.1c0.1,0,0.3,0,0.4,0.1l2.1,1.2c0.3,0.2,0.4,0.4,0.4,0.7c0,0.3-0.2,0.6-0.4,0.7l-2.1,1.2
				C441.2,169.5,441,169.5,440.9,169.5z"/>
			<path class="st5" d="M441.2,165.7l2.1,1.2c0.5,0.3,0.5,1,0,1.2l-2.1,1.2c-0.2,0.1-0.5,0.1-0.7,0l-2.1-1.2c-0.5-0.3-0.5-1,0-1.2
				l2.1-1.2C440.7,165.5,441,165.5,441.2,165.7z"/>
			<path class="st4" d="M436.9,171.8c-0.1,0-0.3,0-0.4-0.1l-2.1-1.2c-0.3-0.1-0.4-0.4-0.4-0.7c0-0.3,0.2-0.6,0.4-0.7l2.1-1.2
				c0.1-0.1,0.3-0.1,0.4-0.1c0.1,0,0.3,0,0.4,0.1l2.1,1.2c0.3,0.1,0.4,0.4,0.4,0.7c0,0.3-0.2,0.6-0.4,0.7l-2.1,1.2
				C437.2,171.8,437.1,171.8,436.9,171.8z"/>
			<path class="st5" d="M437.2,168l2.1,1.2c0.5,0.3,0.5,1,0,1.2l-2.1,1.2c-0.2,0.1-0.5,0.1-0.7,0l-2.1-1.2c-0.5-0.3-0.5-1,0-1.2
				l2.1-1.2C436.7,167.8,437,167.8,437.2,168z"/>
			<path class="st4" d="M445.3,172.1c-0.2,0-0.3,0-0.4-0.1l-2.1-1.2c-0.3-0.2-0.4-0.4-0.4-0.7c0-0.3,0.2-0.6,0.4-0.7l2.1-1.2
				c0.1-0.1,0.3-0.1,0.4-0.1c0.1,0,0.3,0,0.4,0.1l2.1,1.2c0.3,0.2,0.4,0.4,0.4,0.7c0,0.3-0.2,0.6-0.4,0.7l-2.1,1.2
				C445.5,172,445.4,172.1,445.3,172.1z"/>
			<path class="st5" d="M445.5,168.2l2.1,1.2c0.5,0.3,0.5,1,0,1.2l-2.1,1.2c-0.2,0.1-0.5,0.1-0.7,0l-2.1-1.2c-0.5-0.3-0.5-1,0-1.2
				l2.1-1.2C445.1,168.1,445.3,168.1,445.5,168.2z"/>
			<path class="st4" d="M453.6,172.3c-0.1,0-0.3,0-0.4-0.1L451,171c-0.3-0.1-0.4-0.4-0.4-0.7c0-0.3,0.2-0.6,0.4-0.7l2.1-1.2
				c0.1-0.1,0.3-0.1,0.4-0.1c0.1,0,0.3,0,0.4,0.1l2.1,1.2c0.3,0.1,0.4,0.4,0.4,0.7c0,0.3-0.2,0.6-0.4,0.7l-2.1,1.2
				C453.9,172.3,453.7,172.3,453.6,172.3z"/>
			<path class="st5" d="M453.9,168.4l2.1,1.2c0.5,0.3,0.5,1,0,1.2l-2.1,1.2c-0.2,0.1-0.5,0.1-0.7,0l-2.1-1.2c-0.5-0.3-0.5-1,0-1.2
				l2.1-1.2C453.4,168.3,453.7,168.3,453.9,168.4z"/>
			<path class="st4" d="M433,174.2c-0.1,0-0.2,0-0.3-0.1l-2.6-1.5c-0.2-0.1-0.3-0.3-0.3-0.5c0-0.2,0.1-0.4,0.3-0.5l2.5-1.5
				c0.1-0.1,0.2-0.1,0.3-0.1c0.1,0,0.2,0,0.3,0.1l2.6,1.5c0.2,0.1,0.3,0.3,0.3,0.5c0,0.2-0.1,0.4-0.3,0.5l-2.5,1.5
				C433.2,174.1,433.1,174.2,433,174.2z"/>
			<path class="st5" d="M433.1,170.2l2.6,1.5c0.3,0.2,0.3,0.7,0,0.8l-2.5,1.5c-0.1,0.1-0.3,0.1-0.5,0l-2.6-1.5
				c-0.3-0.2-0.3-0.7,0-0.8l2.5-1.5C432.8,170.1,433,170.1,433.1,170.2z"/>
			<path class="st4" d="M449.6,174.6c-0.1,0-0.3,0-0.4-0.1l-2.1-1.2c-0.3-0.2-0.4-0.4-0.4-0.7c0-0.3,0.2-0.6,0.4-0.7l2.1-1.2
				c0.1-0.1,0.3-0.1,0.4-0.1c0.2,0,0.3,0,0.4,0.1l2.1,1.2c0.3,0.2,0.4,0.4,0.4,0.7c0,0.3-0.2,0.6-0.4,0.7l-2.1,1.2
				C449.9,174.6,449.7,174.6,449.6,174.6z"/>
			<path class="st5" d="M449.9,170.7l2.1,1.2c0.5,0.3,0.5,1,0,1.2l-2.1,1.2c-0.2,0.1-0.5,0.1-0.7,0l-2.1-1.2c-0.5-0.3-0.5-1,0-1.2
				l2.1-1.2C449.4,170.6,449.7,170.6,449.9,170.7z"/>
			<path class="st4" d="M429,176.5c-0.1,0-0.2,0-0.3-0.1l-2.6-1.5c-0.2-0.1-0.3-0.3-0.3-0.5c0-0.2,0.1-0.4,0.3-0.5l2.5-1.5
				c0.1,0,0.2-0.1,0.3-0.1c0.1,0,0.2,0,0.3,0.1l2.6,1.5c0.2,0.1,0.3,0.3,0.3,0.5c0,0.2-0.1,0.4-0.3,0.5l-2.5,1.5
				C429.2,176.4,429.1,176.5,429,176.5z"/>
			<path class="st5" d="M429.2,172.5l2.6,1.5c0.3,0.2,0.3,0.7,0,0.8l-2.5,1.5c-0.2,0.1-0.3,0.1-0.5,0l-2.6-1.5
				c-0.3-0.2-0.3-0.7,0-0.8l2.5-1.5C428.8,172.4,429,172.4,429.2,172.5z"/>
			<path class="st4" d="M445.6,176.9c-0.1,0-0.3,0-0.4-0.1l-2.1-1.2c-0.3-0.2-0.4-0.4-0.4-0.7c0-0.3,0.2-0.6,0.4-0.7l2.1-1.2
				c0.1-0.1,0.3-0.1,0.4-0.1c0.1,0,0.3,0,0.4,0.1l2.1,1.2c0.3,0.2,0.4,0.4,0.4,0.7c0,0.3-0.2,0.6-0.4,0.7l-2.1,1.2
				C445.9,176.9,445.8,176.9,445.6,176.9z"/>
			<path class="st5" d="M445.9,173l2.1,1.2c0.5,0.3,0.5,1,0,1.2l-2.1,1.2c-0.2,0.1-0.5,0.1-0.7,0l-2.1-1.2c-0.5-0.3-0.5-1,0-1.2
				l2.1-1.2C445.4,172.9,445.7,172.9,445.9,173z"/>
			<path class="st4" d="M425,178.7c-0.1,0-0.2,0-0.3-0.1l-2.4-1.4c-0.2-0.1-0.3-0.4-0.3-0.6c0-0.3,0.1-0.5,0.4-0.6l2.3-1.3
				c0.1-0.1,0.2-0.1,0.4-0.1c0.1,0,0.2,0,0.3,0.1l2.4,1.4c0.2,0.1,0.3,0.4,0.3,0.6c0,0.3-0.1,0.5-0.3,0.6l-2.3,1.3
				C425.2,178.7,425.1,178.7,425,178.7z"/>
			<path class="st5" d="M425.2,174.8l2.4,1.4c0.4,0.2,0.4,0.8,0,1l-2.3,1.3c-0.2,0.1-0.4,0.1-0.6,0l-2.4-1.4c-0.4-0.2-0.4-0.8,0-1
				l2.3-1.3C424.8,174.7,425.1,174.7,425.2,174.8z"/>
			<path class="st4" d="M429.4,181.3c-0.1,0-0.2,0-0.4-0.1l-2.4-1.4c-0.2-0.1-0.4-0.4-0.3-0.6c0-0.3,0.1-0.5,0.4-0.6l8.6-5
				c0.1-0.1,0.2-0.1,0.3-0.1c0.1,0,0.2,0,0.4,0.1l2.4,1.4c0.2,0.1,0.3,0.4,0.3,0.6c0,0.3-0.1,0.5-0.3,0.6l-8.6,5
				C429.6,181.2,429.5,181.3,429.4,181.3z"/>
			<path class="st5" d="M435.8,173.7l2.4,1.4c0.4,0.2,0.4,0.8,0,1l-8.6,5c-0.2,0.1-0.4,0.1-0.6,0l-2.4-1.4c-0.4-0.2-0.4-0.8,0-1
				l8.6-5C435.4,173.6,435.7,173.6,435.8,173.7z"/>
			<path class="st4" d="M417.1,183.3c-0.1,0-0.2,0-0.4-0.1l-2.4-1.4c-0.2-0.1-0.3-0.4-0.3-0.6c0-0.3,0.1-0.5,0.4-0.6l2.3-1.3
				c0.1-0.1,0.2-0.1,0.4-0.1s0.2,0,0.3,0.1l2.4,1.4c0.2,0.1,0.4,0.4,0.4,0.6c0,0.3-0.1,0.5-0.4,0.6l-2.3,1.3
				C417.3,183.3,417.2,183.3,417.1,183.3z"/>
			<path class="st5" d="M417.3,179.4l2.4,1.4c0.4,0.2,0.4,0.8,0,1l-2.3,1.3c-0.2,0.1-0.4,0.1-0.6,0l-2.4-1.4c-0.4-0.2-0.4-0.8,0-1
				l2.3-1.3C416.9,179.3,417.1,179.3,417.3,179.4z"/>
			<path class="st4" d="M425.4,183.6c-0.1,0-0.2,0-0.3-0.1l-2.4-1.4c-0.2-0.1-0.3-0.4-0.3-0.6c0-0.3,0.1-0.5,0.4-0.6l2.3-1.3
				c0.1-0.1,0.2-0.1,0.4-0.1c0.1,0,0.2,0,0.3,0.1l2.4,1.4c0.2,0.1,0.3,0.4,0.3,0.6c0,0.3-0.1,0.5-0.3,0.6l-2.3,1.3
				C425.6,183.5,425.5,183.6,425.4,183.6z"/>
			<path class="st5" d="M425.6,179.6l2.4,1.4c0.4,0.2,0.4,0.8,0,1l-2.3,1.3c-0.2,0.1-0.4,0.1-0.6,0l-2.4-1.4c-0.4-0.2-0.4-0.8,0-1
				l2.3-1.3C425.2,179.5,425.4,179.5,425.6,179.6z"/>
			<path class="st4" d="M442,184.1c-0.1,0-0.3,0-0.4-0.1l-3.4-2l1.8-1l-2.9-1.7c-0.3-0.1-0.4-0.4-0.4-0.7c0-0.3,0.2-0.6,0.4-0.7
				l2.7-1.6c0.1-0.1,0.3-0.1,0.4-0.1c0.1,0,0.3,0,0.4,0.1l7.5,4.4l-5.7,3.3C442.3,184.1,442.1,184.1,442,184.1z"/>
			<path class="st5" d="M439.9,176.5c0.2-0.1,0.5-0.1,0.7,0l3.8,2.2l2.4,1.4l1.2,0.7l-5.5,3.2c-0.2,0.1-0.5,0.1-0.7,0l-3.2-1.9
				l1.8-1l-3.1-1.8c-0.5-0.3-0.5-0.9,0-1.2L439.9,176.5z"/>
			<path class="st4" d="M413.1,185.6c-0.1,0-0.2,0-0.4-0.1l-2.4-1.4c-0.2-0.1-0.4-0.4-0.4-0.6c0-0.3,0.1-0.5,0.4-0.6l2.3-1.3
				c0.1-0.1,0.2-0.1,0.3-0.1c0.1,0,0.2,0,0.4,0.1l2.4,1.4c0.2,0.1,0.4,0.4,0.4,0.6c0,0.3-0.1,0.5-0.4,0.6l-2.3,1.3
				C413.3,185.6,413.2,185.6,413.1,185.6z"/>
			<path class="st5" d="M413.3,181.7l2.4,1.4c0.4,0.2,0.4,0.8,0,1l-2.3,1.3c-0.2,0.1-0.4,0.1-0.6,0l-2.4-1.4c-0.4-0.2-0.4-0.8,0-1
				l2.3-1.3C412.9,181.6,413.1,181.6,413.3,181.7z"/>
			<path class="st4" d="M421.4,185.9c-0.1,0-0.2,0-0.4-0.1l-2.4-1.4c-0.2-0.1-0.3-0.4-0.3-0.6c0-0.3,0.1-0.5,0.4-0.6l2.3-1.3
				c0.1-0.1,0.2-0.1,0.3-0.1c0.1,0,0.2,0,0.4,0.1l2.4,1.4c0.2,0.1,0.3,0.4,0.3,0.6c0,0.3-0.1,0.5-0.3,0.6l-2.3,1.3
				C421.7,185.8,421.5,185.9,421.4,185.9z"/>
			<path class="st5" d="M421.6,181.9l2.4,1.4c0.4,0.2,0.4,0.8,0,1l-2.3,1.3c-0.2,0.1-0.4,0.1-0.6,0l-2.4-1.4c-0.4-0.2-0.4-0.8,0-1
				l2.3-1.3C421.2,181.8,421.5,181.8,421.6,181.9z"/>
			<polygon class="st4" points="423.3,185.5 427,183.4 430.8,185.6 427.1,187.7 			"/>
			<polygon class="st5" points="427,183.5 430.5,185.6 427.1,187.6 423.5,185.5 			"/>
			<path class="st4" d="M409.1,187.9c-0.1,0-0.2,0-0.3-0.1l-2.4-1.4c-0.2-0.1-0.3-0.4-0.3-0.6c0-0.3,0.1-0.5,0.3-0.6l2.3-1.3
				c0.1-0.1,0.2-0.1,0.3-0.1c0.1,0,0.3,0,0.4,0.1l2.4,1.4c0.2,0.1,0.4,0.4,0.4,0.6c0,0.3-0.1,0.5-0.4,0.6l-2.3,1.3
				C409.4,187.9,409.2,187.9,409.1,187.9z"/>
			<path class="st5" d="M409.3,184l2.4,1.4c0.4,0.2,0.4,0.8,0,1l-2.3,1.3c-0.2,0.1-0.4,0.1-0.6,0l-2.4-1.4c-0.4-0.2-0.4-0.8,0-1
				l2.3-1.3C408.9,183.9,409.2,183.9,409.3,184z"/>
			<path class="st4" d="M417.4,188.2c-0.1,0-0.2,0-0.4-0.1l-2.4-1.4c-0.2-0.1-0.3-0.4-0.3-0.6c0-0.3,0.1-0.5,0.3-0.6l2.3-1.3
				c0.1-0.1,0.2-0.1,0.3-0.1c0.1,0,0.3,0,0.4,0.1l2.4,1.4c0.2,0.1,0.3,0.4,0.3,0.6c0,0.3-0.1,0.5-0.4,0.6l-2.3,1.3
				C417.7,188.1,417.6,188.2,417.4,188.2z"/>
			<path class="st5" d="M417.7,184.2l2.4,1.4c0.4,0.2,0.4,0.8,0,1l-2.3,1.3c-0.2,0.1-0.4,0.1-0.6,0l-2.4-1.4c-0.4-0.2-0.4-0.8,0-1
				l2.3-1.3C417.3,184.1,417.5,184.1,417.7,184.2z"/>
			<polygon class="st4" points="419.3,187.8 423.1,185.7 426.9,187.9 423.1,190 			"/>
			<polygon class="st5" points="423.1,185.8 426.6,187.9 423.1,189.9 419.6,187.8 			"/>
			<path class="st4" d="M405.1,190.2c-0.1,0-0.2,0-0.4-0.1l-2.4-1.4c-0.2-0.1-0.3-0.4-0.3-0.6c0-0.3,0.1-0.5,0.3-0.6l2.3-1.3
				c0.1-0.1,0.2-0.1,0.4-0.1c0.1,0,0.2,0,0.4,0.1l2.4,1.4c0.2,0.1,0.3,0.4,0.4,0.6c0,0.3-0.1,0.5-0.4,0.6l-2.3,1.4
				C405.4,190.2,405.3,190.2,405.1,190.2z"/>
			<path class="st5" d="M405.4,186.3l2.4,1.4c0.4,0.2,0.4,0.8,0,1l-2.3,1.3c-0.2,0.1-0.4,0.1-0.6,0l-2.4-1.4c-0.4-0.2-0.4-0.8,0-1
				l2.3-1.3C405,186.2,405.2,186.2,405.4,186.3z"/>
			<path class="st4" d="M413.5,190.4c-0.1,0-0.2,0-0.4-0.1l-2.4-1.4c-0.2-0.1-0.3-0.4-0.3-0.6c0-0.3,0.1-0.5,0.3-0.6l2.3-1.3
				c0.1-0.1,0.2-0.1,0.4-0.1c0.1,0,0.2,0,0.3,0.1l2.4,1.4c0.2,0.1,0.3,0.4,0.3,0.6c0,0.3-0.1,0.5-0.3,0.6l-2.3,1.3
				C413.7,190.4,413.6,190.4,413.5,190.4z"/>
			<path class="st5" d="M413.7,186.5l2.4,1.4c0.4,0.2,0.4,0.8,0,1l-2.3,1.3c-0.2,0.1-0.4,0.1-0.6,0l-2.4-1.4c-0.4-0.2-0.4-0.8,0-1
				l2.3-1.3C413.3,186.4,413.5,186.4,413.7,186.5z"/>
			<path class="st4" d="M437,192c-0.1,0-0.3,0-0.4-0.1l-2.2-1.3c-0.2-0.1-0.4-0.4-0.4-0.7c0-0.3,0.2-0.6,0.4-0.7l5.6-3.2
				c0.1-0.1,0.3-0.1,0.4-0.1c0.1,0,0.3,0,0.4,0.1l2.2,1.3c0.3,0.1,0.4,0.4,0.4,0.7c0,0.3-0.1,0.6-0.4,0.7l-5.6,3.2
				C437.2,192,437.1,192,437,192z"/>
			<path class="st5" d="M440.7,186.1l2.2,1.3c0.5,0.3,0.5,0.9,0,1.2l-5.6,3.2c-0.2,0.1-0.5,0.1-0.7,0l-2.2-1.3
				c-0.5-0.3-0.5-0.9,0-1.2l5.6-3.2C440.2,186,440.5,186,440.7,186.1z"/>
			<path class="st4" d="M419.2,192.2c-0.1,0-0.3,0-0.4-0.1l-2.2-1.3c-0.2-0.1-0.4-0.4-0.4-0.7c0-0.3,0.1-0.5,0.4-0.7l2.1-1.2
				c0.1-0.1,0.3-0.1,0.4-0.1c0.1,0,0.3,0,0.4,0.1l2.2,1.3c0.3,0.1,0.4,0.4,0.4,0.7c0,0.3-0.1,0.5-0.4,0.7l-2.1,1.2
				C419.5,192.1,419.3,192.2,419.2,192.2z"/>
			<path class="st5" d="M419.5,188.3l2.2,1.3c0.4,0.3,0.4,0.9,0,1.2l-2.1,1.2c-0.2,0.1-0.5,0.1-0.7,0l-2.2-1.3
				c-0.5-0.3-0.5-0.9,0-1.2l2.1-1.2C419,188.1,419.3,188.1,419.5,188.3z"/>
			<path class="st4" d="M401.2,192.5c-0.2,0-0.3,0-0.4-0.1l-2-1.2c-0.3-0.2-0.4-0.4-0.4-0.8c0-0.3,0.2-0.6,0.4-0.8l1.9-1.1
				c0.1-0.1,0.3-0.1,0.4-0.1c0.2,0,0.3,0,0.4,0.1l2,1.2c0.3,0.2,0.4,0.4,0.4,0.8c0,0.3-0.2,0.6-0.4,0.8l-2,1.1
				C401.5,192.4,401.3,192.5,401.2,192.5z"/>
			<path class="st5" d="M401.5,188.6l2,1.2c0.5,0.3,0.5,1,0,1.3l-2,1.1c-0.2,0.1-0.5,0.1-0.8,0l-2-1.2c-0.5-0.3-0.5-1,0-1.3l1.9-1.1
				C400.9,188.5,401.2,188.5,401.5,188.6z"/>
			<path class="st4" d="M409.5,192.7c-0.2,0-0.3,0-0.4-0.1l-2-1.2c-0.3-0.2-0.4-0.4-0.4-0.8c0-0.3,0.2-0.6,0.4-0.8l2-1.1
				c0.1-0.1,0.3-0.1,0.4-0.1c0.2,0,0.3,0,0.4,0.1l2,1.2c0.3,0.2,0.4,0.4,0.4,0.8c0,0.3-0.2,0.6-0.4,0.8l-2,1.1
				C409.8,192.7,409.6,192.7,409.5,192.7z"/>
			<path class="st5" d="M409.8,188.9l2,1.2c0.5,0.3,0.5,1,0,1.3l-2,1.1c-0.2,0.1-0.5,0.1-0.8,0l-2-1.2c-0.5-0.3-0.5-1,0-1.3l2-1.1
				C409.3,188.7,409.6,188.7,409.8,188.9z"/>
			<path class="st4" d="M415.3,194.4c-0.1,0-0.3,0-0.4-0.1l-2.2-1.3c-0.2-0.1-0.4-0.4-0.4-0.7c0-0.3,0.1-0.5,0.4-0.7l2.1-1.2
				c0.1-0.1,0.3-0.1,0.4-0.1c0.1,0,0.3,0,0.4,0.1l2.2,1.3c0.3,0.1,0.4,0.4,0.4,0.7s-0.1,0.5-0.4,0.7l-2.1,1.2
				C415.5,194.4,415.4,194.4,415.3,194.4z"/>
			<path class="st5" d="M415.5,190.5l2.2,1.3c0.4,0.3,0.4,0.9,0,1.2l-2.1,1.2c-0.2,0.1-0.5,0.1-0.7,0l-2.2-1.3
				c-0.4-0.3-0.4-0.9,0-1.2l2.1-1.2C415.1,190.4,415.3,190.4,415.5,190.5z"/>
			<path class="st4" d="M397.2,194.8c-0.2,0-0.3,0-0.5-0.1l-2-1.2c-0.3-0.2-0.4-0.5-0.4-0.8c0-0.3,0.2-0.6,0.4-0.8l1.9-1.1
				c0.1-0.1,0.3-0.1,0.4-0.1c0.2,0,0.3,0,0.4,0.1l2,1.2c0.3,0.2,0.4,0.5,0.4,0.8c0,0.3-0.2,0.6-0.4,0.8l-2,1.1
				C397.5,194.7,397.4,194.8,397.2,194.8z"/>
			<path class="st5" d="M397.5,190.9l2,1.2c0.5,0.3,0.5,1,0,1.3l-2,1.1c-0.2,0.1-0.5,0.1-0.8,0l-2-1.2c-0.5-0.3-0.5-1,0-1.3l1.9-1.1
				C397,190.8,397.3,190.8,397.5,190.9z"/>
			<path class="st4" d="M405.5,195c-0.2,0-0.3,0-0.4-0.1l-2-1.2c-0.3-0.2-0.4-0.4-0.4-0.8c0-0.3,0.2-0.6,0.4-0.8l2-1.1
				c0.1-0.1,0.3-0.1,0.4-0.1c0.2,0,0.3,0,0.4,0.1l2,1.2c0.3,0.2,0.4,0.4,0.4,0.8c0,0.3-0.2,0.6-0.5,0.8l-2,1.1
				C405.8,195,405.7,195,405.5,195z"/>
			<path class="st5" d="M405.8,191.1l2,1.2c0.5,0.3,0.5,1,0,1.3l-2,1.1c-0.2,0.1-0.5,0.1-0.8,0l-2-1.2c-0.5-0.3-0.5-1,0-1.3l2-1.1
				C405.3,191,405.6,191,405.8,191.1z"/>
			<path class="st4" d="M411.3,196.7c-0.2,0-0.3,0-0.5-0.1l-2-1.2c-0.3-0.2-0.4-0.4-0.4-0.8c0-0.3,0.2-0.6,0.4-0.8l2-1.1
				c0.1-0.1,0.3-0.1,0.4-0.1c0.2,0,0.3,0,0.4,0.1l2,1.2c0.3,0.2,0.4,0.5,0.4,0.8c0,0.3-0.2,0.6-0.4,0.8l-2,1.1
				C411.7,196.6,411.5,196.7,411.3,196.7z"/>
			<path class="st5" d="M411.7,192.8l2,1.2c0.5,0.3,0.5,1,0,1.3l-2,1.1c-0.2,0.1-0.5,0.1-0.8,0l-2-1.2c-0.5-0.3-0.5-1,0-1.3l2-1.1
				C411.1,192.7,411.4,192.7,411.7,192.8z"/>
			<path class="st4" d="M393.2,197.1c-0.2,0-0.3,0-0.4-0.1l-2-1.2c-0.3-0.2-0.4-0.4-0.4-0.8c0-0.3,0.2-0.6,0.4-0.8l1.9-1.1
				c0.1-0.1,0.3-0.1,0.4-0.1c0.2,0,0.3,0,0.5,0.1l2,1.2c0.3,0.2,0.4,0.4,0.4,0.8c0,0.3-0.2,0.6-0.4,0.8l-2,1.1
				C393.5,197,393.4,197.1,393.2,197.1z"/>
			<path class="st5" d="M393.5,193.2l2,1.2c0.5,0.3,0.5,1,0,1.3l-2,1.1c-0.2,0.1-0.5,0.1-0.8,0l-2-1.2c-0.5-0.3-0.5-1,0-1.3l2-1.1
				C393,193.1,393.3,193.1,393.5,193.2z"/>
			<path class="st4" d="M401.5,197.3c-0.2,0-0.3,0-0.4-0.1l-2-1.2c-0.3-0.2-0.4-0.4-0.4-0.8c0-0.3,0.2-0.6,0.4-0.8l1.9-1.1
				c0.1-0.1,0.3-0.1,0.4-0.1c0.2,0,0.3,0,0.4,0.1l2,1.2c0.3,0.2,0.4,0.4,0.4,0.8c0,0.3-0.2,0.6-0.4,0.8l-1.9,1.1
				C401.9,197.3,401.7,197.3,401.5,197.3z"/>
			<path class="st5" d="M401.9,193.4l2,1.2c0.5,0.3,0.5,1,0,1.3l-2,1.1c-0.2,0.1-0.5,0.1-0.8,0l-2-1.2c-0.5-0.3-0.5-1,0-1.3l1.9-1.1
				C401.3,193.3,401.6,193.3,401.9,193.4z"/>
			<path class="st4" d="M407.4,198.9c-0.2,0-0.3,0-0.4-0.1l-2-1.2c-0.3-0.2-0.4-0.4-0.4-0.8c0-0.3,0.2-0.6,0.4-0.8l2-1.1
				c0.1-0.1,0.3-0.1,0.4-0.1c0.2,0,0.3,0,0.4,0.1l2,1.2c0.3,0.2,0.4,0.5,0.4,0.8c0,0.3-0.2,0.6-0.4,0.8l-2,1.1
				C407.7,198.9,407.6,198.9,407.4,198.9z"/>
			<path class="st5" d="M407.7,195.1l2,1.2c0.5,0.3,0.5,1,0,1.3l-1.9,1.1c-0.2,0.1-0.5,0.1-0.8,0l-2-1.2c-0.5-0.3-0.5-1,0-1.3l2-1.1
				C407.2,195,407.5,195,407.7,195.1z"/>
			<path class="st4" d="M387.9,200.1c-0.2,0-0.3,0-0.4-0.1l-2-1.2c-0.3-0.2-0.4-0.5-0.4-0.8c0-0.3,0.2-0.6,0.4-0.8l2-1.1
				c0.1-0.1,0.3-0.1,0.4-0.1c0.2,0,0.3,0,0.4,0.1l2,1.2c0.3,0.2,0.4,0.4,0.4,0.8c0,0.3-0.2,0.6-0.5,0.8l-2,1.1
				C388.2,200.1,388.1,200.1,387.9,200.1z"/>
			<path class="st5" d="M388.3,196.3l2,1.2c0.5,0.3,0.5,1,0,1.3l-2,1.1c-0.2,0.1-0.5,0.1-0.8,0l-2-1.2c-0.5-0.3-0.5-1,0-1.3l2-1.1
				C387.7,196.1,388,196.1,388.3,196.3z"/>
			<path class="st4" d="M403.5,201.2c-0.2,0-0.3,0-0.4-0.1l-2-1.2c-0.3-0.2-0.4-0.4-0.4-0.8c0-0.3,0.2-0.6,0.4-0.8l1.9-1.1
				c0.1-0.1,0.3-0.1,0.4-0.1c0.2,0,0.3,0,0.5,0.1l2,1.2c0.3,0.2,0.4,0.5,0.4,0.8c0,0.3-0.2,0.6-0.4,0.8l-2,1.1
				C403.8,201.2,403.6,201.2,403.5,201.2z"/>
			<path class="st5" d="M403.8,197.4l2,1.2c0.5,0.3,0.5,1,0,1.3l-1.9,1.1c-0.2,0.1-0.5,0.1-0.8,0l-2-1.2c-0.5-0.3-0.5-1,0-1.3
				l1.9-1.1C403.3,197.2,403.6,197.2,403.8,197.4z"/>
			<path class="st4" d="M419.5,202.1c-0.1,0-0.3,0-0.4-0.1l-2.2-1.3c-0.2-0.1-0.4-0.4-0.4-0.7c0-0.3,0.2-0.5,0.4-0.7l15.7-9.1
				c0.1-0.1,0.3-0.1,0.4-0.1c0.1,0,0.3,0,0.4,0.1l2.2,1.3c0.3,0.1,0.4,0.4,0.4,0.7c0,0.3-0.1,0.5-0.4,0.7l-15.7,9.1
				C419.7,202.1,419.6,202.1,419.5,202.1z"/>
			<path class="st5" d="M433.3,190.4l2.2,1.3c0.5,0.3,0.5,0.9,0,1.2l-15.7,9.1c-0.2,0.1-0.5,0.1-0.7,0l-2.2-1.3
				c-0.5-0.3-0.5-0.9,0-1.2l15.7-9.1C432.8,190.3,433.1,190.3,433.3,190.4z"/>
			<path class="st4" d="M392.3,202.6c-0.2,0-0.3,0-0.4-0.1l-2-1.2c-0.3-0.2-0.4-0.4-0.4-0.8c0-0.3,0.2-0.6,0.4-0.8l7.1-4.1
				c0.1-0.1,0.3-0.1,0.4-0.1c0.2,0,0.3,0,0.4,0.1l2,1.2c0.3,0.2,0.4,0.5,0.4,0.8c0,0.3-0.2,0.6-0.4,0.8l-7.1,4.1
				C392.6,202.6,392.4,202.6,392.3,202.6z"/>
			<path class="st5" d="M397.7,195.8l2,1.2c0.5,0.3,0.5,1,0,1.3l-7.1,4.1c-0.2,0.1-0.5,0.1-0.8,0l-2-1.2c-0.5-0.3-0.5-1,0-1.3
				l7.1-4.1C397.2,195.7,397.5,195.7,397.7,195.8z"/>
			<path class="st4" d="M396.6,205.2c-0.2,0-0.3,0-0.4-0.1l-2-1.2c-0.3-0.2-0.4-0.4-0.4-0.8c0-0.3,0.2-0.6,0.4-0.8l4.9-2.8
				c0.1-0.1,0.3-0.1,0.4-0.1c0.2,0,0.3,0,0.4,0.1l2,1.2c0.3,0.2,0.4,0.5,0.4,0.8c0,0.3-0.2,0.6-0.4,0.8l-4.9,2.8
				C397,205.1,396.8,205.2,396.6,205.2z"/>
			<path class="st5" d="M399.9,199.6l2,1.2c0.5,0.3,0.5,1,0,1.3l-4.9,2.8c-0.2,0.1-0.5,0.1-0.8,0l-2-1.2c-0.5-0.3-0.5-1,0-1.3
				l4.9-2.8C399.3,199.5,399.6,199.5,399.9,199.6z"/>
			<path class="st4" d="M413,205.8c-0.1,0-0.3,0-0.4-0.1l-2.2-1.3c-0.3-0.1-0.4-0.4-0.4-0.7c0-0.3,0.1-0.5,0.4-0.7l4.5-2.6
				c0.1-0.1,0.3-0.1,0.4-0.1c0.1,0,0.3,0,0.4,0.1l2.2,1.3c0.2,0.1,0.4,0.4,0.4,0.7c0,0.3-0.1,0.5-0.4,0.7l-4.5,2.6
				C413.3,205.8,413.2,205.8,413,205.8z"/>
			<path class="st5" d="M415.7,200.5l2.2,1.3c0.4,0.3,0.4,0.9,0,1.2l-4.5,2.6c-0.2,0.1-0.5,0.1-0.7,0l-2.2-1.3
				c-0.4-0.3-0.4-0.9,0-1.2l4.5-2.6C415.2,200.4,415.5,200.4,415.7,200.5z"/>
			<path class="st4" d="M405.4,210.2c-0.2,0-0.3,0-0.4-0.1l-2-1.2c-0.3-0.2-0.4-0.5-0.4-0.8c0-0.3,0.2-0.6,0.4-0.8l5.4-3.1
				c0.1-0.1,0.3-0.1,0.4-0.1c0.2,0,0.3,0,0.4,0.1l2,1.2c0.3,0.2,0.4,0.4,0.4,0.8c0,0.3-0.2,0.6-0.4,0.8l-5.4,3.1
				C405.7,210.2,405.5,210.2,405.4,210.2z"/>
			<path class="st5" d="M409.1,204.4l2,1.2c0.5,0.3,0.5,1,0,1.3l-5.4,3.1c-0.2,0.1-0.5,0.1-0.8,0l-2-1.2c-0.5-0.3-0.5-1,0-1.3
				l5.4-3.1C408.6,204.3,408.9,204.3,409.1,204.4z"/>
			<path class="st4" d="M449.2,169.8c-0.1,0-0.3,0-0.4-0.1l-2.1-1.2c-0.3-0.1-0.4-0.4-0.4-0.7c0-0.3,0.2-0.6,0.4-0.7l2.1-1.2
				c0.1-0.1,0.3-0.1,0.4-0.1c0.1,0,0.3,0,0.4,0.1l2.1,1.2c0.3,0.2,0.4,0.4,0.4,0.7c0,0.3-0.2,0.6-0.4,0.7l-2.1,1.2
				C449.5,169.7,449.4,169.8,449.2,169.8z"/>
			<path class="st5" d="M449.5,165.9l2.1,1.2c0.5,0.3,0.5,1,0,1.2l-2.1,1.2c-0.2,0.1-0.5,0.1-0.7,0l-2.1-1.2c-0.5-0.3-0.5-1,0-1.2
				l2.1-1.2C449,165.8,449.3,165.8,449.5,165.9z"/>
			<path class="st4" d="M441.3,174.4c-0.1,0-0.3,0-0.4-0.1l-2.1-1.2c-0.3-0.2-0.4-0.4-0.4-0.7c0-0.3,0.2-0.6,0.4-0.7l2.1-1.2
				c0.1-0.1,0.3-0.1,0.4-0.1c0.1,0,0.3,0,0.4,0.1l2.1,1.2c0.3,0.2,0.4,0.4,0.4,0.7c0,0.3-0.2,0.6-0.4,0.7l-2.1,1.2
				C441.6,174.3,441.4,174.4,441.3,174.4z"/>
			<path class="st5" d="M441.6,170.5l2.1,1.2c0.5,0.3,0.5,1,0,1.2l-2.1,1.2c-0.2,0.1-0.5,0.1-0.7,0l-2.1-1.2c-0.5-0.3-0.5-1,0-1.2
				l2.1-1.2C441.1,170.4,441.4,170.4,441.6,170.5z"/>
			<path class="st4" d="M461.8,177.6c-0.1,0-0.3,0-0.4-0.1l-2.2-1.3c-0.3-0.1-0.4-0.4-0.4-0.7c0-0.3,0.1-0.6,0.4-0.7l2.1-1.2
				c0.1-0.1,0.3-0.1,0.4-0.1c0.1,0,0.3,0,0.4,0.1l2.2,1.3c0.3,0.1,0.4,0.4,0.4,0.7c0,0.3-0.1,0.6-0.4,0.7l-2.1,1.2
				C462.1,177.6,462,177.6,461.8,177.6z"/>
			<path class="st5" d="M462.1,173.7l2.2,1.3c0.5,0.3,0.5,0.9,0,1.2l-2.1,1.2c-0.2,0.1-0.5,0.1-0.7,0l-2.2-1.3
				c-0.5-0.3-0.5-0.9,0-1.2l2.1-1.2C461.6,173.6,461.9,173.6,462.1,173.7z"/>
			<path class="st4" d="M457.9,179.9c-0.1,0-0.3,0-0.4-0.1l-2.1-1.2c-0.3-0.1-0.4-0.4-0.4-0.7c0-0.3,0.2-0.6,0.4-0.7l2.1-1.2
				c0.1-0.1,0.3-0.1,0.4-0.1c0.1,0,0.3,0,0.4,0.1l2.1,1.2c0.3,0.2,0.4,0.4,0.4,0.7c0,0.3-0.1,0.6-0.4,0.7l-2.1,1.2
				C458.1,179.9,458,179.9,457.9,179.9z"/>
			<path class="st5" d="M458.1,176l2.1,1.2c0.5,0.3,0.5,1,0,1.2l-2.1,1.2c-0.2,0.1-0.5,0.1-0.7,0l-2.1-1.2c-0.5-0.3-0.5-1,0-1.2
				l2.1-1.2C457.6,175.9,457.9,175.9,458.1,176z"/>
			<path class="st4" d="M454,177.6c-0.1,0-0.3,0-0.4-0.1l-2.2-1.3c-0.3-0.1-0.4-0.4-0.4-0.7c0-0.3,0.2-0.6,0.4-0.7l2.1-1.2
				c0.1-0.1,0.3-0.1,0.4-0.1c0.1,0,0.3,0,0.4,0.1l2.2,1.3c0.3,0.1,0.4,0.4,0.4,0.7c0,0.3-0.2,0.6-0.4,0.7l-2.1,1.2
				C454.3,177.6,454.2,177.6,454,177.6z"/>
			<path class="st5" d="M454.3,173.7l2.2,1.3c0.5,0.3,0.5,0.9,0,1.2l-2.1,1.2c-0.2,0.1-0.5,0.1-0.7,0l-2.2-1.3
				c-0.5-0.3-0.5-0.9,0-1.2l2.1-1.2C453.8,173.6,454.1,173.6,454.3,173.7z"/>
			<path class="st4" d="M421,181c-0.1,0-0.2,0-0.4-0.1l-2.4-1.4c-0.2-0.1-0.4-0.4-0.4-0.6c0-0.3,0.1-0.5,0.4-0.6l2.3-1.3
				c0.1-0.1,0.2-0.1,0.4-0.1c0.1,0,0.2,0,0.4,0.1l2.4,1.4c0.2,0.1,0.4,0.4,0.4,0.6c0,0.3-0.1,0.5-0.4,0.6l-2.3,1.3
				C421.3,181,421.2,181,421,181z"/>
			<path class="st5" d="M421.3,177.1l2.4,1.4c0.4,0.2,0.4,0.8,0,1l-2.3,1.3c-0.2,0.1-0.4,0.1-0.6,0l-2.4-1.4c-0.4-0.2-0.4-0.8,0-1
				l2.3-1.3C420.9,177,421.1,177,421.3,177.1z"/>
			<path class="st4" d="M454,182.1c-0.1,0-0.3,0-0.4-0.1l-2.1-1.2c-0.3-0.2-0.4-0.4-0.4-0.7c0-0.3,0.2-0.6,0.4-0.7l2.1-1.2
				c0.1-0.1,0.3-0.1,0.4-0.1c0.1,0,0.3,0,0.4,0.1l2.1,1.2c0.3,0.1,0.4,0.4,0.4,0.7c0,0.3-0.2,0.6-0.4,0.7l-2.1,1.2
				C454.3,182.1,454.2,182.1,454,182.1z"/>
			<path class="st5" d="M454.3,178.2l2.1,1.2c0.5,0.3,0.5,1,0,1.2l-2.1,1.2c-0.2,0.1-0.5,0.1-0.7,0l-2.1-1.2c-0.5-0.3-0.5-1,0-1.2
				l2.1-1.2C453.8,178.1,454.1,178.1,454.3,178.2z"/>
			<polygon class="st4" points="431.1,181 434.9,178.9 438.6,181.1 434.9,183.2 			"/>
			<polygon class="st5" points="434.9,179 438.4,181.1 434.9,183.1 431.4,181 			"/>
			<polygon class="st4" points="427.2,183.3 430.9,181.1 434.7,183.3 431,185.5 			"/>
			<polygon class="st5" points="430.9,181.3 434.5,183.3 431,185.3 427.4,183.3 			"/>
			<path class="st4" d="M444.6,187.6c-0.1,0-0.3,0-0.4-0.1l-2.2-1.3c-0.3-0.1-0.4-0.4-0.4-0.7c0-0.3,0.1-0.6,0.4-0.7l5.8-3.4
				c0.1-0.1,0.3-0.1,0.4-0.1c0.1,0,0.3,0,0.4,0.1l2.2,1.3c0.3,0.1,0.4,0.4,0.4,0.7c0,0.3-0.1,0.5-0.4,0.7l-5.8,3.4
				C444.9,187.6,444.8,187.6,444.6,187.6z"/>
			<path class="st5" d="M448.6,181.6l2.2,1.3c0.5,0.3,0.5,0.9,0,1.2l-5.8,3.4c-0.2,0.1-0.5,0.1-0.7,0l-2.2-1.3
				c-0.5-0.3-0.5-0.9,0-1.2l5.8-3.4C448.1,181.4,448.4,181.4,448.6,181.6z"/>
			<path class="st4" d="M410.1,202.5c-0.2,0-0.3,0-0.4-0.1l-2-1.2c-0.3-0.2-0.4-0.4-0.4-0.8c0-0.3,0.2-0.6,0.4-0.8l2.4-1.4l2.5,1.4
				c0.3,0.2,0.4,0.4,0.4,0.8c0,0.3-0.2,0.6-0.4,0.8l-2,1.1C410.4,202.4,410.2,202.5,410.1,202.5z"/>
			<path class="st5" d="M410,198.4l2.4,1.4c0.5,0.3,0.5,1,0,1.3l-1.9,1.1c-0.2,0.1-0.5,0.1-0.8,0l-2-1.2c-0.5-0.3-0.5-1,0-1.3
				L410,198.4L410,198.4z"/>
			<path class="st4" d="M414,200.2c-0.1,0-0.3,0-0.4-0.1l-2.2-1.3c-0.3-0.1-0.4-0.4-0.4-0.7c0-0.3,0.1-0.5,0.4-0.7l2.1-1.2
				c0.1-0.1,0.3-0.1,0.4-0.1c0.1,0,0.3,0,0.4,0.1l2.2,1.3c0.2,0.1,0.4,0.4,0.4,0.7c0,0.3-0.2,0.5-0.4,0.7l-2.1,1.2
				C414.2,200.2,414.1,200.2,414,200.2z"/>
			<path class="st5" d="M414.2,196.3l2.2,1.3c0.5,0.3,0.5,0.9,0,1.2l-2.1,1.2c-0.2,0.1-0.5,0.1-0.7,0l-2.2-1.3
				c-0.4-0.3-0.4-0.9,0-1.2l2.1-1.2C413.8,196.2,414,196.2,414.2,196.3z"/>
			<path class="st4" d="M417.9,198c-0.1,0-0.3,0-0.4-0.1l-2.2-1.3c-0.3-0.1-0.4-0.4-0.4-0.7c0-0.3,0.1-0.5,0.4-0.7l2.1-1.2
				c0.1-0.1,0.3-0.1,0.4-0.1c0.1,0,0.3,0,0.4,0.1l2.2,1.3c0.2,0.1,0.4,0.4,0.4,0.7c0,0.3-0.2,0.5-0.4,0.7l-2.2,1.2
				C418.2,197.9,418,198,417.9,198z"/>
			<path class="st5" d="M418.2,194.1l2.2,1.3c0.5,0.3,0.5,0.9,0,1.2l-2.1,1.2c-0.2,0.1-0.5,0.1-0.7,0l-2.2-1.3
				c-0.5-0.3-0.5-0.9,0-1.2l2.1-1.2C417.7,193.9,418,193.9,418.2,194.1z"/>
			<path class="st4" d="M421.8,195.7c-0.1,0-0.3,0-0.4-0.1l-2.2-1.3c-0.2-0.1-0.4-0.4-0.4-0.7c0-0.3,0.2-0.5,0.4-0.7l2.1-1.2
				c0.1-0.1,0.3-0.1,0.4-0.1c0.1,0,0.3,0,0.4,0.1l2.2,1.3c0.2,0.1,0.4,0.4,0.4,0.7c0,0.3-0.1,0.5-0.4,0.7l-2.2,1.2
				C422,195.7,421.9,195.7,421.8,195.7z"/>
			<path class="st5" d="M422,191.8l2.2,1.3c0.4,0.3,0.4,0.9,0,1.2l-2.1,1.2c-0.2,0.1-0.5,0.1-0.7,0l-2.2-1.3c-0.4-0.3-0.4-0.9,0-1.2
				l2.1-1.2C421.6,191.7,421.8,191.7,422,191.8z"/>
			<path class="st4" d="M425.8,193.4c-0.1,0-0.3,0-0.4-0.1l-2.2-1.3c-0.3-0.1-0.4-0.4-0.4-0.7c0-0.3,0.1-0.5,0.4-0.7l2.1-1.2
				c0.1-0.1,0.3-0.1,0.4-0.1c0.1,0,0.3,0,0.4,0.1l2.2,1.3c0.2,0.1,0.4,0.4,0.4,0.7c0,0.3-0.2,0.5-0.4,0.7l-2.1,1.2
				C426.1,193.3,426,193.4,425.8,193.4z"/>
			<path class="st5" d="M426.1,189.5l2.2,1.3c0.4,0.3,0.4,0.9,0,1.2l-2.1,1.2c-0.2,0.1-0.5,0.1-0.7,0l-2.2-1.3
				c-0.5-0.3-0.5-0.9,0-1.2l2.1-1.2C425.6,189.4,425.9,189.4,426.1,189.5z"/>
			<path class="st4" d="M429.7,191.1c-0.1,0-0.3,0-0.4-0.1l-2.2-1.3c-0.2-0.1-0.4-0.4-0.4-0.7c0-0.3,0.1-0.5,0.4-0.7l2.1-1.2
				c0.1-0.1,0.3-0.1,0.4-0.1c0.1,0,0.3,0,0.4,0.1l2.2,1.3c0.3,0.1,0.4,0.4,0.4,0.7c0,0.3-0.1,0.5-0.4,0.7l-2.1,1.2
				C430,191.1,429.8,191.1,429.7,191.1z"/>
			<path class="st5" d="M430,187.2l2.2,1.3c0.5,0.3,0.5,0.9,0,1.2l-2.1,1.2c-0.2,0.1-0.5,0.1-0.7,0l-2.2-1.3c-0.5-0.3-0.5-0.9,0-1.2
				l2.1-1.2C429.5,187.1,429.8,187.1,430,187.2z"/>
			<path class="st4" d="M433.6,188.9c-0.1,0-0.3,0-0.4-0.1l-2.2-1.3c-0.3-0.1-0.4-0.4-0.4-0.7c0-0.3,0.2-0.6,0.4-0.7l2.1-1.2
				c0.1-0.1,0.3-0.1,0.4-0.1c0.1,0,0.3,0,0.4,0.1l2.2,1.3c0.2,0.1,0.4,0.4,0.4,0.7c0,0.3-0.1,0.6-0.4,0.7l-2.1,1.2
				C433.9,188.8,433.8,188.9,433.6,188.9z"/>
			<path class="st5" d="M433.9,185l2.2,1.3c0.5,0.3,0.5,0.9,0,1.2l-2.1,1.2c-0.2,0.1-0.5,0.1-0.7,0l-2.2-1.3c-0.5-0.3-0.5-0.9,0-1.2
				l2.1-1.2C433.4,184.8,433.7,184.8,433.9,185z"/>
			<path class="st4" d="M437.5,186.6c-0.1,0-0.3,0-0.4-0.1l-2.2-1.3c-0.3-0.1-0.4-0.4-0.4-0.7c0-0.3,0.2-0.6,0.4-0.7l2.1-1.2
				c0.1-0.1,0.3-0.1,0.4-0.1c0.1,0,0.3,0,0.4,0.1l2.2,1.3c0.2,0.1,0.4,0.4,0.4,0.7c0,0.3-0.2,0.6-0.4,0.7l-2.1,1.2
				C437.8,186.6,437.7,186.6,437.5,186.6z"/>
			<path class="st5" d="M437.8,182.7l2.2,1.3c0.5,0.3,0.5,0.9,0,1.2l-2.1,1.2c-0.2,0.1-0.5,0.1-0.7,0l-2.2-1.3
				c-0.5-0.3-0.5-0.9,0-1.2l2.1-1.2C437.3,182.6,437.6,182.6,437.8,182.7z"/>
			<path class="st4" d="M401,207.7c-0.2,0-0.3,0-0.4-0.1l-2.6-1.5c-0.2-0.1-0.2-0.2-0.2-0.4c0-0.2,0.1-0.3,0.2-0.4l7.7-4.4
				c0.1-0.1,0.3-0.1,0.4-0.1c0.2,0,0.3,0,0.4,0.1l2,1.2c0.3,0.2,0.4,0.4,0.4,0.8c0,0.3-0.2,0.6-0.4,0.8l-7.1,4.1
				C401.3,207.7,401.1,207.7,401,207.7z"/>
			<path class="st5" d="M405.7,200.9c0.2-0.1,0.5-0.1,0.8,0l2,1.2c0.5,0.3,0.5,1,0,1.3l-7.1,4.1c-0.2,0.1-0.5,0.1-0.8,0l-2.6-1.5
				c-0.2-0.1-0.2-0.5,0-0.6L405.7,200.9z"/>
		</g>
		<g>
			<path class="st2" d="M445.2,163.1l2.1,1.2c0.5,0.3,0.5,1,0,1.2l-2.1,1.2c-0.2,0.1-0.5,0.1-0.7,0l-2.1-1.3c-0.5-0.3-0.5-1,0-1.2
				l2.1-1.2C444.7,162.9,444.9,162.9,445.2,163.1z"/>
			<path class="st2" d="M441.2,165.3l2.1,1.2c0.5,0.3,0.5,1,0,1.2l-2.1,1.2c-0.2,0.1-0.5,0.1-0.7,0l-2.1-1.2c-0.5-0.3-0.5-1,0-1.2
				l2.1-1.2C440.7,165.2,441,165.2,441.2,165.3z"/>
			<path class="st2" d="M437.2,167.6l2.1,1.2c0.5,0.3,0.5,1,0,1.2l-2.1,1.2c-0.2,0.1-0.5,0.1-0.7,0l-2.1-1.2c-0.5-0.3-0.5-1,0-1.2
				l2.1-1.2C436.7,167.5,437,167.5,437.2,167.6z"/>
			<path class="st2" d="M445.5,167.9l2.1,1.2c0.5,0.3,0.5,1,0,1.2l-2.1,1.2c-0.2,0.1-0.5,0.1-0.7,0l-2.1-1.2c-0.5-0.3-0.5-1,0-1.2
				l2.1-1.2C445.1,167.7,445.3,167.7,445.5,167.9z"/>
			<path class="st2" d="M453.9,168.1l2.1,1.2c0.5,0.3,0.5,1,0,1.2l-2.1,1.2c-0.2,0.1-0.5,0.1-0.7,0l-2.1-1.2c-0.5-0.3-0.5-1,0-1.2
				l2.1-1.2C453.4,168,453.7,168,453.9,168.1z"/>
			<path class="st2" d="M433.1,169.9l2.6,1.5c0.3,0.2,0.3,0.7,0,0.8l-2.5,1.5c-0.1,0.1-0.3,0.1-0.5,0l-2.6-1.5
				c-0.3-0.2-0.3-0.7,0-0.8l2.5-1.5C432.8,169.8,433,169.8,433.1,169.9z"/>
			<path class="st2" d="M449.9,170.4l2.1,1.2c0.5,0.3,0.5,1,0,1.2l-2.1,1.2c-0.2,0.1-0.5,0.1-0.7,0l-2.1-1.2c-0.5-0.3-0.5-1,0-1.2
				l2.1-1.2C449.4,170.3,449.7,170.3,449.9,170.4z"/>
			<path class="st2" d="M429.2,172.2l2.6,1.5c0.3,0.2,0.3,0.7,0,0.8l-2.5,1.5c-0.2,0.1-0.3,0.1-0.5,0l-2.6-1.5
				c-0.3-0.2-0.3-0.7,0-0.8l2.5-1.5C428.8,172.1,429,172.1,429.2,172.2z"/>
			<path class="st2" d="M445.9,172.7l2.1,1.2c0.5,0.3,0.5,1,0,1.2l-2.1,1.2c-0.2,0.1-0.5,0.1-0.7,0l-2.1-1.2c-0.5-0.3-0.5-1,0-1.2
				l2.1-1.2C445.4,172.6,445.7,172.6,445.9,172.7z"/>
			<path class="st2" d="M425.2,174.5l2.4,1.4c0.4,0.2,0.4,0.8,0,1l-2.3,1.3c-0.2,0.1-0.4,0.1-0.6,0l-2.4-1.4c-0.4-0.2-0.4-0.8,0-1
				l2.3-1.3C424.8,174.4,425.1,174.4,425.2,174.5z"/>
			<path class="st2" d="M435.8,173.4l2.4,1.4c0.4,0.2,0.4,0.8,0,1l-8.6,5c-0.2,0.1-0.4,0.1-0.6,0l-2.4-1.4c-0.4-0.2-0.4-0.8,0-1
				l8.6-5C435.4,173.3,435.7,173.3,435.8,173.4z"/>
			<path class="st2" d="M417.3,179.1l2.4,1.4c0.4,0.2,0.4,0.8,0,1l-2.3,1.3c-0.2,0.1-0.4,0.1-0.6,0l-2.4-1.4c-0.4-0.2-0.4-0.8,0-1
				l2.3-1.3C416.9,179,417.1,179,417.3,179.1z"/>
			<path class="st2" d="M425.6,179.3l2.4,1.4c0.4,0.2,0.4,0.8,0,1l-2.3,1.3c-0.2,0.1-0.4,0.1-0.6,0l-2.4-1.4c-0.4-0.2-0.4-0.8,0-1
				l2.3-1.3C425.2,179.2,425.4,179.2,425.6,179.3z"/>
			<path class="st2" d="M439.9,176.1c0.2-0.1,0.5-0.1,0.7,0l3.8,2.2l2.4,1.4l1.2,0.7l-5.5,3.2c-0.2,0.1-0.5,0.1-0.7,0l-3.2-1.9
				l1.8-1l-3.1-1.8c-0.5-0.3-0.5-0.9,0-1.2L439.9,176.1z"/>
			<path class="st2" d="M413.3,181.4l2.4,1.4c0.4,0.2,0.4,0.8,0,1l-2.3,1.3c-0.2,0.1-0.4,0.1-0.6,0l-2.4-1.4c-0.4-0.2-0.4-0.8,0-1
				l2.3-1.3C412.9,181.3,413.1,181.3,413.3,181.4z"/>
			<path class="st2" d="M421.6,181.6l2.4,1.4c0.4,0.2,0.4,0.8,0,1l-2.3,1.3c-0.2,0.1-0.4,0.1-0.6,0l-2.4-1.4c-0.4-0.2-0.4-0.8,0-1
				l2.3-1.3C421.2,181.5,421.5,181.5,421.6,181.6z"/>
			<polygon class="st2" points="427,183.2 430.5,185.3 427.1,187.3 423.5,185.2 			"/>
			<path class="st2" d="M409.3,183.7l2.4,1.4c0.4,0.2,0.4,0.8,0,1l-2.3,1.3c-0.2,0.1-0.4,0.1-0.6,0l-2.4-1.4c-0.4-0.2-0.4-0.8,0-1
				l2.3-1.3C408.9,183.6,409.2,183.6,409.3,183.7z"/>
			<path class="st2" d="M417.7,183.9l2.4,1.4c0.4,0.2,0.4,0.8,0,1l-2.3,1.3c-0.2,0.1-0.4,0.1-0.6,0l-2.4-1.4c-0.4-0.2-0.4-0.8,0-1
				l2.3-1.3C417.3,183.8,417.5,183.8,417.7,183.9z"/>
			<polygon class="st2" points="423.1,185.5 426.6,187.5 423.1,189.6 419.6,187.5 			"/>
			<path class="st2" d="M405.4,186l2.4,1.4c0.4,0.2,0.4,0.8,0,1l-2.3,1.3c-0.2,0.1-0.4,0.1-0.6,0l-2.4-1.4c-0.4-0.2-0.4-0.8,0-1
				l2.3-1.3C405,185.8,405.2,185.8,405.4,186z"/>
			<path class="st2" d="M413.7,186.2l2.4,1.4c0.4,0.2,0.4,0.8,0,1l-2.3,1.3c-0.2,0.1-0.4,0.1-0.6,0l-2.4-1.4c-0.4-0.2-0.4-0.8,0-1
				l2.3-1.3C413.3,186.1,413.5,186.1,413.7,186.2z"/>
			<path class="st2" d="M440.7,185.8l2.2,1.3c0.5,0.3,0.5,0.9,0,1.2l-5.6,3.2c-0.2,0.1-0.5,0.1-0.7,0l-2.2-1.3
				c-0.5-0.3-0.5-0.9,0-1.2l5.6-3.2C440.2,185.7,440.5,185.7,440.7,185.8z"/>
			<path class="st2" d="M419.5,187.9l2.2,1.3c0.4,0.3,0.4,0.9,0,1.2l-2.1,1.2c-0.2,0.1-0.5,0.1-0.7,0l-2.2-1.3
				c-0.5-0.3-0.5-0.9,0-1.2l2.1-1.2C419,187.8,419.3,187.8,419.5,187.9z"/>
			<path class="st2" d="M401.5,188.3l2,1.2c0.5,0.3,0.5,1,0,1.3l-2,1.1c-0.2,0.1-0.5,0.1-0.8,0l-2-1.2c-0.5-0.3-0.5-1,0-1.3l1.9-1.1
				C400.9,188.2,401.2,188.2,401.5,188.3z"/>
			<path class="st2" d="M409.8,188.5l2,1.2c0.5,0.3,0.5,1,0,1.3l-2,1.1c-0.2,0.1-0.5,0.1-0.8,0l-2-1.2c-0.5-0.3-0.5-1,0-1.3l2-1.1
				C409.3,188.4,409.6,188.4,409.8,188.5z"/>
			<path class="st2" d="M415.5,190.2l2.2,1.3c0.4,0.3,0.4,0.9,0,1.2l-2.1,1.2c-0.2,0.1-0.5,0.1-0.7,0l-2.2-1.3
				c-0.4-0.3-0.4-0.9,0-1.2l2.1-1.2C415.1,190.1,415.3,190.1,415.5,190.2z"/>
			<path class="st2" d="M397.5,190.6l2,1.2c0.5,0.3,0.5,1,0,1.3l-2,1.1c-0.2,0.1-0.5,0.1-0.8,0l-2-1.2c-0.5-0.3-0.5-1,0-1.3l1.9-1.1
				C397,190.5,397.3,190.5,397.5,190.6z"/>
			<path class="st2" d="M405.8,190.8l2,1.2c0.5,0.3,0.5,1,0,1.3l-2,1.1c-0.2,0.1-0.5,0.1-0.8,0l-2-1.2c-0.5-0.3-0.5-1,0-1.3l2-1.1
				C405.3,190.7,405.6,190.7,405.8,190.8z"/>
			<path class="st2" d="M411.7,192.5l2,1.2c0.5,0.3,0.5,1,0,1.3l-2,1.1c-0.2,0.1-0.5,0.1-0.8,0l-2-1.2c-0.5-0.3-0.5-1,0-1.3l2-1.1
				C411.1,192.4,411.4,192.4,411.7,192.5z"/>
			<path class="st2" d="M393.5,192.9l2,1.2c0.5,0.3,0.5,1,0,1.3l-2,1.1c-0.2,0.1-0.5,0.1-0.8,0l-2-1.2c-0.5-0.3-0.5-1,0-1.3l2-1.1
				C393,192.8,393.3,192.8,393.5,192.9z"/>
			<path class="st2" d="M401.9,193.1l2,1.2c0.5,0.3,0.5,1,0,1.3l-2,1.1c-0.2,0.1-0.5,0.1-0.8,0l-2-1.2c-0.5-0.3-0.5-1,0-1.3l1.9-1.1
				C401.3,193,401.6,193,401.9,193.1z"/>
			<path class="st2" d="M407.7,194.8l2,1.2c0.5,0.3,0.5,1,0,1.3l-1.9,1.1c-0.2,0.1-0.5,0.1-0.8,0l-2-1.2c-0.5-0.3-0.5-1,0-1.3l2-1.1
				C407.2,194.6,407.5,194.6,407.7,194.8z"/>
			<path class="st2" d="M388.3,195.9l2,1.2c0.5,0.3,0.5,1,0,1.3l-2,1.1c-0.2,0.1-0.5,0.1-0.8,0l-2-1.2c-0.5-0.3-0.5-1,0-1.3l2-1.1
				C387.7,195.8,388,195.8,388.3,195.9z"/>
			<path class="st2" d="M403.8,197l2,1.2c0.5,0.3,0.5,1,0,1.3l-1.9,1.1c-0.2,0.1-0.5,0.1-0.8,0l-2-1.2c-0.5-0.3-0.5-1,0-1.3l1.9-1.1
				C403.3,196.9,403.6,196.9,403.8,197z"/>
			<path class="st2" d="M433.3,190.1l2.2,1.3c0.5,0.3,0.5,0.9,0,1.2l-15.7,9.1c-0.2,0.1-0.5,0.1-0.7,0l-2.2-1.3
				c-0.5-0.3-0.5-0.9,0-1.2l15.7-9.1C432.8,190,433.1,190,433.3,190.1z"/>
			<path class="st2" d="M397.7,195.5l2,1.2c0.5,0.3,0.5,1,0,1.3l-7.1,4.1c-0.2,0.1-0.5,0.1-0.8,0l-2-1.2c-0.5-0.3-0.5-1,0-1.3
				l7.1-4.1C397.2,195.4,397.5,195.4,397.7,195.5z"/>
			<path class="st2" d="M399.9,199.3l2,1.2c0.5,0.3,0.5,1,0,1.3l-4.9,2.8c-0.2,0.1-0.5,0.1-0.8,0l-2-1.2c-0.5-0.3-0.5-1,0-1.3
				l4.9-2.8C399.3,199.2,399.6,199.2,399.9,199.3z"/>
			<path class="st2" d="M415.7,200.2l2.2,1.3c0.4,0.3,0.4,0.9,0,1.2l-4.5,2.6c-0.2,0.1-0.5,0.1-0.7,0l-2.2-1.3
				c-0.4-0.3-0.4-0.9,0-1.2l4.5-2.6C415.2,200.1,415.5,200.1,415.7,200.2z"/>
			<path class="st2" d="M409.1,204.1l2,1.2c0.5,0.3,0.5,1,0,1.3l-5.4,3.1c-0.2,0.1-0.5,0.1-0.8,0l-2-1.2c-0.5-0.3-0.5-1,0-1.3
				l5.4-3.1C408.6,203.9,408.9,203.9,409.1,204.1z"/>
			<path class="st2" d="M449.5,165.6l2.1,1.2c0.5,0.3,0.5,1,0,1.2l-2.1,1.2c-0.2,0.1-0.5,0.1-0.7,0l-2.1-1.2c-0.5-0.3-0.5-1,0-1.2
				l2.1-1.2C449,165.5,449.3,165.5,449.5,165.6z"/>
			<path class="st2" d="M441.6,170.2l2.1,1.2c0.5,0.3,0.5,1,0,1.2l-2.1,1.2c-0.2,0.1-0.5,0.1-0.7,0l-2.1-1.2c-0.5-0.3-0.5-1,0-1.2
				l2.1-1.2C441.1,170,441.4,170,441.6,170.2z"/>
			<path class="st2" d="M462.1,173.4l2.2,1.3c0.5,0.3,0.5,0.9,0,1.2l-2.1,1.2c-0.2,0.1-0.5,0.1-0.7,0l-2.2-1.3
				c-0.5-0.3-0.5-0.9,0-1.2l2.1-1.2C461.6,173.3,461.9,173.3,462.1,173.4z"/>
			<path class="st2" d="M458.1,175.7l2.1,1.2c0.5,0.3,0.5,1,0,1.2l-2.1,1.2c-0.2,0.1-0.5,0.1-0.7,0l-2.1-1.2c-0.5-0.3-0.5-1,0-1.2
				l2.1-1.2C457.6,175.6,457.9,175.6,458.1,175.7z"/>
			<path class="st2" d="M454.3,173.4l2.2,1.3c0.5,0.3,0.5,0.9,0,1.2l-2.1,1.2c-0.2,0.1-0.5,0.1-0.7,0l-2.2-1.3
				c-0.5-0.3-0.5-0.9,0-1.2l2.1-1.2C453.8,173.3,454.1,173.3,454.3,173.4z"/>
			<path class="st2" d="M421.3,176.8l2.4,1.4c0.4,0.2,0.4,0.8,0,1l-2.3,1.3c-0.2,0.1-0.4,0.1-0.6,0l-2.4-1.4c-0.4-0.2-0.4-0.8,0-1
				l2.3-1.3C420.9,176.7,421.1,176.7,421.3,176.8z"/>
			<path class="st2" d="M454.3,177.9l2.1,1.3c0.5,0.3,0.5,1,0,1.2l-2.1,1.2c-0.2,0.1-0.5,0.1-0.7,0l-2.1-1.2c-0.5-0.3-0.5-1,0-1.2
				l2.1-1.2C453.8,177.8,454.1,177.8,454.3,177.9z"/>
			<polygon class="st2" points="434.9,178.7 438.4,180.7 434.9,182.8 431.4,180.7 			"/>
			<polygon class="st2" points="430.9,180.9 434.5,183 431,185 427.4,183 			"/>
			<path class="st2" d="M448.6,181.2l2.2,1.3c0.5,0.3,0.5,0.9,0,1.2l-5.8,3.4c-0.2,0.1-0.5,0.1-0.7,0l-2.2-1.3
				c-0.5-0.3-0.5-0.9,0-1.2l5.8-3.4C448.1,181.1,448.4,181.1,448.6,181.2z"/>
			<path class="st2" d="M410,198.1l2.4,1.4c0.5,0.3,0.5,1,0,1.3l-1.9,1.1c-0.2,0.1-0.5,0.1-0.8,0l-2-1.2c-0.5-0.3-0.5-1,0-1.3
				L410,198.1L410,198.1z"/>
			<path class="st2" d="M414.2,196l2.2,1.3c0.5,0.3,0.5,0.9,0,1.2l-2.1,1.2c-0.2,0.1-0.5,0.1-0.7,0l-2.2-1.3c-0.4-0.3-0.4-0.9,0-1.2
				l2.1-1.2C413.8,195.9,414,195.9,414.2,196z"/>
			<path class="st2" d="M418.2,193.7l2.2,1.3c0.5,0.3,0.5,0.9,0,1.2l-2.1,1.2c-0.2,0.1-0.5,0.1-0.7,0l-2.2-1.3
				c-0.5-0.3-0.5-0.9,0-1.2l2.1-1.2C417.7,193.6,418,193.6,418.2,193.7z"/>
			<path class="st2" d="M422,191.5l2.2,1.3c0.4,0.3,0.4,0.9,0,1.2l-2.1,1.2c-0.2,0.1-0.5,0.1-0.7,0l-2.2-1.3c-0.4-0.3-0.4-0.9,0-1.2
				l2.1-1.2C421.6,191.4,421.8,191.4,422,191.5z"/>
			<path class="st2" d="M426.1,189.2l2.2,1.3c0.4,0.3,0.4,0.9,0,1.2l-2.1,1.2c-0.2,0.1-0.5,0.1-0.7,0l-2.2-1.3
				c-0.5-0.3-0.5-0.9,0-1.2l2.1-1.2C425.6,189,425.9,189,426.1,189.2z"/>
			<path class="st2" d="M430,186.9l2.2,1.3c0.5,0.3,0.5,0.9,0,1.2l-2.1,1.2c-0.2,0.1-0.5,0.1-0.7,0l-2.2-1.3c-0.5-0.3-0.5-0.9,0-1.2
				l2.1-1.2C429.5,186.8,429.8,186.8,430,186.9z"/>
			<path class="st2" d="M433.9,184.7l2.2,1.3c0.5,0.3,0.5,0.9,0,1.2l-2.1,1.2c-0.2,0.1-0.5,0.1-0.7,0l-2.2-1.3
				c-0.5-0.3-0.5-0.9,0-1.2l2.1-1.2C433.4,184.5,433.7,184.5,433.9,184.7z"/>
			<path class="st2" d="M437.8,182.4l2.2,1.3c0.5,0.3,0.5,0.9,0,1.2l-2.1,1.2c-0.2,0.1-0.5,0.1-0.7,0l-2.2-1.3
				c-0.5-0.3-0.5-0.9,0-1.2l2.1-1.2C437.3,182.3,437.6,182.3,437.8,182.4z"/>
			<path class="st2" d="M405.7,200.6c0.2-0.1,0.5-0.1,0.8,0l2,1.2c0.5,0.3,0.5,1,0,1.3l-7.1,4.1c-0.2,0.1-0.5,0.1-0.8,0l-2.6-1.5
				c-0.2-0.1-0.2-0.5,0-0.6L405.7,200.6z"/>
		</g>
	</g>
</g>
<g>
	<g>
		<g>
			<g>
				<g>
					<path class="st3" d="M386.3,179.2l-3.6-3c-2-1.7-3.2-4.2-3.2-6.8v-23.7h1.1v23.7c0,2.3,1,4.5,2.8,6l4,3.3L386.3,179.2z"/>
				</g>
				<polygon class="st6" points="392.1,183 392.1,183 392.1,183.8 386.3,179.2 386.3,179.2 386.9,178.9 387,179 				"/>
				<polygon class="st3" points="392.1,183 392.1,183 392.1,183.8 386.3,179.2 386.3,179.2 386.3,178.4 386.7,178.7 386.9,178.9 
					387,179 				"/>
				<path class="st2" d="M420.6,166.6L392.1,183l-5.1-4l-0.1-0.1l-0.2-0.2h0l-0.3-0.3l-3.2-2.7l-0.1-0.1c-1.8-1.5-2.8-3.6-2.8-5.9
					v-23l0.5-0.3l17.7-9.8l6.3-5.8h1.1v23.7c0,0.1,0,0.3,0,0.4c0.1,2.2,1.1,4.2,2.8,5.5c0.1,0.1,0.2,0.2,0.4,0.3
					C410.7,161.9,415.5,164.3,420.6,166.6z"/>
				<path class="st2" d="M406,155.1l-25.7,14.7v-21.3c1.8-1.8,3.2-3,3.3-2.8c0.4,0.5,16.8-4.1,22.4-4.8v13.8
					C405.9,154.8,405.9,154.9,406,155.1z"/>
			</g>
			<polygon class="st3" points="392.1,183 420.6,166.6 420.6,167.4 392.1,183.8 			"/>
			<path class="st2" d="M409.1,160.9l-26,14.8l-0.1-0.1c-1.8-1.5-2.8-3.6-2.8-5.9l25.7-14.7c0.1,2.2,1.1,4.2,2.8,5.5
				C408.8,160.7,409,160.8,409.1,160.9z"/>
		</g>
		<g>
			<path class="st2" d="M437.5,61.8l-0.6,0.1h0l-1.3,0.3c0,0.1,0,0.3,0.1,0.4c0.1,0.4,0.1,0.8,0.1,1.2l-0.1,13.5l-0.3,46.2
				c0,3.6-2.2,7.8-5,9.3l-83,47.8c0,0-0.1,0.1-0.1,0.1l0.6,2.3l-2.8-1.7c-0.9-0.5-1.6-1.7-1.7-3.4c0-0.2,0-0.4,0-0.6l0.5-59.6v-0.1
				c0-2.5,1.1-5.2,2.6-7.2c0.7-0.9,1.5-1.6,2.3-2.1l83-47.8c1.2-0.7,2.3-0.7,3.1-0.3v0l2.3,1.4L437.5,61.8z"/>
			<path class="st2" d="M437.2,61.6l-0.3,0.3h0l-1.2,0.7l-86.5,49.1l-2.8-1.3c0.7-0.9,1.5-1.6,2.3-2.1l83-47.8
				c1.2-0.7,2.3-0.7,3.1-0.3v0L437.2,61.6z"/>
			<path class="st2" d="M352.8,113.5l-3.1,7.6l-6-3.4v-0.1c0-2.5,1.1-5.2,2.6-7.2L352.8,113.5z"/>
			<path class="st3" d="M439.2,65.8l-0.1,6v0l-0.1,7.6l-0.3,46.2c0,3.6-2.3,7.8-5,9.3l-30.4,17.2l-32.7,18.5l-0.8,0.5l-19.2,11.6
				c-2.2,1.3-4.1,0.4-4.7-2c-0.1-0.3-0.2-0.7-0.2-1.1c0-0.2,0-0.4,0-0.6l0.1-6.8l0.1-17.5l0.3-35.4c0-3.6,2.3-7.8,5-9.3l34.3-19.4
				l0.1,0l11.7-7l14.8-8.8h0l17.2-9.7l5-2.8c1.8-1,3.4-0.6,4.2,0.8C439,63.6,439.2,64.6,439.2,65.8z"/>
			<g>
				<linearGradient id="SVGID_1_" gradientUnits="userSpaceOnUse" x1="349.1444" y1="122.5795" x2="435.9257" y2="122.5795">
					<stop  offset="0" style="stop-color:#2F95E4"/>
					<stop  offset="1" style="stop-color:#7133DE"/>
				</linearGradient>
				<path class="st7" d="M435.9,66.8v60.8c-16.9,9.9-17,9.9-53.6,31.3c-9.5,5.6,1.2-0.7-33.2,19.4v-60.8
					c48.3-28.3,72-42.1,86.2-50.3L435.9,66.8z"/>
				<polygon class="st2" points="434.7,67.5 434.7,127 349.1,177 349.1,178.3 435.9,127.6 435.9,66.8 				"/>
				<polygon class="st2" points="349.1,178.3 435.9,127.6 434.7,127 349.1,177 				"/>
			</g>
		</g>
	</g>
</g>
<g class="st8">
	<path class="st9" d="M445.9,142.9c0,2.4,2,4.4,4.4,4.4c2.4,0,4.4-2,4.4-4.4c0-2.4-2-4.4-4.4-4.4
		C447.9,138.5,445.9,140.4,445.9,142.9z"/>
	<path class="st10" d="M446.4,142.9c0,2.1,1.7,3.9,3.9,3.9c2.1,0,3.9-1.7,3.9-3.9c0-2.1-1.7-3.9-3.9-3.9
		C448.2,139.1,446.4,140.8,446.4,142.9z"/>
	<path class="st11" d="M447,142.9c0,1.8,1.5,3.3,3.3,3.3c1.8,0,3.3-1.5,3.3-3.3c0-1.8-1.5-3.3-3.3-3.3
		C448.5,139.6,447,141.1,447,142.9z"/>
	<path class="st12" d="M447.5,143c0,1.6,1.3,2.8,2.8,2.8c1.6,0,2.8-1.3,2.8-2.8c0-1.6-1.3-2.8-2.8-2.8
		C448.8,140.2,447.5,141.4,447.5,143z"/>
	<path class="st13" d="M448,143c0,1.3,1,2.3,2.3,2.3c1.3,0,2.3-1,2.3-2.3c0-1.3-1-2.3-2.3-2.3C449.1,140.7,448,141.8,448,143z"/>
	<path class="st14" d="M448.6,143.1c0,1,0.8,1.8,1.8,1.8c1,0,1.8-0.8,1.8-1.8c0-1-0.8-1.8-1.8-1.8
		C449.4,141.3,448.6,142.1,448.6,143.1z"/>
	<path class="st15" d="M449.1,143.1c0,0.7,0.6,1.3,1.3,1.3c0.7,0,1.3-0.6,1.3-1.3s-0.6-1.3-1.3-1.3
		C449.7,141.9,449.1,142.4,449.1,143.1z"/>
</g>
<g>
	<g>
		<path class="st0" d="M329.5,180c1.3,0.7,1.3,1.9,0,2.6c-1.3,0.7-3.3,0.7-4.6,0c-1.1-0.6-1.2-1.6-0.4-2.4c0.1-0.1,0.2-0.2,0.4-0.3
			c0.1-0.1,0.3-0.2,0.5-0.2C326.7,179.3,328.4,179.4,329.5,180z"/>
	</g>
	<g>
		<path class="st9" d="M320.9,181.1c0,3.5,2.8,6.4,6.4,6.4c3.5,0,6.4-2.8,6.4-6.4c0-3.5-2.8-6.4-6.4-6.4
			C323.7,174.7,320.9,177.6,320.9,181.1z"/>
		<path class="st16" d="M321.7,181.1c0,3.1,2.5,5.6,5.6,5.6c3.1,0,5.6-2.5,5.6-5.6c0-3.1-2.5-5.6-5.6-5.6
			C324.2,175.5,321.7,178.1,321.7,181.1z"/>
		<path class="st17" d="M322.4,181.2c0,2.7,2.2,4.8,4.8,4.8c2.7,0,4.9-2.2,4.9-4.8c0-2.7-2.2-4.8-4.9-4.8
			C324.6,176.4,322.4,178.5,322.4,181.2z"/>
		<path class="st18" d="M323.2,181.3c0,2.3,1.8,4.1,4.1,4.1c2.3,0,4.1-1.8,4.1-4.1c0-2.3-1.8-4.1-4.1-4.1
			C325,177.2,323.2,179,323.2,181.3z"/>
		<path class="st19" d="M324,181.3c0,1.8,1.5,3.3,3.3,3.3c1.8,0,3.3-1.5,3.3-3.3c0-1.8-1.5-3.3-3.3-3.3
			C325.5,178,324,179.5,324,181.3z"/>
		<path class="st20" d="M324.8,181.4c0,1.4,1.2,2.6,2.6,2.6c1.4,0,2.6-1.2,2.6-2.6c0-1.4-1.2-2.6-2.6-2.6
			C325.9,178.8,324.8,180,324.8,181.4z"/>
		<path class="st0" d="M325.5,181.5c0,1,0.8,1.8,1.8,1.8c1,0,1.8-0.8,1.8-1.8c0-1-0.8-1.8-1.8-1.8
			C326.3,179.6,325.5,180.5,325.5,181.5z"/>
	</g>
</g>
<g>
	<g>
		<path class="st0" d="M353.1,200.6c1.3,0.7,1.3,1.9,0,2.6c-1.3,0.7-3.3,0.7-4.6,0c-1.1-0.6-1.3-1.6-0.4-2.4
			c0.1-0.1,0.2-0.2,0.4-0.3c0.1-0.1,0.3-0.2,0.5-0.2C350.3,199.9,352,200,353.1,200.6z"/>
	</g>
	<g>
		<path class="st9" d="M344.5,201.7c0,3.5,2.8,6.4,6.4,6.4c3.5,0,6.4-2.8,6.4-6.4c0-3.5-2.9-6.4-6.4-6.4
			C347.3,195.3,344.5,198.2,344.5,201.7z"/>
		<path class="st16" d="M345.3,201.8c0,3.1,2.5,5.6,5.6,5.6c3.1,0,5.6-2.5,5.6-5.6c0-3.1-2.5-5.6-5.6-5.6
			C347.8,196.1,345.3,198.7,345.3,201.8z"/>
		<path class="st17" d="M346,201.8c0,2.7,2.2,4.8,4.8,4.8c2.7,0,4.9-2.2,4.9-4.8c0-2.7-2.2-4.8-4.9-4.8
			C348.2,197,346,199.1,346,201.8z"/>
		<path class="st18" d="M346.8,201.9c0,2.3,1.8,4.1,4.1,4.1c2.3,0,4.1-1.8,4.1-4.1c0-2.3-1.8-4.1-4.1-4.1
			C348.6,197.8,346.8,199.6,346.8,201.9z"/>
		<path class="st19" d="M347.6,201.9c0,1.8,1.5,3.3,3.3,3.3c1.8,0,3.3-1.5,3.3-3.3c0-1.8-1.5-3.3-3.3-3.3
			C349.1,198.6,347.6,200.1,347.6,201.9z"/>
		<path class="st20" d="M348.4,202c0,1.4,1.2,2.6,2.6,2.6c1.4,0,2.6-1.2,2.6-2.6c0-1.4-1.2-2.6-2.6-2.6
			C349.5,199.4,348.4,200.6,348.4,202z"/>
		<path class="st0" d="M349.1,202.1c0,1,0.8,1.8,1.8,1.8c1,0,1.8-0.8,1.8-1.8c0-1-0.8-1.8-1.8-1.8
			C350,200.2,349.1,201.1,349.1,202.1z"/>
	</g>
</g>
<g>
	<path class="st21" d="M373.4,211.3c1.3,0.7,1.3,1.9,0,2.6c-1.3,0.7-3.3,0.7-4.6,0c-1.1-0.6-1.3-1.6-0.4-2.4
		c0.1-0.1,0.2-0.2,0.4-0.3c0.1-0.1,0.3-0.2,0.5-0.2C370.5,210.6,372.2,210.6,373.4,211.3z"/>
</g>
<g>
	<g>
		<path class="st0" d="M433.4,214c1.3,0.7,1.3,1.9,0,2.6c-1.3,0.7-3.3,0.7-4.5,0c-1.1-0.6-1.2-1.6-0.4-2.4c0.1-0.1,0.2-0.2,0.4-0.3
			c0.1-0.1,0.3-0.2,0.5-0.2C430.6,213.3,432.3,213.4,433.4,214z"/>
	</g>
	<g>
		<path class="st9" d="M424.8,215.1c0,3.5,2.8,6.4,6.4,6.4c3.5,0,6.4-2.8,6.4-6.4c0-3.5-2.8-6.4-6.4-6.4
			C427.6,208.7,424.8,211.6,424.8,215.1z"/>
		<path class="st16" d="M425.5,215.2c0,3.1,2.5,5.6,5.6,5.6c3.1,0,5.6-2.5,5.6-5.6c0-3.1-2.5-5.6-5.6-5.6
			C428.1,209.6,425.5,212.1,425.5,215.2z"/>
		<path class="st17" d="M426.3,215.2c0,2.7,2.2,4.8,4.8,4.8c2.7,0,4.8-2.2,4.8-4.8c0-2.7-2.2-4.8-4.8-4.8
			C428.5,210.4,426.3,212.5,426.3,215.2z"/>
		<path class="st18" d="M427.1,215.3c0,2.3,1.8,4.1,4.1,4.1c2.3,0,4.1-1.8,4.1-4.1c0-2.3-1.8-4.1-4.1-4.1
			C428.9,211.2,427.1,213,427.1,215.3z"/>
		<path class="st19" d="M427.9,215.3c0,1.8,1.5,3.3,3.3,3.3c1.8,0,3.3-1.5,3.3-3.3c0-1.8-1.5-3.3-3.3-3.3
			C429.4,212,427.9,213.5,427.9,215.3z"/>
		<path class="st20" d="M428.6,215.4c0,1.4,1.2,2.6,2.6,2.6c1.4,0,2.6-1.2,2.6-2.6c0-1.4-1.2-2.6-2.6-2.6
			C429.8,212.8,428.6,214,428.6,215.4z"/>
		<path class="st0" d="M429.4,215.5c0,1,0.8,1.8,1.8,1.8c1,0,1.8-0.8,1.8-1.8c0-1-0.8-1.8-1.8-1.8
			C430.2,213.6,429.4,214.5,429.4,215.5z"/>
	</g>
</g>
<g>
	<g>
		<path class="st0" d="M474.3,202.5c1.3,0.7,1.3,1.9,0,2.6c-1.3,0.7-3.3,0.7-4.5,0c-1.1-0.6-1.3-1.6-0.4-2.4
			c0.1-0.1,0.2-0.2,0.4-0.3c0.1-0.1,0.3-0.2,0.5-0.2C471.4,201.8,473.1,201.9,474.3,202.5z"/>
	</g>
	<g>
		<path class="st9" d="M465.6,203.6c0,3.5,2.8,6.4,6.4,6.4c3.5,0,6.4-2.8,6.4-6.4c0-3.5-2.9-6.4-6.4-6.4
			C468.5,197.2,465.6,200.1,465.6,203.6z"/>
		<path class="st16" d="M466.4,203.7c0,3.1,2.5,5.6,5.6,5.6c3.1,0,5.6-2.5,5.6-5.6c0-3.1-2.5-5.6-5.6-5.6
			C468.9,198.1,466.4,200.6,466.4,203.7z"/>
		<path class="st17" d="M467.2,203.7c0,2.7,2.2,4.8,4.8,4.8c2.7,0,4.9-2.2,4.9-4.8c0-2.7-2.2-4.8-4.9-4.8
			C469.4,198.9,467.2,201.1,467.2,203.7z"/>
		<path class="st18" d="M468,203.8c0,2.3,1.8,4.1,4.1,4.1c2.3,0,4.1-1.8,4.1-4.1c0-2.3-1.8-4.1-4.1-4.1
			C469.8,199.7,468,201.5,468,203.8z"/>
		<path class="st19" d="M468.7,203.9c0,1.8,1.5,3.3,3.3,3.3c1.8,0,3.3-1.5,3.3-3.3c0-1.8-1.5-3.3-3.3-3.3
			C470.2,200.5,468.7,202,468.7,203.9z"/>
		<path class="st20" d="M469.5,203.9c0,1.4,1.2,2.6,2.6,2.6c1.4,0,2.6-1.2,2.6-2.6c0-1.4-1.2-2.6-2.6-2.6
			C470.7,201.3,469.5,202.5,469.5,203.9z"/>
		<path class="st0" d="M470.3,204c0,1,0.8,1.8,1.8,1.8c1,0,1.8-0.8,1.8-1.8c0-1-0.8-1.8-1.8-1.8C471.1,202.2,470.3,203,470.3,204z"
			/>
	</g>
</g>
<g>
	<path class="st21" d="M463,156.8c1.3,0.7,1.3,1.9,0,2.6c-1.3,0.7-3.3,0.7-4.6,0c-1.1-0.6-1.3-1.6-0.4-2.4c0.1-0.1,0.2-0.2,0.4-0.3
		c0.1-0.1,0.3-0.2,0.5-0.2C460.2,156.1,461.9,156.2,463,156.8z"/>
</g>
<g>
	<g>
		<path class="st0" d="M486.3,174.5c1.3,0.7,1.3,1.9,0,2.6c-1.3,0.7-3.3,0.7-4.6,0c-1.1-0.6-1.3-1.6-0.4-2.4
			c0.1-0.1,0.2-0.2,0.4-0.3c0.1-0.1,0.3-0.2,0.5-0.2C483.5,173.8,485.2,173.9,486.3,174.5z"/>
	</g>
	<g>
		<path class="st9" d="M477.7,175.6c0,3.5,2.8,6.4,6.4,6.4s6.4-2.8,6.4-6.4c0-3.5-2.8-6.4-6.4-6.4S477.7,172.1,477.7,175.6z"/>
		<path class="st16" d="M478.5,175.7c0,3.1,2.5,5.6,5.6,5.6c3.1,0,5.6-2.5,5.6-5.6c0-3.1-2.5-5.6-5.6-5.6
			C481,170.1,478.5,172.6,478.5,175.7z"/>
		<path class="st17" d="M479.3,175.7c0,2.7,2.2,4.8,4.8,4.8c2.7,0,4.9-2.2,4.9-4.8c0-2.7-2.2-4.8-4.9-4.8
			C481.4,170.9,479.3,173.1,479.3,175.7z"/>
		<path class="st18" d="M480,175.8c0,2.3,1.8,4.1,4.1,4.1c2.3,0,4.1-1.8,4.1-4.1c0-2.3-1.8-4.1-4.1-4.1
			C481.9,171.7,480,173.5,480,175.8z"/>
		<path class="st19" d="M480.8,175.9c0,1.8,1.5,3.3,3.3,3.3c1.8,0,3.3-1.5,3.3-3.3c0-1.8-1.5-3.3-3.3-3.3
			C482.3,172.5,480.8,174,480.8,175.9z"/>
		<path class="st20" d="M481.6,175.9c0,1.4,1.2,2.6,2.6,2.6c1.4,0,2.6-1.2,2.6-2.6c0-1.4-1.2-2.6-2.6-2.6
			C482.7,173.3,481.6,174.5,481.6,175.9z"/>
		<path class="st0" d="M482.4,176c0,1,0.8,1.8,1.8,1.8c1,0,1.8-0.8,1.8-1.8c0-1-0.8-1.8-1.8-1.8C483.2,174.2,482.4,175,482.4,176z"
			/>
	</g>
</g>
<g>
	<path class="st21" d="M371.6,213.4l-0.8-1.4c0.2-0.1,23-12.5,31.8-19c13.4-9.9,3.8-46.7,3.7-47.1l1.6-0.4c0.4,1.6,10,38.2-4.3,48.8
		C394.7,200.9,371.8,213.3,371.6,213.4z"/>
</g>
<g>
	<path class="st21" d="M426.4,179.8c-0.5,0-0.9-0.2-1.2-0.4c-4.2-2.7-3.8-22.3-3.7-26.2l1.6,0.1c-0.3,8.7,0.3,23.1,3,24.8
		c0.2,0.1,0.4,0.2,0.8,0c5.7-2.9,33.1-20,33.4-20.2l0.9,1.4c-1.1,0.7-27.8,17.3-33.5,20.2C427.1,179.7,426.7,179.8,426.4,179.8z"/>
</g>
<g>
	<path class="st9" d="M364.7,212.6c0,3.5,2.8,6.4,6.4,6.4c3.5,0,6.4-2.8,6.4-6.4c0-3.5-2.9-6.4-6.4-6.4
		C367.6,206.3,364.7,209.1,364.7,212.6z"/>
	<path class="st16" d="M365.5,212.7c0,3.1,2.5,5.6,5.6,5.6c3.1,0,5.6-2.5,5.6-5.6c0-3.1-2.5-5.6-5.6-5.6
		C368,207.1,365.5,209.6,365.5,212.7z"/>
	<path class="st17" d="M366.3,212.7c0,2.7,2.2,4.8,4.8,4.8c2.7,0,4.9-2.2,4.9-4.8c0-2.7-2.2-4.8-4.9-4.8
		C368.5,207.9,366.3,210.1,366.3,212.7z"/>
	<path class="st18" d="M367.1,212.8c0,2.3,1.8,4.1,4.1,4.1c2.3,0,4.1-1.8,4.1-4.1c0-2.3-1.8-4.1-4.1-4.1
		C368.9,208.7,367.1,210.5,367.1,212.8z"/>
	<path class="st19" d="M367.8,212.9c0,1.8,1.5,3.3,3.3,3.3c1.8,0,3.3-1.5,3.3-3.3c0-1.8-1.5-3.3-3.3-3.3
		C369.3,209.5,367.8,211,367.8,212.9z"/>
	<path class="st20" d="M368.6,212.9c0,1.4,1.2,2.6,2.6,2.6c1.4,0,2.6-1.2,2.6-2.6c0-1.4-1.2-2.6-2.6-2.6
		C369.8,210.3,368.6,211.5,368.6,212.9z"/>
	<path class="st0" d="M369.4,213c0,1,0.8,1.8,1.8,1.8c1,0,1.8-0.8,1.8-1.8c0-1-0.8-1.8-1.8-1.8C370.2,211.2,369.4,212,369.4,213z"/>
</g>
<g>
	<path class="st9" d="M454.3,158.1c0,3.5,2.8,6.4,6.4,6.4c3.5,0,6.4-2.8,6.4-6.4c0-3.5-2.8-6.4-6.4-6.4
		C457.1,151.8,454.3,154.6,454.3,158.1z"/>
	<path class="st16" d="M455.1,158.2c0,3.1,2.5,5.6,5.6,5.6c3.1,0,5.6-2.5,5.6-5.6c0-3.1-2.5-5.6-5.6-5.6
		C457.6,152.6,455.1,155.1,455.1,158.2z"/>
	<path class="st17" d="M455.8,158.2c0,2.7,2.2,4.8,4.8,4.8c2.7,0,4.8-2.2,4.8-4.8c0-2.7-2.2-4.8-4.8-4.8
		C458,153.4,455.8,155.6,455.8,158.2z"/>
	<path class="st18" d="M456.6,158.3c0,2.3,1.8,4.1,4.1,4.1c2.3,0,4.1-1.8,4.1-4.1c0-2.3-1.8-4.1-4.1-4.1
		C458.4,154.2,456.6,156,456.6,158.3z"/>
	<path class="st19" d="M457.4,158.4c0,1.8,1.5,3.3,3.3,3.3c1.8,0,3.3-1.5,3.3-3.3c0-1.8-1.5-3.3-3.3-3.3
		C458.9,155,457.4,156.5,457.4,158.4z"/>
	<path class="st20" d="M458.2,158.4c0,1.4,1.2,2.6,2.6,2.6c1.4,0,2.6-1.2,2.6-2.6c0-1.4-1.2-2.6-2.6-2.6
		C459.3,155.8,458.2,157,458.2,158.4z"/>
	<path class="st0" d="M458.9,158.5c0,1,0.8,1.8,1.8,1.8c1,0,1.8-0.8,1.8-1.8c0-1-0.8-1.8-1.8-1.8
		C459.7,156.7,458.9,157.5,458.9,158.5z"/>
</g>
<g>
	<g>
		<polygon class="st2" points="382,123.1 382.1,124.8 363.2,135.7 363.2,134 		"/>
	</g>
	<g>
		<polygon class="st2" points="421.5,105.1 421.5,117.5 394.8,133 394.8,120.6 		"/>
	</g>
	<g>
		<path class="st0" d="M392,119.1l31.5-18.2l0.1,27.5l-31.5,18.2L392,119.1z M421.5,117.5l0-12.4l-26.8,15.4l0,12.4L421.5,117.5
			L421.5,117.5z"/>
	</g>
	<g>
		<polygon class="st0" points="423.5,95.9 423.5,98 392,116.2 392,114.1 		"/>
	</g>
	<g>
		<polygon class="st2" points="382.1,138.7 382.1,151 363.3,161.9 363.3,149.6 		"/>
	</g>
	<g>
		<path class="st0" d="M361.2,123.3l24-13.9l0.1,42.3l-24,13.9L361.2,123.3z M382.1,151l0-12.3l-18.8,10.9l0,12.3L382.1,151
			L382.1,151z M382,116.3l0-1.7l-18.8,10.9l0,1.7L382,116.3L382,116.3z M382.1,124.8l0-1.7L363.2,134l0,1.7L382.1,124.8L382.1,124.8
			z M382.1,128.8l0-1.7l-18.8,10.9l0,1.7L382.1,128.8L382.1,128.8z M382,120.2l0-1.7l-18.8,10.9l0,1.7L382,120.2L382,120.2z"/>
	</g>
	<g>
		<g>
			<path class="st2" d="M358.6,116.2L426.4,77l0.2,53.2l-67.8,39.1L358.6,116.2z M385.3,151.8l-0.1-42.3l-24,13.9l0.1,42.3
				L385.3,151.8L385.3,151.8z M423.6,128.4l-0.1-27.5L392,119.1l0.1,27.5L423.6,128.4L423.6,128.4z M423.5,85l0-4.7l-63.3,36.5
				l0,4.7L423.5,85L423.5,85z M423.5,89.4l0-2.1L392,105.5l0,2.1L423.5,89.4L423.5,89.4z M423.5,93.3l0-2.1L392,109.5l0,2.1
				L423.5,93.3L423.5,93.3z M423.5,98v-2.1L392,114.1l0,2.1L423.5,98L423.5,98z"/>
		</g>
	</g>
	<g>
		<polygon class="st0" points="423.5,91.3 423.5,93.3 392,111.5 392,109.5 		"/>
	</g>
	<g>
		<polygon class="st2" points="361.1,119.7 395.5,99.9 395.5,97.7 361.1,117.5 		"/>
	</g>
	<g>
		<path class="st0" d="M423.5,85l0-4.7l-63.3,36.5l0,4.7L423.5,85z M422.2,82.2l0,2.2l-13.6,7.9l0-2.2L422.2,82.2L422.2,82.2z
			 M395.5,97.7l0,2.2l-34.4,19.8l0-2.2L395.5,97.7L395.5,97.7z"/>
	</g>
	<g>
		<polygon class="st2" points="422.2,82.2 422.2,84.4 408.6,92.3 408.6,90.1 		"/>
	</g>
	<g>
		<polygon class="st0" points="423.5,87.4 423.5,89.4 392,107.6 392,105.5 		"/>
	</g>
	<g class="st22">
		<polygon class="st2" points="382.1,127 382.1,128.8 363.3,139.6 363.2,137.9 		"/>
	</g>
	<g>
		<polygon class="st2" points="382,118.4 382,120.2 363.2,131 363.2,129.3 		"/>
	</g>
	<g class="st22">
		<polygon class="st2" points="382,114.5 382,116.3 363.2,127.1 363.2,125.4 		"/>
	</g>
</g>
<g>
	<g>
		<linearGradient id="SVGID_2_" gradientUnits="userSpaceOnUse" x1="390.3501" y1="127.5351" x2="449.6202" y2="127.5351">
			<stop  offset="0" style="stop-color:#9ACEFF"/>
			<stop  offset="1" style="stop-color:#C185FE"/>
		</linearGradient>
		<path class="st23" d="M449.6,138.6c0.8-13.5-16-39.9-44.9-29.8c-16.5,5.8-20.4,15.1-2.8,27.9c0,0-0.2,7.2,13.6,6
			c0,0,8.9-0.4,14.9,4.2C436.6,151.7,449.2,144.7,449.6,138.6z"/>
	</g>
	<g>
		<path class="st24" d="M396.5,115.8c0,0,4.6-4.7,10.8-4.9c2-0.1,4.3,0.1,6.7,0.3c5.1,0.4,11.3,0.6,16.4-1.5l-1.4-0.6
			c-4.8,2-10,1.4-15,1c-2.4-0.2-4.7-0.4-6.8-0.3c-6.7,0.3-11.4,5.1-11.6,5.3L396.5,115.8z"/>
	</g>
	<g>
		<path class="st24" d="M415.3,110.5l1-0.2c0,0.4,0-0.5,0.1-0.6c0.2-0.4,2.1-1.8,7.1-2.6l-1.8-0.4c-4.3,0.7-5.8,1.3-6.3,2.5
			C415.1,109.8,415.2,110.3,415.3,110.5z"/>
	</g>
	<g>
		<path class="st24" d="M430.3,119l1.1-0.8c-1.8-2.6-6.6-6.3-9.4-7.5c-0.6-0.3-0.2-0.1-0.8-0.4l-1.4,0.6c0.6,0.3,1.2,0.5,1.8,0.8
			C424.3,113,428.7,116.7,430.3,119z"/>
	</g>
	<g>
		<path class="st24" d="M446.5,125.9l-0.6-1.2c-0.4-0.1-1.7-0.3-4.6-1.3c-1.2-0.4-1.9-1.3-2.7-2.3c-0.9-1.1-2-2.4-4-3
			c-3-0.8-5.1,1-5.7,2.1l1,0.6c0.1-0.1,1.5-2.4,4.5-1.6c1.6,0.4,2.5,1.5,3.4,2.6c0.8,1,1.7,2.1,3.2,2.6
			C443.9,125.5,446.4,125.8,446.5,125.9z"/>
	</g>
	<g>
		<path class="st24" d="M440.4,123.5c2.9-5.6-5.3-10-5.7-10.2l-0.5,1c0.1,0,7.6,4.1,5.2,8.7L440.4,123.5z"/>
	</g>
	<g>
		<path class="st24" d="M444.7,145.5c0.2-0.2,5.2-4.4,3-8.8c-1-2-2.4-3.4-3.5-4.4c-1.2-1.2-2.1-2-2-3.2c0-1.9-1.7-3.7-3.5-4.5
			c-1.7-0.8-3.3-0.7-4.4,0.3l0.8,0.8c1.1-1,2.6-0.4,3.2-0.1c1.6,0.7,2.8,2.3,2.8,3.4c0,1.7,1.1,2.8,2.4,4c1.1,1.1,2.3,2.3,3.3,4.1
			c1.8,3.7-3.8,9.3-3.9,9.4L444.7,145.5z"/>
	</g>
	<g>
		<path class="st24" d="M448.8,131.9l-0.5-1.6c-2.8-2.3-6.6-0.8-6.8-0.7l0.4,1.1C442,130.6,446.8,129.1,448.8,131.9z"/>
	</g>
	<g>
		<path class="st24" d="M441.1,143.4c4.8-4.4,4.6-9,4.6-9.1l-1.2-0.2l0,0l0.1,0.6c0,0.1-1.4,4.9-4.1,7.3L441.1,143.4z"/>
	</g>
	<path class="st25" d="M430.3,146.9c-6-4.5-14.9-4.2-14.9-4.2c-13.8,1.1-13.6-6-13.6-6c-11.2-8.2-13.7-15-9.7-20.3
		c2.2-1.4,4.9-2.6,8.1-3.7c28.9-10.1,45.7,16.4,44.9,29.8c-0.1,1.2-0.6,2.4-1.4,3.5C439.5,148.6,433.9,149.6,430.3,146.9z"/>
	<g>
		<linearGradient id="SVGID_3_" gradientUnits="userSpaceOnUse" x1="384.7277" y1="135.462" x2="441.1335" y2="135.462">
			<stop  offset="0" style="stop-color:#AAB1FF"/>
			<stop  offset="1" style="stop-color:#C986FF"/>
		</linearGradient>
		<path class="st26" d="M441.1,144.6c0.8-13.5-12.6-38.7-44.9-29.8c-6.8,1.9-20.4,15.1-2.8,27.9c0,0-0.2,7.2,13.6,6
			c0,0,7.9,2.2,14.6,7.1C431.3,163,440.7,150.6,441.1,144.6z"/>
	</g>
	<g>
		<path class="st24" d="M392.3,141.9l1,0.8c0,0-1.2-3.4-0.1-5.1c0.6-0.9,1.9-1.3,3.8-1.3l0.8,0c4.6,0.2,7.6,0.3,9.1-1.5
			c1-1.2,1.2-3,0.5-5.9c-1.1-5.3-0.8-8.9,0.8-10.7c1.1-1.3,2.9-1.8,5.3-1.6c5,0.4,6.8,3.7,7.5,13.5c0.2,2,2,4.2,4.6,5.6
			c2.1,1.1,6.6,3.7,13.8-0.9l-0.4-1.1c-6.7,4.2-11,1.9-12.9,1c-2.6-1.3-3.9-3.3-4-4.6c-0.7-9.1-2.2-14.1-8.6-14.6
			c-2.8-0.2-4.9,0.5-6.3,2c-1.9,2.2-2.2,6-1,11.7c0.5,2.5,0.4,4-0.3,4.9c-1.1,1.4-4.1,1.2-8.2,1.1l-0.8,0c-2.4-0.1-4,0.5-4.8,1.8
			C390.9,139.3,392.3,141.8,392.3,141.9z"/>
	</g>
	<g>
		<path class="st24" d="M410.6,142.7l1.1-0.1c-0.8-7.9-11-7.3-11.1-7.3l0.1,1.1C401,136.4,409.9,135.9,410.6,142.7z"/>
	</g>
	<g>
		<path class="st24" d="M406,126.8l1.1-0.2c0-0.1-2-9.5-11-9.1l0.1,1.1C404.2,118.2,406,126.5,406,126.8z"/>
	</g>
	<g>
		<path class="st24" d="M395.4,124.6c1.3-4.4,6.5-4.4,6.6-4.4l0-1.1c-0.1,0-6.1,0.1-7.6,5.3L395.4,124.6z"/>
	</g>
	<g>
		<path class="st24" d="M429.2,145.1l0.4-1.1c-11-4.3-7.5-14.1-7.4-14.5l-1.1-0.4C421.1,129.2,417.2,140.4,429.2,145.1z"/>
	</g>
	<g>
		<path class="st24" d="M423.1,148.2l0.8-0.8c-3.2-2.9-0.7-7.8-0.7-7.9l-1-0.5C422,139.2,419.3,144.7,423.1,148.2z"/>
	</g>
	<g>
		<path class="st24" d="M420.6,124.8l0.9-0.7c0-0.1-3.8-5.3-8.8-3.3l0.4,1.1C417.3,120.2,420.6,124.7,420.6,124.8z"/>
	</g>
	<g>
		<path class="st24" d="M427.4,154.5c5.2-0.5,5.3-4.5,6.5-8.1c0.4-1.3,0.7-2.6,1.3-3.5c2-2.8,3.8-2.9,5.7-3l-0.2-1.1
			c-0.3,0-4.4-0.4-6.5,3.6c-0.6,1-0.9,2.3-1.4,3.7c-1.1,3.6-3.2,7.8-7.6,8.2L427.4,154.5z"/>
	</g>
	<g>
		<path class="st24" d="M425.6,135.3l1.1-0.1c-0.4-4.3,6.8-5.3,6.9-5.3l-0.1-1.1C433.1,128.8,425.1,129.9,425.6,135.3z"/>
	</g>
	<g>
		<path class="st24" d="M428,131.3l1-0.6c-2.1-3.4,1.2-7.7,1.3-7.7l-0.9-0.7C429.2,122.5,425.6,127.3,428,131.3z"/>
	</g>
	<g>
		<path class="st24" d="M394.7,136.1l1-0.5c-1-2.2-1.7-2.6-3.7-4c-0.4-0.3-0.9-0.6-1.4-1c-2.8-2-0.9-5.9-0.8-5.9l-1-0.5
			c-0.8,1.6-1.7,5.3,1.2,7.3c0.5,0.4,1,0.7,1.4,1C393.4,133.9,393.8,134.1,394.7,136.1z"/>
	</g>
	<g>
		<path class="st24" d="M387.6,132.5c1.6,0,3-0.9,3.1-1l-0.6-0.9c0,0-1.6,1.1-3,0.7c-0.7-0.2-1.8-1.6-2.3-2.4l0.1,1.8
			c0.6,1.1,0.9,1.4,2,1.7C387.1,132.5,387.3,132.5,387.6,132.5z"/>
	</g>
	<g>
		<path class="st24" d="M410.4,148.6c0.1,0,0.2-0.1,0.3-0.2c0.4-0.4,0-0.8-0.2-1l0,0c-0.2-0.2-0.9-0.8-2.7-2.4
			c-0.9-0.8-1.3-1.7-1.2-2.6c0.2-2,2.6-3.7,2.6-3.7l-0.6-0.9c-0.1,0.1-2.9,2-3.1,4.5c-0.1,1.3,0.4,2.4,1.6,3.5
			c1.4,1.3,2.2,2,2.7,2.4c0,0,0.1,0.1,0.1,0.1l0,0C410.1,148.5,410.3,148.6,410.4,148.6z"/>
	</g>
	<g>
		<path class="st24" d="M401.1,144.8c0.6-1,1.3-1.5,2.2-1.7c1.3-0.3,2.5,0.5,2.5,0.5l0.6-0.9c-0.1,0-1.6-1-3.3-0.6
			c-1.1,0.2-2.1,1-2.9,2.2L401.1,144.8z"/>
	</g>
	<g>
		<path class="st24" d="M407.7,131.4c0,0,2.7-2.8,5.3-2.8c0,0,0,0,0,0c0.9,0,1.7,0.4,2.4,1.1l0.8-0.8c-0.9-1-2-1.5-3.2-1.5
			c-3,0-6,3.1-6.1,3.2L407.7,131.4z"/>
	</g>
	<g>
		<path class="st24" d="M397.9,128.9c3.1-3,0.2-8.1,0.1-8.3l-1,0.6c0,0,2.6,4.6,0.1,6.9L397.9,128.9z"/>
	</g>
	<g>
		<path class="st24" d="M431,151.5l0.8-0.8c-0.8-0.8-3.2-2.1-5.9-0.7l0.5,1C429,149.6,430.9,151.4,431,151.5z"/>
	</g>
	<g>
		<path class="st24" d="M417.5,144.8c1-1.9,4.1-1.6,4.1-1.6l0.1-1.1c-0.2,0-3.9-0.4-5.2,2.2L417.5,144.8z"/>
	</g>
</g>
<g class="st8">
	<path class="st9" d="M429.7,146.6c0,2.1,1.7,3.8,3.8,3.8c2.1,0,3.8-1.7,3.8-3.8c0-2.1-1.7-3.8-3.8-3.8
		C431.5,142.8,429.7,144.5,429.7,146.6z"/>
	<path class="st10" d="M430.2,146.6c0,1.9,1.5,3.4,3.4,3.4c1.9,0,3.4-1.5,3.4-3.4c0-1.9-1.5-3.4-3.4-3.4
		C431.7,143.3,430.2,144.8,430.2,146.6z"/>
	<path class="st11" d="M430.7,146.7c0,1.6,1.3,2.9,2.9,2.9c1.6,0,2.9-1.3,2.9-2.9c0-1.6-1.3-2.9-2.9-2.9
		C432,143.8,430.7,145.1,430.7,146.7z"/>
	<path class="st12" d="M431.1,146.7c0,1.4,1.1,2.5,2.5,2.5c1.4,0,2.5-1.1,2.5-2.5c0-1.4-1.1-2.5-2.5-2.5
		C432.2,144.3,431.1,145.4,431.1,146.7z"/>
	<path class="st13" d="M431.6,146.8c0,1.1,0.9,2,2,2c1.1,0,2-0.9,2-2c0-1.1-0.9-2-2-2C432.5,144.8,431.6,145.7,431.6,146.8z"/>
	<path class="st14" d="M432.1,146.8c0,0.9,0.7,1.6,1.5,1.6c0.9,0,1.6-0.7,1.6-1.6c0-0.9-0.7-1.6-1.6-1.6
		C432.8,145.2,432.1,145.9,432.1,146.8z"/>
	<path class="st15" d="M432.5,146.8c0,0.6,0.5,1.1,1.1,1.1c0.6,0,1.1-0.5,1.1-1.1c0-0.6-0.5-1.1-1.1-1.1
		C433,145.7,432.5,146.2,432.5,146.8z"/>
</g>
<g class="st8">
	<path class="st9" d="M388.2,131.3c0,2.1,1.7,3.8,3.8,3.8c2.1,0,3.8-1.7,3.8-3.8c0-2.1-1.7-3.8-3.8-3.8
		C389.9,127.5,388.2,129.2,388.2,131.3z"/>
	<path class="st10" d="M388.6,131.4c0,1.9,1.5,3.4,3.4,3.4c1.9,0,3.4-1.5,3.4-3.4c0-1.9-1.5-3.4-3.4-3.4
		C390.2,128,388.6,129.5,388.6,131.4z"/>
	<path class="st11" d="M389.1,131.4c0,1.6,1.3,2.9,2.9,2.9c1.6,0,2.9-1.3,2.9-2.9c0-1.6-1.3-2.9-2.9-2.9
		C390.4,128.5,389.1,129.8,389.1,131.4z"/>
	<path class="st12" d="M389.6,131.4c0,1.4,1.1,2.5,2.5,2.5c1.4,0,2.5-1.1,2.5-2.5c0-1.4-1.1-2.5-2.5-2.5
		C390.7,129,389.6,130.1,389.6,131.4z"/>
	<path class="st13" d="M390,131.5c0,1.1,0.9,2,2,2c1.1,0,2-0.9,2-2c0-1.1-0.9-2-2-2C390.9,129.5,390,130.4,390,131.5z"/>
	<path class="st14" d="M390.5,131.5c0,0.9,0.7,1.6,1.5,1.6c0.9,0,1.6-0.7,1.6-1.6c0-0.9-0.7-1.6-1.6-1.6
		C391.2,130,390.5,130.7,390.5,131.5z"/>
	<path class="st15" d="M391,131.6c0,0.6,0.5,1.1,1.1,1.1c0.6,0,1.1-0.5,1.1-1.1c0-0.6-0.5-1.1-1.1-1.1
		C391.5,130.5,391,131,391,131.6z"/>
</g>
<g class="st8">
	<path class="st9" d="M403.3,128.9c0,2.1,1.7,3.8,3.8,3.8c2.1,0,3.8-1.7,3.8-3.8c0-2.1-1.7-3.8-3.8-3.8
		C405,125.1,403.3,126.8,403.3,128.9z"/>
	<path class="st10" d="M403.8,129c0,1.9,1.5,3.4,3.4,3.4c1.9,0,3.4-1.5,3.4-3.4c0-1.9-1.5-3.4-3.4-3.4
		C405.3,125.6,403.8,127.1,403.8,129z"/>
	<path class="st11" d="M404.2,129c0,1.6,1.3,2.9,2.9,2.9c1.6,0,2.9-1.3,2.9-2.9c0-1.6-1.3-2.9-2.9-2.9
		C405.5,126.1,404.2,127.4,404.2,129z"/>
	<path class="st12" d="M404.7,129.1c0,1.4,1.1,2.5,2.5,2.5c1.4,0,2.5-1.1,2.5-2.5c0-1.4-1.1-2.5-2.5-2.5
		C405.8,126.6,404.7,127.7,404.7,129.1z"/>
	<path class="st13" d="M405.2,129.1c0,1.1,0.9,2,2,2c1.1,0,2-0.9,2-2c0-1.1-0.9-2-2-2C406.1,127.1,405.2,128,405.2,129.1z"/>
	<path class="st14" d="M405.6,129.1c0,0.9,0.7,1.6,1.5,1.6c0.9,0,1.6-0.7,1.6-1.6c0-0.9-0.7-1.6-1.6-1.6
		C406.3,127.6,405.6,128.3,405.6,129.1z"/>
	<path class="st15" d="M406.1,129.2c0,0.6,0.5,1.1,1.1,1.1c0.6,0,1.1-0.5,1.1-1.1c0-0.6-0.5-1.1-1.1-1.1
		C406.6,128.1,406.1,128.6,406.1,129.2z"/>
</g>
<g class="st8">
	<path class="st9" d="M422.7,110.4c0,2.1,1.7,3.8,3.8,3.8c2.1,0,3.8-1.7,3.8-3.8c0-2.1-1.7-3.8-3.8-3.8
		C424.4,106.5,422.7,108.3,422.7,110.4z"/>
	<path class="st10" d="M423.2,110.4c0,1.9,1.5,3.4,3.4,3.4c1.9,0,3.4-1.5,3.4-3.4c0-1.9-1.5-3.4-3.4-3.4
		C424.7,107,423.2,108.5,423.2,110.4z"/>
	<path class="st11" d="M423.6,110.4c0,1.6,1.3,2.9,2.9,2.9c1.6,0,2.9-1.3,2.9-2.9c0-1.6-1.3-2.9-2.9-2.9
		C424.9,107.5,423.6,108.8,423.6,110.4z"/>
	<path class="st12" d="M424.1,110.5c0,1.4,1.1,2.5,2.5,2.5c1.4,0,2.5-1.1,2.5-2.5c0-1.4-1.1-2.5-2.5-2.5
		C425.2,108,424.1,109.1,424.1,110.5z"/>
	<path class="st13" d="M424.6,110.5c0,1.1,0.9,2,2,2c1.1,0,2-0.9,2-2c0-1.1-0.9-2-2-2C425.5,108.5,424.6,109.4,424.6,110.5z"/>
	<path class="st14" d="M425,110.6c0,0.9,0.7,1.6,1.5,1.6c0.9,0,1.6-0.7,1.6-1.6c0-0.9-0.7-1.6-1.6-1.6
		C425.7,109,425,109.7,425,110.6z"/>
	<path class="st15" d="M425.5,110.6c0,0.6,0.5,1.1,1.1,1.1c0.6,0,1.1-0.5,1.1-1.1c0-0.6-0.5-1.1-1.1-1.1
		C426,109.5,425.5,110,425.5,110.6z"/>
</g>
<g class="st8">
	<path class="st9" d="M437.3,121.1c0,2.1,1.7,3.8,3.8,3.8c2.1,0,3.8-1.7,3.8-3.8c0-2.1-1.7-3.8-3.8-3.8
		C439,117.3,437.3,119,437.3,121.1z"/>
	<path class="st10" d="M437.8,121.2c0,1.9,1.5,3.4,3.4,3.4c1.9,0,3.4-1.5,3.4-3.4c0-1.9-1.5-3.4-3.4-3.4
		C439.3,117.8,437.8,119.3,437.8,121.2z"/>
	<path class="st11" d="M438.2,121.2c0,1.6,1.3,2.9,2.9,2.9c1.6,0,2.9-1.3,2.9-2.9c0-1.6-1.3-2.9-2.9-2.9
		C439.5,118.3,438.2,119.6,438.2,121.2z"/>
	<path class="st12" d="M438.7,121.3c0,1.4,1.1,2.5,2.5,2.5c1.4,0,2.5-1.1,2.5-2.5c0-1.4-1.1-2.5-2.5-2.5
		C439.8,118.8,438.7,119.9,438.7,121.3z"/>
	<path class="st13" d="M439.2,121.3c0,1.1,0.9,2,2,2c1.1,0,2-0.9,2-2c0-1.1-0.9-2-2-2C440.1,119.3,439.2,120.2,439.2,121.3z"/>
	<path class="st14" d="M439.6,121.3c0,0.9,0.7,1.6,1.5,1.6c0.9,0,1.6-0.7,1.6-1.6c0-0.9-0.7-1.6-1.6-1.6
		C440.3,119.8,439.6,120.5,439.6,121.3z"/>
	<path class="st15" d="M440.1,121.4c0,0.6,0.5,1.1,1.1,1.1c0.6,0,1.1-0.5,1.1-1.1c0-0.6-0.5-1.1-1.1-1.1
		C440.6,120.3,440.1,120.8,440.1,121.4z"/>
</g>
<g>
	<path class="st27" d="M451.3,133.7c0,0-3.6-3-5.2-2.6c-1.6,0.4-2.1-0.1-2.4,0.5c-0.9,1.8,2.9,4.1,7.2,3.8
		C450.9,135.3,452.2,134.4,451.3,133.7z"/>
	<path class="st28" d="M458.9,138.2c-0.6-0.4-1.1-2-1.1-2c-0.5-1.1,0.4-1.7,0.8-1.9l9.4-2.8c1.9-0.8,3.8-1,5.1-0.3l0,0
		c1.6,0.9,1.8,3.5-0.6,4.4C472.5,135.7,460.5,139.4,458.9,138.2z"/>
	<g>
		<g>
			<path class="st28" d="M460.9,137.9c0.8-1.2,0-2.9-1.3-3.6l-9.1-1.4c0,0,0.1,1.1-0.1,1.6c-0.5,1.2-0.9,1.2-0.9,1.2
				S459,140.6,460.9,137.9z"/>
		</g>
	</g>
	<g>
		<path class="st29" d="M467.1,194.2c0,0-1.9,0.6-1.2,1.6c0.7,1,3.2,2.1,3.7,2.7c0.4,0.6,2.7,2.6,3.3,2.3c0.5-0.3,2.1-0.3,1.4-2.9
			C473.5,195.2,469.6,193.6,467.1,194.2z"/>
		<path class="st30" d="M473.7,156.1c0,0,2.8,4.5,1.4,11.4c-1.5,6.9-0.9,16.5-0.9,16.5s1.4,12.3,0.3,14.5c0,0-3.1,1.8-6-0.5
			l-2.3-22.8l-1-16.7C465.2,158.5,472,157.6,473.7,156.1z"/>
		<path class="st31" d="M466.2,175.2l-0.8-13.1l2.6-0.6c0,0,1.6,11.8,0.8,14.6c-0.6,2.2,1.5,16,1.5,22.8c-0.6-0.2-1.2-0.5-1.8-0.9
			L466.2,175.2z"/>
		<path class="st29" d="M451.9,192.9c0,0-0.9,2-2.6,1.2c-1.7-0.8-0.5-1.3-4.2-3.1c-3.7-1.8-2.5-3.5-2.2-3.8c0.7-0.8,2.9,0.9,3.7,1.2
			c0.8,0.4,2.7,0.9,2.7,0.9l3.2,3.3L451.9,192.9z"/>
		<path class="st30" d="M469.5,158c0,0,2.1,5.8-1.4,8.2c-3.5,2.4-7.4,6.8-8.4,8.8c-0.9,2-6.1,17.7-6.1,17.7s-3.8,1.5-6.6-1.2
			c0,0,4.1-18.5,5.6-20.9c1.5-2.5,8.1-14.2,8.1-14.2S464.5,158.1,469.5,158z"/>
		<path class="st31" d="M447,191.5c0,0,4.1-18.5,5.6-20.9c1.4-2.3,7.3-12.6,8-14l2.6,4.7c0,0-4.6,5.4-5.5,7.1
			c-0.8,1.5-6.7,16.1-7.9,24.7C448.9,192.8,447.9,192.4,447,191.5z"/>
	</g>
	<path class="st32" d="M473.2,130.8c0,0,2.9,0.2,1.5,5.5c-1.4,5.2-2,10.9-1.8,12.8c0.2,1.9,1.3,6.9,1.8,8.2c0,0,0.5,4-8.8,7.1
		c0,0-7.7,0.6-6.8-4.7c1-5.3,0.9-13.8,0.6-15.8c-0.3-2-1.7-5.9,3-9C467.4,131.9,470.1,130.8,473.2,130.8z"/>
	<path class="st28" d="M459.7,143.9c0.3,2,0.3,10.5-0.6,15.8c-0.7,3.7,2.8,4.7,5.1,4.7c0.6-2.4,0-7.1,1.3-12.3
		c1.6-6.4,0.2-10.4-1.1-13.7c-0.8-2.1-2.1-2.1-3-2.4C458.2,138.8,459.4,142.1,459.7,143.9z"/>
	<g>
		<g>
			<path class="st33" d="M470.6,128.4c0,0-0.5,2.6,0.3,4.3c0.7,1.5-5.4,2.5-5.4,1.1c0-0.1,1.3-2.3,0-5.1
				C464.8,127.3,470.6,128.4,470.6,128.4z"/>
			<path class="st34" d="M470.9,132.8c-0.6-1.3-0.5-3-0.4-3.8l-4.5,1.9c0,0,0,0,0,0c0.2,0,3.1,1,3.6,3.2
				C470.5,133.8,471.2,133.3,470.9,132.8z"/>
			<path class="st33" d="M464.7,121.1c0,0-1.1,2.3-1,4.3c0.1,2.2-0.3,2.6-0.2,3.6c0,0.4,0,1,0.4,1.5c0.6,0.7,2,1,3.9,0.4
				c2.3-0.7,4.8-3.7,4-6.6C471,121.5,468.2,119,464.7,121.1z"/>
			<path class="st27" d="M471.5,127.4c-0.7-2.6-2.8-5.8-2.8-5.9c0-0.1-0.7-0.6-1.5-1.2c-0.8,0-1.6,0.2-2.5,0.8c0,0-0.3,0.6-0.6,1.5
				c0.5,0.6,1.5,1.4,1.7,1.9c0.3,1.2,0,3.1-0.4,3.9c-0.4,0.8,1,2.1,0.6,2.8c0,0,0,0.1,0,0.1c0.5,0,1.1-0.1,1.8-0.3
				C469.2,130.5,470.8,129.1,471.5,127.4z"/>
			<path class="st35" d="M464.1,120.1c0,0-0.4,2,1.4,3.1c1.1,0.7,0.9,2.6,0.8,2.9c-0.1,0.4-0.5,2-0.4,2.2c0.3,0.4,1.2-0.8,1.7-0.7
				c1.1,0.3,0.6,1.3-0.5,2.4c-1.1,1.1,1.7,1.8,3,0.9c0.7-0.5,1-0.8,2-2.6c1.5-2.6,1.7-5.8-1.3-7.8C468,118.6,466,121,464.1,120.1z"
				/>
			<path class="st35" d="M470.2,130.9c0.7-0.5,1-0.8,2-2.6c1.5-2.6,1.7-5.8-1.3-7.8c-3-1.9-5,0.4-6.9-0.5c0,0-0.1,0.3,0,0.8
				c1,0.2,3.7,0.9,4.3,2.2c0.8,1.5,1.8,1.1,1.6,2.9c-0.2,1.7,0.1,4.1-2.8,4.9C468.2,131.7,469.7,131.2,470.2,130.9z"/>
		</g>
		<path class="st36" d="M465.7,132.8l-2.3,1.6c0,0,6.2,2.1,8.2-0.8c0.3-0.4,0.1-1.9-1-2.2C470.6,131.4,470.3,133.9,465.7,132.8z"/>
	</g>
	<path class="st27" d="M444,138.6c0,0-2.4-4-4-4.2c-1.6-0.2-2-0.8-2.4-0.4c-1.4,1.4,1.3,4.8,5.5,6C443,140,444.6,139.6,444,138.6z"
		/>
	<path class="st28" d="M450.8,146c-0.6-0.3-1.4-1.7-1.4-1.7c-0.7-1,0-1.7,0.4-2l8.7-4.5c1.7-1.1,3.6-1.7,5-1.2l0,0
		c1.8,0.6,2.5,3.1,0.2,4.5C463.8,141,452.7,146.9,450.8,146z"/>
	<g>
		<g>
			<path class="st28" d="M451.6,145.8c1.2-0.9,1-2.8,0-3.8l-8.1-4.4c0,0-0.2,1.1-0.6,1.5c-0.8,1-1.3,0.9-1.3,0.9
				S448.9,147.7,451.6,145.8z"/>
		</g>
	</g>
</g>
<g>
	<g class="st1">
		<path d="M38.3,127.7c-7,4-7,10.6-0.1,14.6l23,13.4c7,4,18.3,4,25.3,0l29.8-17.2c7-4,7-10.6,0.1-14.6l-23-13.4c-7-4-18.3-4-25.3,0
			L38.3,127.7z"/>
	</g>
	<g>
		<g>
			<polygon class="st37" points="72.6,153.2 67.5,150.2 116.1,122.2 121.2,125.2 			"/>
		</g>
		<path class="st2" d="M72.7,159.3l0-6.1l-5.1-3l0,6.1c0,1.2,0.4,2.1,1.2,2.5c1.7,1,3.4,2,5.1,3C73.1,161.4,72.7,160.6,72.7,159.3z"
			/>
		<g>
			<path class="st38" d="M72.7,159.3l0-6.1l48.6-28l0,6.1c0,2.5-1.8,5.6-4,6.9l-40.6,23.4C74.5,162.8,72.7,161.8,72.7,159.3z"/>
		</g>
		<g>
			<linearGradient id="SVGID_4_" gradientUnits="userSpaceOnUse" x1="77.3839" y1="69.5222" x2="61.952" y2="154.826">
				<stop  offset="0" style="stop-color:#2F95E4"/>
				<stop  offset="1" style="stop-color:#7133DE"/>
			</linearGradient>
			<polygon class="st39" points="72.6,153.2 67.5,150.2 67.3,68 72.4,70.9 			"/>
		</g>
		<g>
			<polygon class="st40" points="72.4,70.9 67.3,68 115.8,39.9 121,42.9 			"/>
		</g>
		<g>
			<linearGradient id="SVGID_5_" gradientUnits="userSpaceOnUse" x1="72.4064" y1="98.0534" x2="121.1993" y2="98.0534">
				<stop  offset="0" style="stop-color:#2F95E4"/>
				<stop  offset="1" style="stop-color:#7133DE"/>
			</linearGradient>
			<polygon class="st41" points="121,42.9 121.2,125.2 72.6,153.2 72.4,70.9 			"/>
		</g>
		<g class="st42">
			<defs>
				<path id="SVGID_6_" class="st42" d="M102.5,43.9c0-0.3-0.1-0.5-0.3-0.6l5.1,3c0.2,0.1,0.3,0.3,0.3,0.6l0,0l0,0
					c-0.1-0.1-0.3-0.2-0.4-0.2c-0.1,0-0.1-0.1-0.2-0.1c-0.4-0.2-0.8-0.5-1.2-0.7c-0.6-0.3-1.1-0.7-1.7-1
					C103.6,44.6,103.1,44.2,102.5,43.9c1.7,1,3.4,2,5.1,3l0,0c0,0.6-0.4,1.4-1,1.7l-5.1-3C102.1,45.3,102.5,44.5,102.5,43.9z"/>
			</defs>
			<clipPath id="SVGID_7_">
				<use xlink:href="#SVGID_6_"  style="overflow:visible;"/>
			</clipPath>
			<g class="st43">
				<path class="st44" d="M106.7,48.6l-5.1-3c0.1-0.1,0.2-0.1,0.3-0.3l5.1,3C106.9,48.4,106.8,48.5,106.7,48.6L106.7,48.6z"/>
				<path class="st45" d="M107,48.3l-5.1-3c0,0,0.1-0.1,0.1-0.1l5.1,3C107.1,48.3,107,48.3,107,48.3L107,48.3z"/>
				<path class="st46" d="M107.1,48.2l-5.1-3c0,0,0.1-0.1,0.1-0.1L107.1,48.2C107.2,48.2,107.1,48.2,107.1,48.2L107.1,48.2z"/>
				<path class="st47" d="M107.2,48.1l-5.1-3c0,0,0-0.1,0.1-0.1L107.2,48.1C107.2,48.1,107.2,48.1,107.2,48.1L107.2,48.1z"/>
				<path class="st48" d="M107.2,48l-5.1-3c0,0,0-0.1,0.1-0.1L107.2,48C107.3,48,107.3,48,107.2,48L107.2,48z"/>
				<path class="st49" d="M107.3,48l-5.1-3c0,0,0-0.1,0.1-0.1L107.3,48C107.3,47.9,107.3,47.9,107.3,48L107.3,48z"/>
				<path class="st50" d="M107.4,47.9l-5.1-3c0,0,0-0.1,0-0.1L107.4,47.9C107.4,47.8,107.4,47.8,107.4,47.9L107.4,47.9z"/>
				<path class="st51" d="M107.4,47.8l-5.1-3c0,0,0-0.1,0-0.1L107.4,47.8C107.4,47.7,107.4,47.8,107.4,47.8L107.4,47.8z"/>
				<path class="st52" d="M107.4,47.7l-5.1-3c0,0,0-0.1,0-0.1L107.4,47.7C107.5,47.7,107.5,47.7,107.4,47.7L107.4,47.7z"/>
				<path class="st53" d="M107.5,47.6l-5.1-3c0,0,0-0.1,0-0.1L107.5,47.6C107.5,47.6,107.5,47.6,107.5,47.6L107.5,47.6z"/>
				<path class="st54" d="M107.5,47.5l-5.1-3c0,0,0-0.1,0-0.1L107.5,47.5C107.5,47.5,107.5,47.5,107.5,47.5L107.5,47.5z"/>
				<path class="st55" d="M107.5,47.4l-5.1-3c0,0,0-0.1,0-0.1l5.1,3C107.6,47.4,107.6,47.4,107.5,47.4L107.5,47.4z"/>
				<path class="st56" d="M107.6,47.3l-5.1-3c0,0,0-0.1,0-0.1l5.1,3C107.6,47.3,107.6,47.3,107.6,47.3L107.6,47.3z"/>
				<path class="st57" d="M107.6,47.2l-5.1-3c0,0,0-0.1,0-0.1l5.1,3C107.6,47.1,107.6,47.2,107.6,47.2L107.6,47.2z"/>
				<path class="st58" d="M107.6,47.1l-5.1-3c0-0.1,0-0.1,0-0.2c0-0.3-0.1-0.5-0.3-0.6l5.1,3c0.2,0.1,0.3,0.3,0.3,0.6
					C107.6,47,107.6,47,107.6,47.1L107.6,47.1z"/>
			</g>
		</g>
		<g class="st42">
			<defs>
				<path id="SVGID_8_" class="st42" d="M102.2,43.3c0.1,0,0.2,0.1,0.3,0.1c1.6,0.9,3.3,1.9,4.9,2.8c-0.2-0.1-0.4-0.1-0.7,0.1
					l-5.1-3C101.8,43.2,102,43.2,102.2,43.3z"/>
			</defs>
			<clipPath id="SVGID_9_">
				<use xlink:href="#SVGID_8_"  style="overflow:visible;"/>
			</clipPath>
			<g class="st59">
				<path class="st60" d="M106.7,46.4l-5.1-3c0,0,0.1,0,0.1-0.1l5.1,3C106.8,46.3,106.7,46.3,106.7,46.4L106.7,46.4z"/>
				<path class="st61" d="M106.8,46.3l-5.1-3c0,0,0.1,0,0.1,0l5.1,3C106.9,46.3,106.8,46.3,106.8,46.3L106.8,46.3z"/>
				<path class="st62" d="M106.9,46.2l-5.1-3c0,0,0.1,0,0.1,0L106.9,46.2C107,46.2,106.9,46.2,106.9,46.2L106.9,46.2z"/>
				<path class="st63" d="M107,46.2l-5.1-3c0,0,0,0,0.1,0L107,46.2C107,46.2,107,46.2,107,46.2L107,46.2z"/>
				<path class="st64" d="M107.1,46.2l-5.1-3c0,0,0,0,0.1,0L107.1,46.2C107.1,46.2,107.1,46.2,107.1,46.2L107.1,46.2z"/>
				<path class="st65" d="M107.1,46.2l-5.1-3c0,0,0,0,0.1,0L107.1,46.2C107.2,46.2,107.2,46.2,107.1,46.2L107.1,46.2z"/>
				<path class="st66" d="M107.2,46.2l-5.1-3c0,0,0,0,0.1,0L107.2,46.2C107.2,46.2,107.2,46.2,107.2,46.2L107.2,46.2z"/>
				<path class="st67" d="M107.3,46.2l-5.1-3c0,0,0,0,0.1,0L107.3,46.2C107.3,46.3,107.3,46.2,107.3,46.2L107.3,46.2z"/>
				<path class="st68" d="M107.3,46.3l-5.1-3c0,0,0,0,0,0L107.3,46.3C107.3,46.3,107.3,46.3,107.3,46.3L107.3,46.3z"/>
				<path class="st69" d="M107.4,46.3l-5.1-3c0,0,0,0,0,0L107.4,46.3L107.4,46.3L107.4,46.3z"/>
			</g>
		</g>
		<g>
			<polygon class="st37" points="85.7,60.7 80.6,57.7 101.5,45.6 106.7,48.6 			"/>
		</g>
		<g class="st42">
			<defs>
				<path id="SVGID_10_" class="st42" d="M79.9,57.8c0.2,0.1,0.4,0.1,0.7-0.1l5.1,3c-0.3,0.2-0.5,0.2-0.7,0.1
					C83.5,59.8,81.5,58.6,79.9,57.8z"/>
			</defs>
			<clipPath id="SVGID_11_">
				<use xlink:href="#SVGID_10_"  style="overflow:visible;"/>
			</clipPath>
			<g class="st70">
				<path class="st53" d="M85,60.7l-5.1-3c0,0,0,0,0,0L85,60.7C85.1,60.7,85.1,60.7,85,60.7L85,60.7z"/>
				<path class="st52" d="M85.1,60.7l-5.1-3c0,0,0,0,0.1,0L85.1,60.7C85.1,60.8,85.1,60.7,85.1,60.7L85.1,60.7z"/>
				<path class="st51" d="M85.1,60.8l-5.1-3c0,0,0,0,0,0L85.1,60.8C85.1,60.8,85.1,60.8,85.1,60.8L85.1,60.8z"/>
				<path class="st50" d="M85.2,60.8l-5.1-3c0,0,0,0,0.1,0L85.2,60.8C85.2,60.8,85.2,60.8,85.2,60.8L85.2,60.8z"/>
				<path class="st49" d="M85.2,60.8l-5.1-3c0,0,0,0,0.1,0L85.2,60.8C85.3,60.8,85.2,60.8,85.2,60.8L85.2,60.8z"/>
				<path class="st48" d="M85.3,60.8l-5.1-3c0,0,0,0,0.1,0L85.3,60.8C85.3,60.8,85.3,60.8,85.3,60.8L85.3,60.8z"/>
				<path class="st47" d="M85.3,60.8l-5.1-3c0,0,0.1,0,0.1,0L85.3,60.8C85.4,60.8,85.4,60.8,85.3,60.8L85.3,60.8z"/>
				<path class="st46" d="M85.4,60.8l-5.1-3c0,0,0.1,0,0.1,0L85.4,60.8C85.5,60.8,85.4,60.8,85.4,60.8L85.4,60.8z"/>
				<path class="st45" d="M85.5,60.8l-5.1-3c0,0,0.1,0,0.1,0l5.1,3C85.6,60.8,85.5,60.8,85.5,60.8L85.5,60.8z"/>
				<path class="st44" d="M85.6,60.7l-5.1-3c0,0,0.1,0,0.1-0.1l5.1,3C85.7,60.7,85.6,60.7,85.6,60.7L85.6,60.7z"/>
			</g>
		</g>
		<g>
			<polygon class="st40" points="85.7,58.4 80.6,55.5 101.5,43.4 106.7,46.4 			"/>
		</g>
		<g class="st42">
			<defs>
				<path id="SVGID_12_" class="st42" d="M85,60.7c-1.7-1-3.4-2-5.1-3c-0.2-0.1-0.3-0.3-0.3-0.6c0-0.6,0.4-1.4,1-1.7l5.1,3
					c-0.5,0.3-1,1.1-1,1.7C84.8,60.4,84.9,60.6,85,60.7z"/>
			</defs>
			<clipPath id="SVGID_13_">
				<use xlink:href="#SVGID_12_"  style="overflow:visible;"/>
			</clipPath>
			<g class="st71">
				<path class="st72" d="M85,60.7l-5.1-3c-0.2-0.1-0.3-0.3-0.3-0.6c0-0.1,0-0.1,0-0.2l5.1,3c0,0.1,0,0.1,0,0.2
					C84.8,60.4,84.9,60.6,85,60.7L85,60.7z"/>
				<path class="st73" d="M84.8,59.9l-5.1-3c0,0,0-0.1,0-0.1l5.1,3C84.8,59.8,84.8,59.9,84.8,59.9L84.8,59.9z"/>
				<path class="st74" d="M84.8,59.8l-5.1-3c0,0,0-0.1,0-0.1l5.1,3C84.8,59.7,84.8,59.7,84.8,59.8L84.8,59.8z"/>
				<path class="st75" d="M84.8,59.7l-5.1-3c0,0,0-0.1,0-0.1l5.1,3C84.8,59.6,84.8,59.6,84.8,59.7L84.8,59.7z"/>
				<path class="st76" d="M84.9,59.6l-5.1-3c0,0,0-0.1,0-0.1L84.9,59.6C84.9,59.5,84.9,59.5,84.9,59.6L84.9,59.6z"/>
				<path class="st69" d="M84.9,59.5l-5.1-3c0,0,0-0.1,0-0.1L84.9,59.5C84.9,59.4,84.9,59.5,84.9,59.5L84.9,59.5z"/>
				<path class="st68" d="M84.9,59.4l-5.1-3c0,0,0-0.1,0-0.1L84.9,59.4C85,59.3,84.9,59.4,84.9,59.4L84.9,59.4z"/>
				<path class="st67" d="M85,59.3l-5.1-3c0,0,0-0.1,0-0.1L85,59.3C85,59.3,85,59.3,85,59.3L85,59.3z"/>
				<path class="st66" d="M85,59.2l-5.1-3c0,0,0-0.1,0-0.1L85,59.2C85,59.2,85,59.2,85,59.2L85,59.2z"/>
				<path class="st65" d="M85.1,59.1l-5.1-3c0,0,0-0.1,0.1-0.1L85.1,59.1C85.1,59.1,85.1,59.1,85.1,59.1L85.1,59.1z"/>
				<path class="st64" d="M85.1,59.1l-5.1-3c0,0,0-0.1,0.1-0.1L85.1,59.1C85.1,59,85.1,59,85.1,59.1L85.1,59.1z"/>
				<path class="st63" d="M85.2,59L80,56c0,0,0-0.1,0.1-0.1L85.2,59C85.2,58.9,85.2,59,85.2,59L85.2,59z"/>
				<path class="st62" d="M85.2,58.9l-5.1-3c0,0,0.1-0.1,0.1-0.1L85.2,58.9C85.3,58.8,85.3,58.9,85.2,58.9L85.2,58.9z"/>
				<path class="st61" d="M85.3,58.8l-5.1-3c0,0,0.1-0.1,0.1-0.1l5.1,3C85.4,58.7,85.3,58.8,85.3,58.8L85.3,58.8z"/>
				<path class="st60" d="M85.4,58.7l-5.1-3c0.1-0.1,0.2-0.2,0.3-0.3l5.1,3C85.6,58.5,85.5,58.6,85.4,58.7L85.4,58.7z"/>
			</g>
		</g>
		<g>
			<path class="st2" d="M106.7,46.4c0.5-0.3,1-0.1,1,0.6c0,0.6-0.4,1.4-1,1.7L85.7,60.7c-0.5,0.3-1,0.1-1-0.6c0-0.6,0.4-1.4,1-1.7
				L106.7,46.4z"/>
		</g>
		<g>
			<g>
				<path class="st38" d="M117,37.1c2.2-1.3,4-0.2,4,2.3l0,3.6l-48.6,28l0-3.6c0-2.5,1.8-5.6,4-6.9L117,37.1z M106.7,48.6
					c0.5-0.3,1-1.1,1-1.7c0-0.6-0.4-0.9-1-0.6L85.7,58.4c-0.5,0.3-1,1.1-1,1.7c0,0.6,0.4,0.9,1,0.6L106.7,48.6L106.7,48.6z"/>
			</g>
		</g>
		<path class="st2" d="M117.6,36.8c0.1,0,0.2-0.1,0.3-0.1c0.1,0,0.1,0,0.2,0c0.1,0,0.1,0,0.2,0c0.1,0,0.1,0,0.2,0c0,0,0.1,0,0.1,0
			c0.1,0,0.2,0,0.3,0c0,0,0,0,0.1,0c0.1,0,0.2,0,0.3,0c0,0,0.1,0,0.1,0c0.1,0,0.1,0,0.2,0.1c0,0,0,0,0.1,0c0.1,0,0.2,0.1,0.3,0.1
			c-1.7-1-3.4-2-5.1-3c0,0,0,0,0,0c-0.1,0-0.1-0.1-0.2-0.1c0,0,0,0,0,0c0,0,0,0-0.1,0c0,0-0.1,0-0.1,0c0,0-0.1,0-0.1,0
			c0,0,0,0-0.1,0c0,0,0,0,0,0c-0.1,0-0.2,0-0.2,0c0,0,0,0,0,0c0,0,0,0-0.1,0c-0.1,0-0.1,0-0.2,0c0,0,0,0-0.1,0c0,0-0.1,0-0.1,0
			c0,0-0.1,0-0.1,0c0,0-0.1,0-0.1,0c-0.1,0-0.1,0-0.2,0c0,0-0.1,0-0.1,0c0,0-0.1,0-0.1,0c-0.1,0-0.2,0.1-0.3,0.1c0,0-0.1,0-0.1,0
			c0,0,0,0-0.1,0c-0.2,0.1-0.3,0.2-0.5,0.2L71.2,57.5c-0.2,0.1-0.4,0.3-0.6,0.4c0,0-0.1,0-0.1,0.1c-0.2,0.2-0.4,0.3-0.6,0.5
			c0,0,0,0,0,0c0,0-0.1,0.1-0.1,0.1c-0.1,0.1-0.2,0.2-0.3,0.3c0,0-0.1,0.1-0.1,0.1c0,0,0,0.1-0.1,0.1c-0.1,0.1-0.1,0.1-0.2,0.2
			c0,0-0.1,0.1-0.1,0.1c0,0-0.1,0.1-0.1,0.1c0,0-0.1,0.1-0.1,0.1c0,0-0.1,0.1-0.1,0.1c0,0.1-0.1,0.1-0.1,0.2c0,0-0.1,0.1-0.1,0.1
			c0,0,0,0,0,0c-0.1,0.1-0.1,0.2-0.2,0.3c0,0,0,0,0,0c0,0,0,0,0,0.1c-0.1,0.1-0.1,0.2-0.1,0.3c0,0,0,0.1-0.1,0.1c0,0,0,0.1-0.1,0.1
			c0,0,0,0.1-0.1,0.1c0,0.1-0.1,0.2-0.1,0.3c0,0,0,0,0,0.1c0,0,0,0,0,0c-0.1,0.1-0.1,0.2-0.1,0.4c0,0,0,0,0,0.1c0,0,0,0.1,0,0.1
			c0,0.1,0,0.1-0.1,0.2c0,0,0,0.1,0,0.1c0,0.1,0,0.1-0.1,0.2c0,0,0,0.1,0,0.1c0,0.1,0,0.1,0,0.2c0,0.1,0,0.1-0.1,0.2c0,0,0,0,0,0.1
			c0,0,0,0.1,0,0.1c0,0.1,0,0.2-0.1,0.3c0,0,0,0.1,0,0.1c0,0,0,0,0,0.1c0,0.2,0,0.5,0,0.7l0,3.5l5.1,3l0-3.6c0-0.2,0-0.5,0-0.7
			c0-0.1,0-0.1,0-0.2c0-0.1,0-0.2,0.1-0.3c0-0.1,0-0.1,0-0.2c0-0.1,0-0.1,0.1-0.2c0-0.1,0.1-0.2,0.1-0.3c0-0.1,0-0.1,0.1-0.2
			c0-0.1,0.1-0.2,0.1-0.3c0,0,0-0.1,0-0.1c0.1-0.1,0.1-0.3,0.2-0.4c0,0,0,0,0-0.1c0.1-0.1,0.1-0.2,0.2-0.4c0,0,0-0.1,0.1-0.1
			c0.1-0.1,0.1-0.2,0.2-0.3c0,0,0-0.1,0.1-0.1c0.1-0.1,0.2-0.3,0.3-0.4c0,0,0-0.1,0.1-0.1c0.1-0.1,0.1-0.2,0.2-0.3
			c0-0.1,0.1-0.1,0.1-0.2c0.1-0.1,0.1-0.2,0.2-0.2c0.1-0.1,0.1-0.1,0.2-0.2c0-0.1,0.1-0.1,0.1-0.2c0.1-0.1,0.2-0.2,0.3-0.3
			c0.1,0,0.1-0.1,0.1-0.1c0.2-0.2,0.4-0.3,0.6-0.5c0,0,0.1,0,0.1-0.1c0.2-0.2,0.4-0.3,0.6-0.4L117,37.1c0.2-0.1,0.3-0.2,0.5-0.3
			C117.5,36.8,117.6,36.8,117.6,36.8z"/>
	</g>
</g>
<g>
	<g>
		<path class="st77" d="M141.3,152.4c8.6,5,8.7,13,0.1,18c-8.6,5-22.5,5-31.1,0c-8.6-5-8.7-13-0.1-18
			C118.8,147.4,132.7,147.4,141.3,152.4z"/>
	</g>
</g>
<g class="st78">
	<g>
		<path class="st77" d="M144.8,150.1c10.5,6.1,10.6,16,0.1,22.1c-10.5,6.1-27.5,6.1-38.1,0c-10.6-6.1-10.6-16-0.1-22.1
			C117.2,144,134.3,144,144.8,150.1z"/>
	</g>
</g>
<g>
	<path class="st3" d="M138.3,153.2c6.9,4,6.9,10.5,0.1,14.5c-6.9,4-18,4-25,0c-6.9-4-7-10.5-0.1-14.5
		C120.2,149.2,131.4,149.2,138.3,153.2z"/>
</g>
<path class="st79" d="M168.2,93.8c0,0-1.3,9-11,14.2v8.4c0,0,10.6-6,11.2-12.2L168.2,93.8z"/>
<path class="st80" d="M94.5,111.9c0,0-12.2-5.7-13.8-18.7l-0.9,9.1c0,0,0,10.6,14.9,16.3L94.5,111.9z"/>
<path class="st80" d="M109,82.6l0,3.1c0,0,8.1-2.8,22.7-1.5v-2.7C131.6,81.5,121.5,79.4,109,82.6z"/>
<path class="st81" d="M80.1,118.5c2-3.9,7.1-9.6,12.5-12.6c5.6-3,12.8-6.1,19.9-7l-0.1-12.2c-7.1,0.9-13.8,2.8-19.4,5.8
	C81.6,98.8,78.7,107.6,80.1,118.5z"/>
<path class="st81" d="M168.5,119.8c2.8-10.6-0.2-19.4-11.4-26.4c-4.1-2.5-8.8-4.5-13.9-5.9l-0.4,13.3c5.1,1.4,9.8,3.3,13.9,5.9
	C162.1,110,166.7,115.7,168.5,119.8z"/>
<path class="st81" d="M139.1,100.2l0.4-13.3c-7.6-1.4-15.7-1.6-23.3-0.5l-0.4,13.3C123.5,98.7,131.5,98.8,139.1,100.2z"/>
<g>
	<g>
		<path class="st82" d="M154.9,119.8c0.8-12.3-14.7-36.5-41-27.2c-15.1,5.3-18.6,13.8-2.6,25.5c0,0-0.2,6.6,12.4,5.5
			c0,0,8.1-0.3,13.6,3.8C143,131.8,154.5,125.4,154.9,119.8z"/>
	</g>
	<g>
		<path class="st83" d="M106.4,98.9c0,0,4.2-4.3,9.9-4.5c1.9-0.1,3.9,0.1,6.1,0.2c4.7,0.3,10.4,0.5,15-1.4l-1.2-0.6
			c-4.4,1.9-9.1,1.3-13.7,0.9c-2.2-0.2-4.3-0.3-6.2-0.2c-6.1,0.3-10.4,4.6-10.6,4.8L106.4,98.9z"/>
	</g>
	<g>
		<path class="st83" d="M123.6,94.1l0.9-0.1c0,0.4,0-0.4,0.1-0.6c0.2-0.4,2-1.6,6.5-2.3l-1.7-0.3c-3.9,0.6-5.3,1.1-5.8,2.3
			C123.3,93.5,123.4,93.9,123.6,94.1z"/>
	</g>
	<g>
		<path class="st83" d="M137.2,101.9l1-0.7c-1.6-2.4-6-5.7-8.6-6.8c-0.5-0.2-0.2-0.1-0.7-0.3l-1.3,0.5c0.6,0.3,1.1,0.5,1.6,0.7
			C131.8,96.4,135.8,99.8,137.2,101.9z"/>
	</g>
	<g>
		<path class="st83" d="M152,108.2l-0.6-1.1c-0.4-0.1-1.6-0.3-4.2-1.2c-1.1-0.4-1.8-1.2-2.5-2.1c-0.8-1-1.8-2.2-3.6-2.7
			c-2.8-0.7-4.6,0.9-5.2,1.9l0.9,0.5c0.1-0.1,1.4-2.2,4.1-1.5c1.5,0.4,2.3,1.4,3.1,2.4c0.8,0.9,1.6,1.9,2.9,2.4
			C149.6,107.8,151.9,108.1,152,108.2z"/>
	</g>
	<g>
		<path class="st83" d="M146.5,106c2.6-5.1-4.9-9.2-5.2-9.3l-0.5,0.9c0.1,0,6.9,3.8,4.7,7.9L146.5,106z"/>
	</g>
	<g>
		<path class="st83" d="M150.4,126.1c0.2-0.2,4.8-4,2.7-8.1c-0.9-1.9-2.2-3.1-3.2-4.1c-1.1-1.1-1.9-1.8-1.9-2.9
			c0-1.7-1.6-3.4-3.2-4.1c-1.6-0.7-3-0.6-4,0.3l0.7,0.8c1-0.9,2.4-0.4,2.9-0.1c1.5,0.7,2.6,2.1,2.6,3.1c0,1.5,1,2.5,2.2,3.7
			c1,1,2.1,2.1,3,3.8c1.7,3.4-3.5,8.5-3.6,8.6L150.4,126.1z"/>
	</g>
	<g>
		<path class="st83" d="M154.1,113.7l-0.4-1.5c-2.6-2.1-6-0.7-6.2-0.6l0.4,1C147.9,112.5,152.3,111.1,154.1,113.7z"/>
	</g>
	<g>
		<path class="st83" d="M147.1,124.2c4.4-4.1,4.3-8.3,4.2-8.3l-1.1-0.2l0,0l0.1,0.6c0,0.1-1.3,4.5-3.8,6.7L147.1,124.2z"/>
	</g>
	<path class="st25" d="M137.2,127.4c-5.5-4.1-13.6-3.8-13.6-3.8c-12.6,1-12.4-5.5-12.4-5.5c-10.3-7.5-12.5-13.7-8.8-18.6
		c2-1.3,4.5-2.4,7.4-3.4c26.4-9.2,41.8,15,41,27.3c-0.1,1.1-0.5,2.2-1.3,3.2C145.6,128.9,140.5,129.9,137.2,127.4z"/>
	<g>
		<path class="st83" d="M147.1,125.2c0.8-12.3-11.6-35.4-41-27.2c-6.2,1.7-18.6,13.8-2.6,25.5c0,0-0.2,6.6,12.4,5.5
			c0,0,7.2,2,13.3,6.5C138.2,142.1,146.8,130.8,147.1,125.2z"/>
	</g>
	<g>
		<path class="st82" d="M102.6,122.8l0.9,0.7c0,0-1.1-3.1-0.1-4.7c0.5-0.8,1.7-1.2,3.5-1.2l0.8,0c4.2,0.2,7,0.3,8.3-1.4
			c0.9-1.1,1.1-2.7,0.5-5.4c-1-4.8-0.8-8.1,0.7-9.8c1-1.1,2.6-1.6,4.9-1.5c4.5,0.3,6.2,3.4,6.9,12.4c0.1,1.9,1.8,3.9,4.2,5.1
			c1.9,1,6,3.3,12.6-0.8l-0.4-1c-6.1,3.9-10,1.8-11.8,0.9c-2.4-1.2-3.6-3-3.7-4.2c-0.6-8.3-2-12.9-7.8-13.3
			c-2.6-0.2-4.5,0.4-5.7,1.8c-1.7,2-2.1,5.5-0.9,10.7c0.5,2.3,0.4,3.7-0.3,4.5c-1,1.2-3.8,1.1-7.5,1l-0.8,0
			c-2.2-0.1-3.7,0.5-4.4,1.6C101.2,120.4,102.5,122.7,102.6,122.8z"/>
	</g>
	<g>
		<path class="st82" d="M119.2,123.6l1-0.1c-0.7-7.2-10-6.7-10.1-6.7l0.1,1C110.5,117.8,118.6,117.4,119.2,123.6z"/>
	</g>
	<g>
		<path class="st82" d="M115.1,109l1-0.2c0-0.1-1.8-8.7-10.1-8.3l0.1,1C113.4,101.2,115,108.7,115.1,109z"/>
	</g>
	<g>
		<path class="st82" d="M105.3,107c1.2-4,6-4.1,6-4.1l0-1c-0.1,0-5.6,0.1-7,4.8L105.3,107z"/>
	</g>
	<g>
		<path class="st82" d="M136.2,125.7l0.4-1c-10-3.9-6.9-12.9-6.7-13.2l-1-0.4C128.8,111.3,125.3,121.4,136.2,125.7z"/>
	</g>
	<g>
		<path class="st82" d="M130.6,128.6l0.7-0.8c-2.9-2.7-0.7-7.1-0.7-7.2l-0.9-0.5C129.6,120.4,127.1,125.4,130.6,128.6z"/>
	</g>
	<g>
		<path class="st82" d="M128.4,107.2l0.8-0.6c0,0-3.5-4.8-8.1-3l0.4,1C125.4,103,128.4,107.1,128.4,107.2z"/>
	</g>
	<g>
		<path class="st82" d="M134.6,134.3c4.7-0.4,4.9-4.1,5.9-7.4c0.4-1.2,0.6-2.4,1.2-3.2c1.8-2.5,3.5-2.7,5.2-2.8l-0.2-1
			c-0.2,0-4-0.3-6,3.3c-0.5,0.9-0.9,2.1-1.2,3.3c-1,3.3-3,7.2-7,7.5L134.6,134.3z"/>
	</g>
	<g>
		<path class="st82" d="M132.9,116.8l1-0.1c-0.3-4,6.2-4.8,6.3-4.8l-0.1-1C139.8,110.9,132.5,111.8,132.9,116.8z"/>
	</g>
	<g>
		<path class="st82" d="M135.2,113.2l0.9-0.5c-1.9-3.1,1.1-7,1.1-7.1l-0.8-0.6C136.2,105.1,132.9,109.5,135.2,113.2z"/>
	</g>
	<g>
		<path class="st82" d="M104.7,117.5l0.9-0.4c-1-2-1.5-2.4-3.4-3.7c-0.4-0.3-0.8-0.5-1.3-0.9c-2.6-1.8-0.8-5.3-0.8-5.4l-0.9-0.5
			c-0.8,1.5-1.5,4.8,1.1,6.7c0.5,0.4,0.9,0.6,1.3,0.9C103.5,115.5,103.9,115.7,104.7,117.5z"/>
	</g>
	<g>
		<path class="st82" d="M98.2,114.2c1.5,0,2.7-0.9,2.8-0.9l-0.6-0.9c0,0-1.4,1-2.7,0.7c-0.7-0.2-1.7-1.4-2.1-2.2l0.1,1.6
			c0.6,1,0.8,1.3,1.8,1.5C97.7,114.2,98,114.2,98.2,114.2z"/>
	</g>
	<g>
		<path class="st82" d="M119.1,128.9c0.1,0,0.2-0.1,0.3-0.2c0.4-0.4,0-0.7-0.2-0.9l0,0c-0.2-0.2-0.8-0.7-2.5-2.2
			c-0.8-0.7-1.2-1.5-1.1-2.4c0.1-1.8,2.4-3.3,2.4-3.4l-0.6-0.9c-0.1,0.1-2.7,1.8-2.9,4.1c-0.1,1.2,0.4,2.2,1.5,3.2
			c1.3,1.2,2,1.9,2.5,2.2c0,0,0.1,0.1,0.1,0.1l0,0C118.8,128.8,119,128.9,119.1,128.9z"/>
	</g>
	<g>
		<path class="st82" d="M110.6,125.5c0.6-0.9,1.2-1.4,2-1.6c1.2-0.3,2.2,0.4,2.3,0.4l0.6-0.9c-0.1,0-1.4-0.9-3-0.6
			c-1,0.2-1.9,0.9-2.6,2L110.6,125.5z"/>
	</g>
	<g>
		<path class="st82" d="M116.6,113.2c0,0,2.5-2.6,4.8-2.6c0,0,0,0,0,0c0.8,0,1.5,0.3,2.2,1l0.8-0.7c-0.8-0.9-1.8-1.4-2.9-1.4
			c-2.8,0-5.5,2.8-5.6,2.9L116.6,113.2z"/>
	</g>
	<g>
		<path class="st82" d="M107.7,111c2.8-2.7,0.2-7.4,0.1-7.6l-0.9,0.5c0,0,2.3,4.2,0.1,6.3L107.7,111z"/>
	</g>
	<g>
		<path class="st82" d="M137.8,131.6l0.7-0.7c-0.8-0.8-2.9-1.9-5.4-0.6l0.5,0.9C136.1,129.9,137.8,131.5,137.8,131.6z"/>
	</g>
	<g>
		<path class="st82" d="M125.5,125.5c0.9-1.7,3.7-1.5,3.7-1.4l0.1-1c-0.1,0-3.5-0.4-4.8,2L125.5,125.5z"/>
	</g>
	<path class="st84" d="M147.1,125.2c-0.3,5.5-8.5,16.1-16.1,11.4c-8.2-5.1-15.1-7.6-15.1-7.6c-12.6,1-12.4-5.5-12.4-5.5
		c-10.1-7.4-8.9-14.9-5.1-19.9c-2.6,8,5.9,14.9,8.5,17.8c2.9,3.1,6.4,2.5,10.8,2c4.4-0.5,3.9,1.9,14.4,5.2
		c8.7,2.7,13.6-3.6,15.1-5.8C147.1,123.6,147.1,124.5,147.1,125.2z"/>
</g>
<path class="st81" d="M80.3,107.6c-1.7,13.7,1.2,24.5,15.5,32.4c4.2,2.3,8.9,4.2,13.9,5.6v-16c-5-1.4-9.7-3.2-13.9-5.6
	C88.9,120.2,82.7,112.4,80.3,107.6z"/>
<path class="st81" d="M168.9,107.6c-2.3,4.8-8.9,11.8-15.6,15.6c-3.1,1.8-6.6,3.3-10.2,4.5l0.1,16c3.7-1.3,7.1-2.8,10.2-4.5
	C167.6,131.2,170,119.8,168.9,107.6z"/>
<path class="st85" d="M139.2,145.2v-16c-8.6,1.8-17.8,2.4-26.8,1.7v16C121.4,147.6,130.7,147,139.2,145.2z"/>
<path class="st79" d="M100.8,87.3c0,0-10.9,3-15.9,9.4v-6c0,0,4.2-4.3,15.9-8.7V87.3z"/>
<path class="st79" d="M137.6,79.2v5.9c0,0,11.3,0.4,25.2,9.9v-7.4C162.8,87.6,154.1,81.6,137.6,79.2z"/>
<path class="st0" d="M87.1,96.7c0,0,0.9-0.8,2.7-1.9c1.7-1.2,4.3-2.7,7.6-4.2c1.6-0.7,3.4-1.5,5.4-2.2c1.9-0.7,4-1.3,6.2-1.8
	c2.2-0.5,4.5-0.9,6.8-1.3c2.3-0.3,4.7-0.5,7.2-0.5c2.4,0,4.8,0.1,7.2,0.3c1.2,0.1,2.3,0.3,3.5,0.4c1.1,0.2,2.3,0.4,3.4,0.6
	c2.2,0.5,4.3,1,6.3,1.6c1,0.3,1.9,0.6,2.8,1c0.9,0.3,1.8,0.6,2.6,1c1.7,0.7,3.2,1.3,4.5,2c1.3,0.6,2.5,1.2,3.4,1.7
	c1.8,1,2.9,1.6,2.9,1.6s-1.1-0.5-3-1.4c-0.9-0.5-2.1-1-3.4-1.5c-1.3-0.6-2.9-1.1-4.5-1.8c-0.8-0.3-1.7-0.6-2.6-0.9
	c-0.9-0.3-1.9-0.6-2.8-0.9c-2-0.6-4.1-1-6.2-1.5c-1.1-0.2-2.2-0.4-3.3-0.6c-1.1-0.1-2.3-0.3-3.4-0.4c-2.3-0.2-4.7-0.3-7.1-0.2
	c-2.4,0-4.7,0.2-7.1,0.4c-2.3,0.3-4.6,0.7-6.8,1.2c-4.3,1-8.3,2.3-11.6,3.7c-1.6,0.7-3.1,1.4-4.4,2.1c-1.3,0.7-2.4,1.3-3.3,1.8
	C88.1,96,87.1,96.7,87.1,96.7z"/>
<path class="st0" d="M93.7,122.8c0,0,1,0.6,2.7,1.5c1.8,0.9,4.4,2,7.6,3.1c1.6,0.5,3.4,1.1,5.2,1.5c1.9,0.5,3.9,0.8,6,1.1
	c2.1,0.3,4.3,0.5,6.5,0.6c2.2,0,4.5,0,6.7-0.2l1.7-0.2l1.7-0.2c1.1-0.1,2.2-0.4,3.3-0.6c2.2-0.4,4.3-1,6.3-1.7
	c2-0.7,3.9-1.4,5.7-2.2c0.4-0.2,0.9-0.4,1.3-0.6c0.4-0.2,0.8-0.4,1.2-0.6c0.8-0.4,1.6-0.8,2.4-1.2c1.5-0.9,2.8-1.6,4-2.3
	c1.2-0.7,2.2-1.4,3-2c1.6-1.1,2.6-1.8,2.6-1.8s-0.9,0.7-2.4,1.9c-0.8,0.6-1.8,1.3-2.9,2.1c-1.1,0.8-2.5,1.6-3.9,2.5
	c-0.7,0.5-1.5,0.8-2.3,1.3c-0.4,0.2-0.8,0.4-1.2,0.7c-0.4,0.2-0.9,0.4-1.3,0.6c-1.8,0.9-3.7,1.6-5.7,2.3c-2,0.7-4.2,1.3-6.4,1.8
	c-1.1,0.2-2.2,0.5-3.3,0.6l-1.7,0.3l-1.7,0.2c-2.3,0.2-4.6,0.2-6.8,0.2c-2.2-0.1-4.5-0.3-6.6-0.6c-2.1-0.3-4.1-0.8-6-1.3
	c-1.9-0.5-3.6-1.1-5.3-1.7c-3.2-1.2-5.7-2.5-7.5-3.5C94.6,123.5,93.7,122.8,93.7,122.8z"/>
<path class="st0" d="M166.2,126.6c0,0-0.3,0.8-0.9,2c-0.4,0.6-0.8,1.4-1.4,2.2c-0.3,0.4-0.6,0.8-0.9,1.3c-0.4,0.4-0.7,0.9-1.1,1.3
	c-0.4,0.4-0.9,0.9-1.3,1.4c-0.5,0.5-1,0.9-1.5,1.4c-1,1-2.3,1.8-3.5,2.7c-0.7,0.4-1.3,0.8-2,1.2c-0.7,0.4-1.4,0.8-2.1,1.1
	c-1.4,0.7-2.9,1.5-4.4,2c-0.8,0.3-1.5,0.6-2.3,0.8c-0.8,0.3-1.6,0.4-2.3,0.7c-0.8,0.2-1.5,0.4-2.3,0.6c-0.8,0.2-1.5,0.3-2.3,0.5
	c-1.5,0.3-2.9,0.6-4.3,0.7c-1.4,0.1-2.7,0.3-3.9,0.4c-1.2,0.2-2.3,0.2-3.3,0.2c-1,0-1.8,0-2.6,0c-1.4,0-2.2,0-2.2,0s0.8-0.1,2.2-0.2
	c0.7-0.1,1.6-0.1,2.5-0.2c1-0.1,2.1-0.2,3.3-0.4c1.2-0.2,2.5-0.4,3.9-0.6c0.7-0.1,1.4-0.3,2.1-0.4c0.7-0.1,1.4-0.3,2.2-0.5
	c0.7-0.2,1.5-0.3,2.2-0.5c0.7-0.2,1.5-0.4,2.3-0.7c0.8-0.2,1.5-0.4,2.3-0.7c0.7-0.3,1.5-0.6,2.2-0.9c1.5-0.5,3-1.2,4.4-1.9
	c0.7-0.3,1.4-0.7,2.1-1.1c0.7-0.4,1.3-0.8,2-1.1c0.6-0.4,1.2-0.8,1.8-1.3c0.3-0.2,0.6-0.4,0.9-0.6c0.3-0.2,0.5-0.4,0.8-0.7
	c0.5-0.4,1.1-0.8,1.5-1.3c0.5-0.4,0.9-0.9,1.4-1.3c0.4-0.4,0.8-0.9,1.2-1.3c0.4-0.4,0.7-0.8,1-1.2c0.6-0.8,1.1-1.5,1.5-2
	c0.4-0.6,0.7-1.1,0.8-1.4C166.1,126.8,166.2,126.6,166.2,126.6z"/>
<g>
	<path class="st27" d="M187.8,111.2c0,0-0.5-3.5-2.7-3.7c-2.2-0.1-2.4,0.7-2.4,0.7s1.6,3.1,3.4,3.9
		C188,112.9,187.8,111.2,187.8,111.2z"/>
	<g>
		<path class="st31" d="M182,116.6c0.4,0.4,8.9,7.6,11.3,7.6c0,0,2.2-2,1.9-2.6c-2.3-4.3-8.5-7.1-10.6-7.9l0,0
			c-1.6-0.6-2,0.3-2.1,0.7C182.2,116.2,181.2,116,182,116.6z"/>
	</g>
	<path class="st31" d="M185.5,112.1c1.4,3.1,4.5,9.6,6.2,11.3c2.1,2.1,4.4,0,3.2-2.6c-0.4-0.8-1-2.7-6.7-10.4c0-0.1-0.4,0-0.7,0.2
		c-0.4,0.2-0.9,0.5-1.4,0.8C185.5,111.8,185.4,112.1,185.5,112.1z"/>
	
		<rect x="183.3" y="108.1" transform="matrix(0.5603 -0.8283 0.8283 0.5603 -10.324 201.4546)" class="st86" width="2.6" height="4.6"/>
	
		<rect x="183.7" y="108.9" transform="matrix(0.5606 -0.8281 0.8281 0.5606 -10.3524 201.3944)" class="st87" width="1.8" height="3.1"/>
	<g>
		<g>
			<g class="st1">
				<path d="M188.5,163.7c4.6,2.6,4.6,6.9,0.1,9.6c-4.5,2.6-11.9,2.6-16.5,0c-4.6-2.6-4.6-6.9-0.1-9.6
					C176.5,161,183.9,161,188.5,163.7z"/>
			</g>
		</g>
	</g>
	<g>
		<path class="st88" d="M180.3,163.1c0,0-1.5,1.6-0.4,2.6c1.1,1,2.2,1.5,2.7,2.3c0.6,0.9,3.2,2,4.4,0.7c0,0,0.5-1.4-1.4-2.8
			c-1.9-1.5-2.1-2.5-2.6-3.1C182.5,162.2,180.3,163.1,180.3,163.1z"/>
		<path class="st31" d="M186.3,132.1c0,0,1.4,3.2-0.3,14.9c-1.5,10.1-2,16.1-1.9,17c0,0-2,1.8-4.1,0.2c-1.5-1.2,0.2-24.6,0.2-24.6
			S185.8,135.6,186.3,132.1z"/>
		<path class="st88" d="M174,168.6c0,0-0.4,2.1,0.8,3.5c1.2,1.4,2.2,2.8,3.5,1.6c1.3-1.2-0.8-5.1-0.9-5.5
			C177.3,167.9,174,168.6,174,168.6z"/>
		<path class="st31" d="M174.8,135.7c0,0-0.5,4.1-0.6,10c-0.1,5.8-0.5,8-0.6,8.9c-0.1,0.9-0.6,10.7-0.3,13.5c0,0,1.8,2.8,4.7,0
			c0,0,0.5-10,1-12.3c0.5-2.3,3.2-13.3,4.3-17.3c0.5-1.8,0.6-2.4,0.6-2.4S179.2,139.2,174.8,135.7z"/>
		<path class="st32" d="M177.9,168.1c0,0,0.5-10,1-12.3c0.5-2.3,3.2-13.3,4.3-17.3c0.5-1.8,1.6-3.1,1.6-3.1s-3.2,2.3-5.9,2.3
			c-0.1,0.9-1.3,9-1.6,12.6c-0.3,3.5-2.6,16-2,19.1C176,169.4,176.9,169.1,177.9,168.1z"/>
		<path class="st32" d="M186,146.9c0.9-6.4,0.9-10.3,0.7-12.4l-1.3-0.2c-0.2,0.3-0.5,0.7-0.7,1c-0.3,3.5-1.4,14.4-1.6,19.1
			c-0.2,4.4-0.4,8.6-0.5,10.3c0.9-0.2,1.5-0.8,1.5-0.8C184,163,184.5,157,186,146.9z"/>
	</g>
	<path class="st32" d="M177.5,115c-0.6,0.3-1.2,0.7-2.2,1.3c-1.3,0.8-2.7,2-2.9,2.3c-0.3,0.3-1.2,1.1,1,5.4c0,0,3.4,4.7,1.9,9.4
		c-0.8,2.6-0.8,2.6-0.8,2.6s2.9,4.5,8.9,1.8c1.2-0.6,3.5-1.6,3.4-2.9c0,0-0.9-4.8-0.2-9.6c0.6-4.1-0.1-10.9-2.9-11.5
		C183.8,113.7,182.2,112.9,177.5,115z"/>
	<path class="st31" d="M172.5,118.6c-0.3,0.3-1.2,1.1,1,5.4c0,0,3.4,4.7,1.9,9.4c-0.8,2.6-0.8,2.6-0.8,2.6s1.1,1.8,3.4,2.4
		c1.8-5.8-0.2-14.7-0.7-18c-0.3-2.3-1.8-3.3-2.7-3.6C173.6,117.6,172.6,118.4,172.5,118.6z"/>
	<g>
		<path class="st27" d="M176.4,111.1c0,0,2,2.1,1,3.9c-0.5,1,1.4,2.8,4.2,2.2c0,0,1.2-0.5,1-0.9c-0.5-1-0.2-1.6,0.1-2.5
			C183,112.9,176.4,111.1,176.4,111.1z"/>
		<path class="st34" d="M177.4,115c-0.1,0.1-0.1,0.2-0.1,0.4c0.9-1.2,2.8-1.7,2.8-1.7l-3.1-2.4c-0.1,0-0.2-0.1-0.3-0.1l0,0.3
			C177.2,112.1,178.1,113.6,177.4,115z"/>
		<g>
			<path class="st33" d="M175.6,109.9c0,0,1.2,3,3.6,4c2.1,0.9,4.5,1.4,4.5-1c0-1.9,0.1-6.6-1.6-7.2c-2.3-0.8-3.3-2.2-5.5-0.9
				C176.5,104.8,174,106.5,175.6,109.9z"/>
			<path class="st27" d="M175.6,109.9c0,0,0.7,2.6,3.6,4.1c0.6,0.3,1.4,0.5,2,0.6c-1.1-0.6-1.3-0.8-2.2-1.5
				c-0.9-0.8,1.1-0.8-0.7-2.8c-0.6-0.7,1.4-1.4,1.8-1.5c2.9-0.6,2.8-1.5,2.8-2.2c-0.1-0.3-0.2,0.1-0.4-0.2l-0.4-0.5
				c0,0-0.1-0.1-0.1-0.1c-0.4-0.3-0.8-0.6-1.1-0.9c-1.2,0.2-4.8,0.9-4.9,1c0,0-0.5,1-0.9,1.8C175,108.3,175.2,109,175.6,109.9z"/>
			<path class="st35" d="M177.4,112.8c0-0.2-1.6-1.8-1.2-2.4c0.5-0.7,1.9,1.4,2,1.5c0.1,0.1,0-0.6-0.2-1.2c-0.3-0.6-0.4-1.4,0-1.8
				c0.3-0.4,1.5-0.4,2.1-0.5c-0.6-0.3-1.7-0.2-2.3-1c-0.7-1.1-1.6-1.6-2.3-1.7C172.9,109.7,177.4,112.8,177.4,112.8z"/>
		</g>
		<path class="st89" d="M180.1,108.4c0,0-2.1-0.1-3.2-1.7c-0.2-0.3-0.8-0.9-1.4-0.9c0,0,0.3-2.1,3.4-1.9c1.3,0.1,2.9,1,3.2,1.3
			c0.7,0.6,1.5-0.1,1.6,0.2C183.9,106.4,181.4,108.2,180.1,108.4z"/>
	</g>
	<path class="st90" d="M177.6,114.3c0,0,0.1,2.4,4.6,2.5l-0.5,2c0,0-3.6,0.7-5.2-3.2L177.6,114.3z"/>
	<path class="st90" d="M182.1,116.8c0,0,0.2-0.5,0.1-1.4c0-0.2,0-0.5,0.1-0.6l0-0.2l0.4-0.1c0,0,1.6,1.7,1.2,3.3L182.1,116.8z"/>
	<g>
		<path class="st27" d="M186.3,136.4c-2-0.4-2.5-1.6-2.5-1.6c0.8,0.3,1.5,0.1,1.7-0.1c0.2-0.2,0.1-0.6-0.4-0.5
			c-0.4,0.1-1-0.1-1.3-0.3c-0.9-0.5-1.3-0.4-1.6-0.4c-0.4,0.1-0.8,0.1-1,0l-6.4-2l0.9-7.3c0.3-2.1,0.6-3.8-0.2-4.9
			c-1-1.4-3.3-1.3-3.9,1.1c0,0-1.7,10.6-0.7,12.6c0,0.1,0.3,0.5,0.4,0.6c1.4,2.5,9.7,2.2,9.7,2.2s0,0.1,0,0c0.2,0.2,0.5,0.2,0.8,0.5
			c1.3,1.1,2.7,1,3,0.9C186.3,137,186.6,136.5,186.3,136.4z"/>
		<path class="st32" d="M172.5,118.5c-0.6,0.3-1.1,2.1-1.5,4.3c-0.6,3.5-0.5,9-0.4,9.8c0.1,0.8-0.2,3.8,10,3.7
			c0.2,0-0.7-2.1,0.8-3.1l-6.4-1.5c0,0,1.3-9.3,1.2-10.3C176.2,118.5,174,117.6,172.5,118.5z"/>
	</g>
</g>
</svg>
