<?xml version="1.0" encoding="utf-8"?>
<!-- Generator: Adobe Illustrator 23.0.1, SVG Export Plug-In . SVG Version: 6.00 Build 0)  -->
<svg version="1.1" id="Ñëîé_1" xmlns="http://www.w3.org/2000/svg" xmlns:xlink="http://www.w3.org/1999/xlink" x="0px" y="0px"
	 viewBox="0 0 341.5 297.7" style="enable-background:new 0 0 341.5 297.7;" xml:space="preserve">
<style type="text/css">
	.st0{fill:#42E8E0;}
	.st1{opacity:0.1;}
	.st2{fill:#2FD3C7;}
	.st3{fill:#FFFFFF;}
	.st4{opacity:0.7;fill:#18B2A3;}
	.st5{opacity:0.2;}
	.st6{fill:url(#SVGID_1_);}
	.st7{fill:#BCBEFF;}
	.st8{fill:url(#SVGID_2_);}
	.st9{fill:#0F054C;}
	.st10{opacity:0.5;fill:url(#SVGID_3_);}
	.st11{opacity:0.5;fill:url(#SVGID_4_);}
	.st12{opacity:0.5;fill:url(#SVGID_5_);}
	.st13{opacity:0.5;fill:url(#SVGID_6_);}
	.st14{opacity:0.5;fill:#42E8E0;}
	.st15{opacity:0.5;fill:url(#SVGID_7_);}
	.st16{opacity:0.5;fill:url(#SVGID_8_);}
	.st17{opacity:0.8;fill:#42E8E0;}
	.st18{opacity:0.4;fill:#03002D;}
	.st19{opacity:0.4;fill:#42E8E0;}
	.st20{opacity:0.2;fill:#42E8E0;}
</style>
<polygon class="st0" points="195.4,101.5 195.3,101.3 230.1,81 230.2,81 266.2,100.8 266,101.1 230.1,81.4 "/>
<g class="st1">
	<g>
		<polygon class="st0" points="159.4,197.9 144.4,189.2 144.4,206.6 159.4,215.3 174.5,206.6 174.5,189.2 		"/>
		<polygon class="st0" points="159.4,215.3 144.4,206.6 144.4,189.2 159.4,197.9 		"/>
		<polygon class="st2" points="174.5,206.6 159.4,215.3 159.4,197.9 174.5,189.2 		"/>
		<polygon class="st0" points="159.4,197.9 144.4,189.2 159.4,180.5 174.5,189.2 		"/>
		<polygon class="st3" points="159.4,197.9 145,189.6 144.4,190 159.4,198.7 174.5,190 173.8,189.6 		"/>
	</g>
	<g>
		<polygon class="st0" points="179,209.1 163.9,200.4 163.9,217.8 179,226.5 194.1,217.8 194.1,200.4 		"/>
		<polygon class="st0" points="179,226.5 163.9,217.8 163.9,200.4 179,209.1 		"/>
		<polygon class="st2" points="194.1,217.8 179,226.5 179,209.1 194.1,200.4 		"/>
		<polygon class="st0" points="179,209.1 163.9,200.4 179,191.7 194.1,200.4 		"/>
		<polygon class="st3" points="179,209.1 164.6,200.7 163.9,201.1 179,209.8 194.1,201.1 193.4,200.7 		"/>
	</g>
	<g>
		<polygon class="st0" points="198.6,220.2 183.5,211.5 183.5,228.9 198.6,237.6 213.6,228.9 213.6,211.5 		"/>
		<polygon class="st0" points="198.6,237.6 183.5,228.9 183.5,211.5 198.6,220.2 		"/>
		<polygon class="st2" points="213.6,228.9 198.6,237.6 198.6,220.2 213.6,211.5 		"/>
		<polygon class="st0" points="198.6,220.2 183.5,211.5 198.6,202.8 213.6,211.5 		"/>
		<polygon class="st3" points="198.6,220.2 184.1,211.9 183.5,212.3 198.6,221 213.6,212.3 213.6,211.5 		"/>
	</g>
	<g>
		<polygon class="st0" points="139.8,209.8 124.8,201.1 124.8,218.5 139.8,227.2 154.9,218.5 154.9,201.1 		"/>
		<polygon class="st0" points="139.8,227.2 124.8,218.5 124.8,201.1 139.8,209.8 		"/>
		<polygon class="st2" points="154.9,218.5 139.8,227.2 139.8,209.8 154.9,201.1 		"/>
		<polygon class="st0" points="139.8,209.8 124.8,201.1 139.8,192.4 154.9,201.1 		"/>
		<polygon class="st3" points="139.8,209.8 125.4,201.5 124.8,201.9 139.8,210.6 154.9,201.9 154.3,201.5 		"/>
	</g>
	<g>
		<polygon class="st0" points="159.4,221 144.4,212.3 144.4,229.7 159.4,238.4 174.5,229.7 174.5,212.3 		"/>
		<polygon class="st0" points="159.4,238.4 144.4,229.7 144.4,212.3 159.4,221 		"/>
		<polygon class="st2" points="174.5,229.7 159.4,238.4 159.4,221 174.5,212.3 		"/>
		<polygon class="st0" points="159.4,221 144.4,212.3 159.4,203.6 174.5,212.3 		"/>
		<polygon class="st3" points="159.4,221 145,212.7 144.4,213 159.4,221.7 174.5,213 173.8,212.7 		"/>
	</g>
	<g>
		<polygon class="st0" points="179,232.2 163.9,223.5 163.9,240.9 179,249.6 194.1,240.9 194.1,223.5 		"/>
		<polygon class="st0" points="179,249.6 163.9,240.9 163.9,223.5 179,232.2 		"/>
		<polygon class="st2" points="194.1,240.9 179,249.6 179,232.2 194.1,223.5 		"/>
		<polygon class="st0" points="179,232.2 163.9,223.5 179,214.8 194.1,223.5 		"/>
		<polygon class="st3" points="179,232.2 164.6,223.8 163.9,224.2 179,232.9 194.1,224.2 194.1,223.5 		"/>
	</g>
	<g>
		<polygon class="st0" points="120.3,221.7 105.2,213 105.2,230.4 120.3,239.1 135.3,230.4 135.3,213 		"/>
		<polygon class="st0" points="120.3,239.1 105.2,230.4 105.2,213 120.3,221.7 		"/>
		<polygon class="st2" points="135.3,230.4 120.3,239.1 120.3,221.7 135.3,213 		"/>
		<polygon class="st0" points="120.3,221.7 105.2,213 120.3,204.3 135.3,213 		"/>
		<polygon class="st3" points="120.3,221.7 105.2,213 105.2,213.8 120.3,222.5 135.3,213.8 134.7,213.4 		"/>
	</g>
	<g>
		<polygon class="st0" points="139.8,232.9 124.8,224.2 124.8,241.6 139.8,250.3 154.9,241.6 154.9,224.2 		"/>
		<polygon class="st0" points="139.8,250.3 124.8,241.6 124.8,224.2 139.8,232.9 		"/>
		<polygon class="st2" points="154.9,241.6 139.8,250.3 139.8,232.9 154.9,224.2 		"/>
		<polygon class="st0" points="139.8,232.9 124.8,224.2 139.8,215.5 154.9,224.2 		"/>
		<polygon class="st3" points="139.8,232.9 124.8,224.2 124.8,225 139.8,233.7 154.9,225 154.3,224.6 		"/>
	</g>
	<g>
		<polygon class="st0" points="159.4,244.1 144.4,235.4 144.4,252.8 159.4,261.5 174.5,252.8 174.5,235.4 		"/>
		<polygon class="st0" points="159.4,261.5 144.4,252.8 144.4,235.4 159.4,244.1 		"/>
		<polygon class="st2" points="174.5,252.8 159.4,261.5 159.4,244.1 174.5,235.4 		"/>
		<polygon class="st0" points="159.4,244.1 144.4,235.4 159.4,226.7 174.5,235.4 		"/>
		<polygon class="st3" points="159.4,244.1 144.4,235.4 144.4,236.1 159.4,244.8 174.5,236.1 174.5,235.4 		"/>
	</g>
	<g>
		<polygon class="st0" points="159.4,174.8 144.4,166.1 144.4,183.5 159.4,192.2 174.5,183.5 174.5,166.1 		"/>
		<polygon class="st0" points="159.4,192.2 144.4,183.5 144.4,166.1 159.4,174.8 		"/>
		<polygon class="st2" points="174.5,183.5 159.4,192.2 159.4,174.8 174.5,166.1 		"/>
		<polygon class="st0" points="159.4,174.8 144.4,166.1 159.4,157.4 174.5,166.1 		"/>
		<polygon class="st3" points="159.4,174.8 145,166.5 144.4,166.9 159.4,175.6 174.5,166.9 173.8,166.5 		"/>
	</g>
	<g>
		<polygon class="st4" points="159.4,241.2 149.1,235.3 159.4,229.4 169.7,235.3 		"/>
		<polygon class="st4" points="139.8,230.1 129.6,224.1 139.8,218.2 150.1,224.1 		"/>
		<polygon class="st4" points="179,229.3 168.7,223.4 179,217.5 189.3,223.4 		"/>
		<polygon class="st4" points="198.6,217.5 188.3,211.6 198.6,205.7 208.9,211.6 		"/>
		<polygon class="st4" points="120.3,218.9 110,213 120.3,207 130.6,213 		"/>
	</g>
	<g>
		<polygon class="st0" points="179,186 163.9,177.3 163.9,194.7 179,203.4 194.1,194.7 194.1,177.3 		"/>
		<polygon class="st0" points="179,203.4 163.9,194.7 163.9,177.3 179,186 		"/>
		<polygon class="st2" points="194.1,194.7 179,203.4 179,186 194.1,177.3 		"/>
		<polygon class="st0" points="179,186 163.9,177.3 179,168.6 194.1,177.3 		"/>
		<polygon class="st3" points="179,186 164.6,177.7 163.9,178 179,186.7 194.1,178 193.4,177.7 		"/>
	</g>
	<g>
		<polygon class="st0" points="198.6,197.1 183.5,188.4 183.5,205.8 198.6,214.5 213.6,205.8 213.6,188.4 		"/>
		<polygon class="st0" points="198.6,214.5 183.5,205.8 183.5,188.4 198.6,197.1 		"/>
		<polygon class="st2" points="213.6,205.8 198.6,214.5 198.6,197.1 213.6,188.4 		"/>
		<polygon class="st0" points="198.6,197.1 183.5,188.4 198.6,179.7 213.6,188.4 		"/>
		<polygon class="st3" points="198.6,197.1 184.1,188.8 183.5,189.2 198.6,197.9 213.6,189.2 213.6,188.4 		"/>
	</g>
	<g>
		<polygon class="st0" points="139.8,186.7 124.8,178 124.8,195.4 139.8,204.1 154.9,195.4 154.9,178 		"/>
		<polygon class="st0" points="139.8,204.1 124.8,195.4 124.8,178 139.8,186.7 		"/>
		<polygon class="st2" points="154.9,195.4 139.8,204.1 139.8,186.7 154.9,178 		"/>
		<polygon class="st0" points="139.8,186.7 124.8,178 139.8,169.3 154.9,178 		"/>
		<polygon class="st3" points="139.8,186.7 125.4,178.4 124.8,178.8 139.8,187.5 154.9,178.8 154.3,178.4 		"/>
	</g>
	<g>
		<polygon class="st0" points="159.4,197.9 144.4,189.2 144.4,206.6 159.4,215.3 174.5,206.6 174.5,189.2 		"/>
		<polygon class="st0" points="159.4,215.3 144.4,206.6 144.4,189.2 159.4,197.9 		"/>
		<polygon class="st2" points="174.5,206.6 159.4,215.3 159.4,197.9 174.5,189.2 		"/>
		<polygon class="st0" points="159.4,197.9 144.4,189.2 159.4,180.5 174.5,189.2 		"/>
		<polygon class="st3" points="159.4,197.9 145,189.6 144.4,190 159.4,198.7 174.5,190 173.8,189.6 		"/>
	</g>
	<g>
		<polygon class="st0" points="179,209.1 163.9,200.4 163.9,217.8 179,226.5 194.1,217.8 194.1,200.4 		"/>
		<polygon class="st0" points="179,226.5 163.9,217.8 163.9,200.4 179,209.1 		"/>
		<polygon class="st2" points="194.1,217.8 179,226.5 179,209.1 194.1,200.4 		"/>
		<polygon class="st0" points="179,209.1 163.9,200.4 179,191.7 194.1,200.4 		"/>
		<polygon class="st3" points="179,209.1 164.6,200.7 163.9,201.1 179,209.8 194.1,201.1 194.1,200.4 		"/>
	</g>
	<g>
		<polygon class="st0" points="120.3,198.7 105.2,190 105.2,207.4 120.3,216.1 135.3,207.4 135.3,190 		"/>
		<polygon class="st0" points="120.3,216.1 105.2,207.4 105.2,190 120.3,198.7 		"/>
		<polygon class="st2" points="135.3,207.4 120.3,216.1 120.3,198.7 135.3,190 		"/>
		<polygon class="st0" points="120.3,198.7 105.2,190 120.3,181.3 135.3,190 		"/>
		<polygon class="st3" points="120.3,198.7 105.9,190.3 105.2,190.7 120.3,199.4 135.3,190.7 134.7,190.3 		"/>
	</g>
	<g>
		<polygon class="st0" points="139.8,209.8 124.8,201.1 124.8,218.5 139.8,227.2 154.9,218.5 154.9,201.1 		"/>
		<polygon class="st0" points="139.8,227.2 124.8,218.5 124.8,201.1 139.8,209.8 		"/>
		<polygon class="st2" points="154.9,218.5 139.8,227.2 139.8,209.8 154.9,201.1 		"/>
		<polygon class="st0" points="139.8,209.8 124.8,201.1 139.8,192.4 154.9,201.1 		"/>
		<polygon class="st3" points="139.8,209.8 124.8,201.1 124.8,201.9 139.8,210.6 154.9,201.9 154.3,201.5 		"/>
	</g>
	<g>
		<polygon class="st0" points="159.4,221 144.4,212.3 144.4,229.7 159.4,238.4 174.5,229.7 174.5,212.3 		"/>
		<polygon class="st0" points="159.4,238.4 144.4,229.7 144.4,212.3 159.4,221 		"/>
		<polygon class="st2" points="174.5,229.7 159.4,238.4 159.4,221 174.5,212.3 		"/>
		<polygon class="st0" points="159.4,221 144.4,212.3 159.4,203.6 174.5,212.3 		"/>
		<polygon class="st3" points="159.4,221 144.4,212.3 144.4,213 159.4,221.7 174.5,213 174.5,212.3 		"/>
	</g>
	<g>
		<polygon class="st4" points="198.6,194.5 188.3,188.6 198.6,182.7 208.9,188.6 		"/>
		<polygon class="st4" points="120.3,195.9 110,190 120.3,184.1 130.6,190 		"/>
	</g>
	<g>
		<polygon class="st0" points="159.4,151.7 144.4,143 144.4,160.4 159.4,169.1 174.5,160.4 174.5,143 		"/>
		<polygon class="st0" points="159.4,169.1 144.4,160.4 144.4,143 159.4,151.7 		"/>
		<polygon class="st2" points="174.5,160.4 159.4,169.1 159.4,151.7 174.5,143 		"/>
		<polygon class="st0" points="159.4,151.7 144.4,143 159.4,134.3 174.5,143 		"/>
		<polygon class="st3" points="159.4,151.7 144.4,143 144.4,143.8 159.4,152.5 174.5,143.8 174.5,143 		"/>
	</g>
	<g>
		<polygon class="st0" points="179,162.9 163.9,154.2 163.9,171.6 179,180.3 194.1,171.6 194.1,154.2 		"/>
		<polygon class="st0" points="179,180.3 163.9,171.6 163.9,154.2 179,162.9 		"/>
		<polygon class="st2" points="194.1,171.6 179,180.3 179,162.9 194.1,154.2 		"/>
		<polygon class="st0" points="179,162.9 163.9,154.2 179,145.5 194.1,154.2 		"/>
		<polygon class="st3" points="179,162.9 163.9,154.2 163.9,154.9 179,163.6 194.1,154.9 194.1,154.2 		"/>
	</g>
	<g>
		<polygon class="st0" points="198.6,174.1 183.5,165.4 183.5,182.8 198.6,191.5 213.6,182.8 213.6,165.4 		"/>
		<polygon class="st0" points="198.6,191.5 183.5,182.8 183.5,165.4 198.6,174.1 		"/>
		<polygon class="st2" points="213.6,182.8 198.6,191.5 198.6,174.1 213.6,165.4 		"/>
		<polygon class="st0" points="198.6,174.1 183.5,165.4 198.6,156.7 213.6,165.4 		"/>
		<polygon class="st3" points="198.6,174.1 183.5,165.4 183.5,166.1 198.6,174.8 213.6,166.1 213.6,165.4 		"/>
	</g>
	<g>
		<polygon class="st0" points="139.8,163.6 124.8,154.9 124.8,172.3 139.8,181 154.9,172.3 154.9,154.9 		"/>
		<polygon class="st0" points="139.8,181 124.8,172.3 124.8,154.9 139.8,163.6 		"/>
		<polygon class="st2" points="154.9,172.3 139.8,181 139.8,163.6 154.9,154.9 		"/>
		<polygon class="st0" points="139.8,163.6 124.8,154.9 139.8,146.2 154.9,154.9 		"/>
		<polygon class="st3" points="139.8,163.6 124.8,154.9 124.8,155.7 139.8,164.4 154.9,155.7 154.9,154.9 		"/>
	</g>
	<g>
		<polygon class="st0" points="120.3,175.6 105.2,166.9 105.2,184.3 120.3,193 135.3,184.3 135.3,166.9 		"/>
		<polygon class="st0" points="120.3,193 105.2,184.3 105.2,166.9 120.3,175.6 		"/>
		<polygon class="st2" points="135.3,184.3 120.3,193 120.3,175.6 135.3,166.9 		"/>
		<polygon class="st0" points="120.3,175.6 105.2,166.9 120.3,158.2 135.3,166.9 		"/>
		<polygon class="st3" points="120.3,175.6 105.2,166.9 105.2,167.6 120.3,176.3 135.3,167.6 135.3,166.9 		"/>
	</g>
</g>
<g>
	<g>
		<g class="st5">
			<path class="st3" d="M283.1-10.2l1.6-7.5h0.7l1.6,7.5h-0.7l-0.4-2h-1.8l-0.4,2H283.1z M284.2-12.7h1.6l-0.8-4.1L284.2-12.7z"/>
			<path class="st3" d="M289.4-10.1c-0.4,0-0.7-0.2-1-0.5v0.4h-0.7v-7.5h0.7v2.6c0.3-0.4,0.6-0.5,1-0.5c0.2,0,0.4,0,0.5,0.1
				c0.2,0.1,0.3,0.2,0.4,0.3c0.1,0.1,0.2,0.3,0.2,0.5c0.1,0.2,0.1,0.4,0.1,0.6c0,0.2,0,0.4,0,0.6v1.1c0,0.3,0,0.5,0,0.8
				c0,0.2-0.1,0.4-0.1,0.6c-0.1,0.2-0.1,0.4-0.2,0.5c-0.1,0.1-0.2,0.2-0.4,0.3C289.8-10.1,289.6-10.1,289.4-10.1z M289.3-10.6
				c0.3,0,0.5-0.1,0.6-0.4c0.1-0.3,0.1-0.7,0.1-1.3v-1.1c0-0.6,0-1-0.1-1.2c-0.1-0.2-0.3-0.4-0.6-0.4c-0.3,0-0.6,0.1-0.8,0.4v3.7
				C288.7-10.8,289-10.6,289.3-10.6z"/>
			<path class="st3" d="M293.7-10.2c-0.2,0.1-0.4,0.1-0.7,0.1c-0.3,0-0.5,0-0.7-0.1c-0.2-0.1-0.3-0.2-0.4-0.4
				c-0.1-0.2-0.2-0.4-0.2-0.6c0-0.2-0.1-0.5-0.1-0.9v-1.5c0-0.7,0.1-1.2,0.3-1.5c0.2-0.3,0.6-0.5,1.1-0.5c0.5,0,0.9,0.2,1.1,0.5
				c0.2,0.3,0.3,0.8,0.3,1.5v1.5c0,0.3,0,0.6-0.1,0.9c0,0.2-0.1,0.5-0.2,0.6C294-10.5,293.9-10.3,293.7-10.2z M293-10.6
				c0.1,0,0.3,0,0.3-0.1c0.1,0,0.2-0.1,0.2-0.2c0.1-0.1,0.1-0.2,0.1-0.3c0-0.1,0-0.3,0.1-0.4c0-0.1,0-0.3,0-0.5v-1.6
				c0-0.2,0-0.4,0-0.5c0-0.1,0-0.3-0.1-0.4c0-0.1-0.1-0.2-0.1-0.3c-0.1-0.1-0.1-0.1-0.2-0.2c-0.1-0.1-0.2-0.1-0.3-0.1
				c-0.1,0-0.2,0-0.3,0c-0.1,0-0.2,0.1-0.2,0.1c-0.1,0.1-0.1,0.1-0.1,0.2c0,0.1-0.1,0.2-0.1,0.3c0,0.1,0,0.2,0,0.4
				c0,0.1,0,0.3,0,0.4v1.6c0,0.2,0,0.3,0,0.4c0,0.1,0,0.2,0,0.4c0,0.1,0,0.2,0.1,0.3c0,0.1,0.1,0.2,0.1,0.2c0.1,0.1,0.1,0.1,0.2,0.1
				C292.8-10.6,292.9-10.6,293-10.6z"/>
			<path class="st3" d="M296.2-10.1c-0.3,0-0.5-0.1-0.6-0.3c-0.1-0.2-0.2-0.5-0.2-0.9v-4.3h0.7v4.2c0,0.3,0,0.5,0.1,0.6
				c0.1,0.1,0.2,0.2,0.4,0.2c0.3,0,0.6-0.2,1-0.5v-4.4h0.7v5.4h-0.7v-0.6C297.1-10.3,296.6-10.1,296.2-10.1z"/>
			<path class="st3" d="M300.5-10.1c-0.4,0-0.6-0.1-0.8-0.3c-0.1-0.2-0.2-0.5-0.2-0.9v-3.8h-0.7v-0.5h0.7v-1.7h0.7v1.7h0.9v0.5h-0.9
				v3.8c0,0.3,0,0.5,0.1,0.6c0.1,0.1,0.2,0.2,0.4,0.2c0.1,0,0.3,0,0.4,0v0.5C300.8-10.1,300.7-10.1,300.5-10.1z"/>
		</g>
		<g class="st5">
			<path class="st3" d="M331.6-10.1c-0.3,0-0.6,0-0.8-0.1c-0.2-0.1-0.4-0.2-0.6-0.3c-0.1-0.1-0.3-0.3-0.3-0.5
				c-0.1-0.2-0.1-0.4-0.2-0.6c0-0.2-0.1-0.5-0.1-0.8v-3c0-0.3,0-0.6,0.1-0.8c0-0.2,0.1-0.4,0.2-0.6c0.1-0.2,0.2-0.4,0.3-0.5
				c0.1-0.1,0.3-0.2,0.5-0.3c0.2-0.1,0.5-0.1,0.8-0.1c0.3,0,0.6,0,0.8,0.1c0.2,0.1,0.4,0.2,0.6,0.4c0.1,0.2,0.2,0.4,0.3,0.7
				c0.1,0.3,0.1,0.6,0.1,0.9v0.5h-0.7v-0.4c0-0.3,0-0.5,0-0.7c0-0.2-0.1-0.3-0.2-0.5c-0.1-0.2-0.2-0.3-0.3-0.3
				c-0.1-0.1-0.3-0.1-0.6-0.1c-0.2,0-0.5,0-0.6,0.1c-0.2,0.1-0.3,0.2-0.4,0.4c-0.1,0.2-0.1,0.3-0.2,0.5c0,0.2,0,0.4,0,0.7v3.2
				c0,0.6,0.1,1,0.3,1.3c0.2,0.3,0.5,0.4,0.9,0.4c0.2,0,0.3,0,0.5-0.1c0.1-0.1,0.2-0.1,0.3-0.2c0.1-0.1,0.1-0.2,0.2-0.3
				c0-0.1,0.1-0.3,0.1-0.4c0-0.2,0-0.3,0-0.5v-0.5h0.7v0.4c0,0.3,0,0.5,0,0.7c0,0.2-0.1,0.4-0.2,0.6c-0.1,0.2-0.2,0.4-0.3,0.5
				c-0.1,0.1-0.3,0.2-0.5,0.3C332.1-10.1,331.9-10.1,331.6-10.1z"/>
			<path class="st3" d="M336.4-10.2c-0.2,0.1-0.4,0.1-0.7,0.1c-0.3,0-0.5,0-0.7-0.1c-0.2-0.1-0.3-0.2-0.4-0.4
				c-0.1-0.2-0.2-0.4-0.2-0.6c0-0.2-0.1-0.5-0.1-0.9v-1.5c0-0.7,0.1-1.2,0.3-1.5c0.2-0.3,0.6-0.5,1.1-0.5c0.5,0,0.9,0.2,1.1,0.5
				c0.2,0.3,0.3,0.8,0.3,1.5v1.5c0,0.3,0,0.6-0.1,0.9c0,0.2-0.1,0.5-0.2,0.6C336.7-10.5,336.6-10.3,336.4-10.2z M335.7-10.6
				c0.1,0,0.3,0,0.3-0.1c0.1,0,0.2-0.1,0.2-0.2c0.1-0.1,0.1-0.2,0.1-0.3c0-0.1,0-0.3,0.1-0.4c0-0.1,0-0.3,0-0.5v-1.6
				c0-0.2,0-0.4,0-0.5c0-0.1,0-0.3-0.1-0.4c0-0.1-0.1-0.2-0.1-0.3c-0.1-0.1-0.1-0.1-0.2-0.2c-0.1-0.1-0.2-0.1-0.3-0.1
				c-0.1,0-0.2,0-0.3,0c-0.1,0-0.2,0.1-0.2,0.1c-0.1,0.1-0.1,0.1-0.1,0.2c0,0.1-0.1,0.2-0.1,0.3c0,0.1,0,0.2,0,0.4
				c0,0.1,0,0.3,0,0.4v1.6c0,0.2,0,0.3,0,0.4c0,0.1,0,0.2,0,0.4c0,0.1,0,0.2,0.1,0.3c0,0.1,0.1,0.2,0.1,0.2c0.1,0.1,0.1,0.1,0.2,0.1
				C335.5-10.6,335.6-10.6,335.7-10.6z"/>
			<path class="st3" d="M338.1-10.2v-5.4h0.7v0.6c0.4-0.4,0.8-0.6,1.3-0.6c0.3,0,0.5,0.1,0.6,0.3c0.1,0.2,0.2,0.5,0.2,0.8v4.3h-0.7
				v-4.2c0-0.3,0-0.5-0.1-0.6c-0.1-0.1-0.2-0.2-0.4-0.2c-0.3,0-0.6,0.2-0.9,0.5v4.4H338.1z"/>
			<path class="st3" d="M343.2-10.1c-0.4,0-0.6-0.1-0.8-0.3c-0.1-0.2-0.2-0.5-0.2-0.9v-3.8h-0.7v-0.5h0.7v-1.7h0.7v1.7h0.9v0.5h-0.9
				v3.8c0,0.3,0,0.5,0.1,0.6c0.1,0.1,0.2,0.2,0.4,0.2c0.1,0,0.3,0,0.4,0v0.5C343.5-10.1,343.4-10.1,343.2-10.1z"/>
			<path class="st3" d="M345.4-10.1c-0.3,0-0.6-0.1-0.8-0.3c-0.2-0.2-0.3-0.5-0.3-0.9c0-0.2,0-0.3,0-0.5c0-0.1,0.1-0.3,0.2-0.4
				c0.1-0.1,0.2-0.2,0.3-0.3c0.1-0.1,0.2-0.2,0.4-0.3c0.2-0.1,0.4-0.2,0.5-0.3c0.2-0.1,0.4-0.2,0.7-0.3v-0.4c0-0.5,0-0.8-0.1-1
				c-0.1-0.2-0.3-0.3-0.5-0.3c-0.5,0-0.7,0.3-0.7,0.9v0.2l-0.7,0c0-0.1,0-0.1,0-0.2c0-0.5,0.2-0.9,0.4-1.1c0.2-0.2,0.6-0.3,1.1-0.3
				c0.5,0,0.8,0.1,1,0.4c0.2,0.3,0.3,0.7,0.3,1.4v2.6c0,0.4,0,0.8,0.1,1.1h-0.6l-0.1-0.7c-0.1,0.2-0.2,0.4-0.4,0.6
				C345.9-10.2,345.7-10.1,345.4-10.1z M345.7-10.7c0.2,0,0.4-0.1,0.5-0.2c0.2-0.1,0.3-0.3,0.4-0.4V-13c0,0,0,0-0.1,0
				c-0.1,0.1-0.3,0.1-0.3,0.2c-0.1,0-0.2,0.1-0.3,0.2c-0.1,0.1-0.2,0.1-0.2,0.2c-0.1,0-0.1,0.1-0.2,0.2c-0.1,0.1-0.1,0.1-0.2,0.2
				c0,0.1-0.1,0.1-0.1,0.2c0,0.1-0.1,0.1-0.1,0.2c0,0.1,0,0.2,0,0.3c0,0.3,0.1,0.5,0.2,0.6C345.3-10.8,345.5-10.7,345.7-10.7z"/>
			<path class="st3" d="M349.5-10.1c-0.2,0-0.5,0-0.6-0.1c-0.2-0.1-0.3-0.2-0.4-0.3c-0.1-0.1-0.2-0.3-0.2-0.5
				c-0.1-0.2-0.1-0.4-0.1-0.6c0-0.2,0-0.4,0-0.7v-1.3c0-0.4,0-0.7,0.1-1c0-0.3,0.1-0.5,0.2-0.7c0.1-0.2,0.3-0.3,0.4-0.4
				c0.2-0.1,0.4-0.1,0.7-0.1c0.2,0,0.4,0,0.6,0.1c0.2,0.1,0.3,0.1,0.4,0.2c0.1,0.1,0.2,0.2,0.2,0.4c0.1,0.1,0.1,0.3,0.1,0.5
				c0,0.2,0,0.4,0,0.6v0.3h-0.6v-0.3c0-0.5-0.1-0.8-0.2-1c-0.1-0.2-0.3-0.3-0.6-0.3c-0.3,0-0.5,0.1-0.6,0.3
				c-0.1,0.2-0.2,0.6-0.2,1.2v1.5c0,0.6,0.1,0.9,0.2,1.2c0.1,0.2,0.3,0.3,0.6,0.3c0.1,0,0.2,0,0.3-0.1c0.1,0,0.2-0.1,0.2-0.2
				c0.1-0.1,0.1-0.2,0.1-0.3s0.1-0.2,0.1-0.4c0-0.1,0-0.3,0-0.5v-0.3h0.6v0.3c0,0.2,0,0.4,0,0.6c0,0.2-0.1,0.3-0.1,0.5
				c-0.1,0.2-0.1,0.3-0.2,0.4c-0.1,0.1-0.2,0.2-0.4,0.2C350-10.1,349.8-10.1,349.5-10.1z"/>
			<path class="st3" d="M353.1-10.1c-0.4,0-0.6-0.1-0.8-0.3c-0.1-0.2-0.2-0.5-0.2-0.9v-3.8h-0.7v-0.5h0.7v-1.7h0.7v1.7h0.9v0.5h-0.9
				v3.8c0,0.3,0,0.5,0.1,0.6c0.1,0.1,0.2,0.2,0.4,0.2c0.1,0,0.3,0,0.4,0v0.5C353.5-10.1,353.3-10.1,353.1-10.1z"/>
			<path class="st3" d="M355.7-10.1c-0.4,0-0.8-0.1-1-0.4c-0.3-0.3-0.4-0.6-0.4-1.1l0.6-0.2c0,0.4,0.1,0.7,0.3,0.9
				c0.2,0.2,0.4,0.3,0.6,0.3c0.2,0,0.4-0.1,0.6-0.2c0.1-0.1,0.2-0.3,0.2-0.5c0,0,0,0,0,0c0-0.4-0.2-0.7-0.7-1.1l-0.7-0.6
				c-0.3-0.2-0.4-0.4-0.6-0.6c-0.1-0.2-0.2-0.4-0.2-0.7c0-0.4,0.1-0.7,0.4-0.9c0.2-0.2,0.5-0.3,0.9-0.3c0.4,0,0.7,0.1,0.9,0.4
				c0.2,0.3,0.3,0.6,0.4,1l-0.5,0.2c0-0.4-0.1-0.6-0.2-0.8s-0.3-0.3-0.5-0.3c-0.2,0-0.4,0.1-0.5,0.2c-0.1,0.1-0.2,0.3-0.2,0.5
				c0,0.2,0,0.3,0.1,0.5c0.1,0.1,0.2,0.3,0.4,0.4l0.8,0.7c0.1,0.1,0.2,0.2,0.3,0.3c0.1,0.1,0.2,0.2,0.3,0.3c0.1,0.1,0.2,0.3,0.2,0.4
				c0,0.2,0.1,0.3,0.1,0.5c0,0.4-0.1,0.7-0.4,1C356.4-10.2,356.1-10.1,355.7-10.1z"/>
		</g>
		<g class="st5">
			<path class="st3" d="M383.8-10.2v-7.5h1.8c0.3,0,0.6,0,0.9,0.1c0.2,0.1,0.4,0.2,0.6,0.4c0.1,0.2,0.2,0.4,0.3,0.6
				c0.1,0.2,0.1,0.5,0.1,0.8c0,0.3,0,0.5-0.1,0.8c-0.1,0.2-0.2,0.4-0.3,0.6c-0.1,0.2-0.3,0.3-0.6,0.4c-0.2,0.1-0.5,0.2-0.8,0.2h-1.1
				v3.6H383.8z M384.5-14.3h0.9c0.5,0,0.8-0.1,1-0.3c0.2-0.2,0.3-0.6,0.3-1.1c0-0.6-0.1-1-0.3-1.2c-0.2-0.2-0.5-0.3-1-0.3h-0.9
				V-14.3z"/>
			<path class="st3" d="M388.3-10.2v-5.4h0.7v0.7c0.2-0.3,0.4-0.5,0.6-0.6c0.2-0.1,0.4-0.2,0.7-0.2c0.1,0,0.1,0,0.1,0v0.7
				c-0.1,0-0.2-0.1-0.3-0.1c-0.4,0-0.8,0.2-1,0.6v4.1H388.3z"/>
			<path class="st3" d="M391.1-16.3v-0.9h0.7v0.9H391.1z M391.1-10.2v-5.4h0.7v5.4H391.1z"/>
			<path class="st3" d="M394.2-10.1c-0.2,0-0.5,0-0.6-0.1c-0.2-0.1-0.3-0.2-0.4-0.3c-0.1-0.1-0.2-0.3-0.2-0.5
				c-0.1-0.2-0.1-0.4-0.1-0.6c0-0.2,0-0.4,0-0.7v-1.3c0-0.4,0-0.7,0.1-1c0-0.3,0.1-0.5,0.2-0.7c0.1-0.2,0.3-0.3,0.4-0.4
				c0.2-0.1,0.4-0.1,0.7-0.1c0.2,0,0.4,0,0.6,0.1c0.2,0.1,0.3,0.1,0.4,0.2c0.1,0.1,0.2,0.2,0.2,0.4c0.1,0.1,0.1,0.3,0.1,0.5
				c0,0.2,0,0.4,0,0.6v0.3H395v-0.3c0-0.5-0.1-0.8-0.2-1c-0.1-0.2-0.3-0.3-0.6-0.3c-0.3,0-0.5,0.1-0.6,0.3c-0.1,0.2-0.2,0.6-0.2,1.2
				v1.5c0,0.6,0.1,0.9,0.2,1.2c0.1,0.2,0.3,0.3,0.6,0.3c0.1,0,0.2,0,0.3-0.1c0.1,0,0.2-0.1,0.2-0.2c0.1-0.1,0.1-0.2,0.1-0.3
				s0.1-0.2,0.1-0.4c0-0.1,0-0.3,0-0.5v-0.3h0.6v0.3c0,0.2,0,0.4,0,0.6c0,0.2-0.1,0.3-0.1,0.5c-0.1,0.2-0.1,0.3-0.2,0.4
				c-0.1,0.1-0.2,0.2-0.4,0.2C394.7-10.1,394.5-10.1,394.2-10.1z"/>
			<path class="st3" d="M396.6-16.3v-0.9h0.7v0.9H396.6z M396.6-10.2v-5.4h0.7v5.4H396.6z"/>
			<path class="st3" d="M398.4-10.2v-5.4h0.7v0.6c0.4-0.4,0.8-0.6,1.3-0.6c0.3,0,0.5,0.1,0.6,0.3c0.1,0.2,0.2,0.5,0.2,0.8v4.3h-0.7
				v-4.2c0-0.3,0-0.5-0.1-0.6c-0.1-0.1-0.2-0.2-0.4-0.2c-0.3,0-0.6,0.2-0.9,0.5v4.4H398.4z"/>
			<path class="st3" d="M403.7-8.4c-0.3,0-0.5,0-0.8,0c-0.2,0-0.4-0.1-0.6-0.2c-0.2-0.1-0.3-0.2-0.4-0.3c-0.1-0.1-0.1-0.3-0.1-0.4
				c0-0.3,0.1-0.5,0.3-0.7c0.2-0.2,0.4-0.4,0.6-0.5c-0.2,0-0.3-0.1-0.4-0.2c-0.1-0.1-0.2-0.2-0.2-0.3c0-0.3,0.2-0.6,0.6-1.1
				c-0.4-0.3-0.7-0.9-0.7-1.6c0-0.3,0-0.5,0.1-0.7c0.1-0.2,0.2-0.4,0.3-0.6c0.1-0.2,0.3-0.3,0.5-0.4c0.2-0.1,0.4-0.1,0.7-0.1
				c0.5,0,0.9,0.2,1.2,0.7c0.1-0.1,0.2-0.2,0.3-0.3c0.1-0.1,0.3-0.2,0.4-0.3l0.1-0.1l0.2,0.5c-0.1,0-0.3,0.1-0.5,0.2
				c-0.2,0.1-0.3,0.2-0.4,0.3c0,0.1,0.1,0.3,0.1,0.5c0,0.2,0.1,0.4,0.1,0.5c0,0.6-0.1,1-0.4,1.4c-0.2,0.3-0.6,0.5-1.1,0.5
				c-0.1,0-0.2,0-0.3,0c-0.1,0-0.2,0-0.2-0.1c0,0,0,0.1-0.1,0.2c-0.1,0.1-0.1,0.2-0.1,0.2c0,0-0.1,0.1-0.1,0.2c0,0.1,0,0.1,0,0.2
				c0,0.1,0.2,0.2,0.5,0.2c0.1,0,0.2,0,0.5,0.1c0.2,0,0.4,0.1,0.4,0.1c0.4,0.1,0.8,0.2,1,0.4c0.2,0.2,0.3,0.5,0.3,0.8
				c0,0.4-0.1,0.7-0.5,0.9C404.6-8.5,404.2-8.4,403.7-8.4z M403.7-9c0.4,0,0.6-0.1,0.8-0.2c0.2-0.1,0.3-0.3,0.3-0.5
				c0-0.2-0.1-0.4-0.2-0.5c-0.1-0.1-0.4-0.2-0.8-0.3l-0.7-0.1c-0.5,0.3-0.7,0.6-0.7,0.9c0,0.2,0.1,0.4,0.3,0.4
				C402.9-9,403.3-9,403.7-9z M403.6-12.4c0.2,0,0.3,0,0.4-0.1s0.2-0.1,0.3-0.2c0.1-0.1,0.1-0.2,0.1-0.3c0-0.1,0.1-0.3,0.1-0.4
				c0-0.1,0-0.3,0-0.4c0-0.9-0.3-1.4-0.9-1.4c-0.1,0-0.3,0-0.4,0.1c-0.1,0.1-0.2,0.1-0.3,0.2c-0.1,0.1-0.1,0.2-0.2,0.3
				c0,0.1-0.1,0.3-0.1,0.4c0,0.1,0,0.2,0,0.4C402.7-12.8,403-12.4,403.6-12.4z"/>
		</g>
		<g class="st5">
			<path class="st3" d="M432.7-10.2v-7.5h1.8c0.3,0,0.6,0,0.9,0.1c0.2,0.1,0.4,0.2,0.6,0.4c0.1,0.2,0.2,0.4,0.3,0.6
				c0.1,0.2,0.1,0.5,0.1,0.8c0,0.3,0,0.5-0.1,0.8c-0.1,0.2-0.2,0.4-0.3,0.6c-0.1,0.2-0.3,0.3-0.6,0.4c-0.2,0.1-0.5,0.2-0.8,0.2h-1.1
				v3.6H432.7z M433.4-14.3h0.9c0.5,0,0.8-0.1,1-0.3c0.2-0.2,0.3-0.6,0.3-1.1c0-0.6-0.1-1-0.3-1.2c-0.2-0.2-0.5-0.3-1-0.3h-0.9
				V-14.3z"/>
			<path class="st3" d="M438-10.1c-0.3,0-0.6-0.1-0.8-0.3c-0.2-0.2-0.3-0.5-0.3-0.9c0-0.2,0-0.3,0-0.5c0-0.1,0.1-0.3,0.2-0.4
				c0.1-0.1,0.2-0.2,0.3-0.3c0.1-0.1,0.2-0.2,0.4-0.3c0.2-0.1,0.4-0.2,0.5-0.3c0.2-0.1,0.4-0.2,0.7-0.3v-0.4c0-0.5,0-0.8-0.1-1
				c-0.1-0.2-0.3-0.3-0.5-0.3c-0.5,0-0.7,0.3-0.7,0.9v0.2l-0.7,0c0-0.1,0-0.1,0-0.2c0-0.5,0.2-0.9,0.4-1.1c0.2-0.2,0.6-0.3,1.1-0.3
				c0.5,0,0.8,0.1,1,0.4c0.2,0.3,0.3,0.7,0.3,1.4v2.6c0,0.4,0,0.8,0.1,1.1h-0.6l-0.1-0.7c-0.1,0.2-0.2,0.4-0.4,0.6
				C438.5-10.2,438.3-10.1,438-10.1z M438.2-10.7c0.2,0,0.4-0.1,0.5-0.2c0.2-0.1,0.3-0.3,0.4-0.4V-13c0,0,0,0-0.1,0
				c-0.1,0.1-0.3,0.1-0.3,0.2c-0.1,0-0.2,0.1-0.3,0.2c-0.1,0.1-0.2,0.1-0.2,0.2c-0.1,0-0.1,0.1-0.2,0.2c-0.1,0.1-0.1,0.1-0.2,0.2
				c0,0.1-0.1,0.1-0.1,0.2c0,0.1-0.1,0.1-0.1,0.2c0,0.1,0,0.2,0,0.3c0,0.3,0.1,0.5,0.2,0.6C437.9-10.8,438-10.7,438.2-10.7z"/>
			<path class="st3" d="M440.8-10.2v-5.4h0.7v0.7c0.2-0.3,0.4-0.5,0.6-0.6c0.2-0.1,0.4-0.2,0.7-0.2c0.1,0,0.1,0,0.1,0v0.7
				c-0.1,0-0.2-0.1-0.3-0.1c-0.4,0-0.8,0.2-1,0.6v4.1H440.8z"/>
			<path class="st3" d="M444.8-10.1c-0.4,0-0.6-0.1-0.8-0.3c-0.1-0.2-0.2-0.5-0.2-0.9v-3.8h-0.7v-0.5h0.7v-1.7h0.7v1.7h0.9v0.5h-0.9
				v3.8c0,0.3,0,0.5,0.1,0.6c0.1,0.1,0.2,0.2,0.4,0.2c0.1,0,0.3,0,0.4,0v0.5C445.2-10.1,445-10.1,444.8-10.1z"/>
			<path class="st3" d="M446.1-10.2v-5.4h0.7v0.6c0.4-0.4,0.8-0.6,1.3-0.6c0.3,0,0.5,0.1,0.6,0.3c0.1,0.2,0.2,0.5,0.2,0.8v4.3h-0.7
				v-4.2c0-0.3,0-0.5-0.1-0.6c-0.1-0.1-0.2-0.2-0.4-0.2c-0.3,0-0.6,0.2-0.9,0.5v4.4H446.1z"/>
			<path class="st3" d="M451.3-10.1c-0.5,0-0.9-0.2-1.1-0.5c-0.2-0.3-0.3-0.9-0.3-1.6v-1.4c0-0.5,0.1-0.9,0.2-1.3
				c0.1-0.3,0.3-0.5,0.5-0.6c0.2-0.1,0.5-0.2,0.8-0.2c0.2,0,0.4,0,0.6,0.1c0.2,0.1,0.3,0.1,0.4,0.3c0.1,0.1,0.2,0.3,0.3,0.4
				c0.1,0.2,0.1,0.4,0.1,0.6c0,0.2,0,0.5,0,0.8l0,0.5h-2.2v0.8c0,0.6,0.1,1,0.2,1.2c0.1,0.2,0.3,0.3,0.6,0.3c0.2,0,0.4-0.1,0.5-0.2
				c0.1-0.2,0.2-0.4,0.2-0.8V-12h0.7v0.3c0,0.5-0.1,0.9-0.3,1.2C452.2-10.2,451.8-10.1,451.3-10.1z M450.5-13.3h1.5v-0.4
				c0-0.2,0-0.3,0-0.5c0-0.1,0-0.2-0.1-0.4c0-0.1-0.1-0.2-0.1-0.3c-0.1-0.1-0.1-0.1-0.2-0.2c-0.1,0-0.2-0.1-0.3-0.1
				c-0.3,0-0.5,0.1-0.6,0.3c-0.1,0.2-0.2,0.6-0.2,1.1V-13.3z"/>
			<path class="st3" d="M453.7-10.2v-5.4h0.7v0.7c0.2-0.3,0.4-0.5,0.6-0.6c0.2-0.1,0.4-0.2,0.7-0.2c0.1,0,0.1,0,0.1,0v0.7
				c-0.1,0-0.2-0.1-0.3-0.1c-0.4,0-0.8,0.2-1,0.6v4.1H453.7z"/>
			<path class="st3" d="M457.7-10.1c-0.4,0-0.8-0.1-1-0.4c-0.3-0.3-0.4-0.6-0.4-1.1l0.6-0.2c0,0.4,0.1,0.7,0.3,0.9
				c0.2,0.2,0.4,0.3,0.6,0.3c0.2,0,0.4-0.1,0.6-0.2c0.1-0.1,0.2-0.3,0.2-0.5c0,0,0,0,0,0c0-0.4-0.2-0.7-0.7-1.1l-0.7-0.6
				c-0.3-0.2-0.4-0.4-0.6-0.6c-0.1-0.2-0.2-0.4-0.2-0.7c0-0.4,0.1-0.7,0.4-0.9c0.2-0.2,0.5-0.3,0.9-0.3c0.4,0,0.7,0.1,0.9,0.4
				c0.2,0.3,0.3,0.6,0.4,1l-0.5,0.2c0-0.4-0.1-0.6-0.2-0.8c-0.1-0.2-0.3-0.3-0.5-0.3c-0.2,0-0.4,0.1-0.5,0.2
				c-0.1,0.1-0.2,0.3-0.2,0.5c0,0.2,0,0.3,0.1,0.5c0.1,0.1,0.2,0.3,0.4,0.4l0.8,0.7c0.1,0.1,0.2,0.2,0.3,0.3
				c0.1,0.1,0.2,0.2,0.3,0.3c0.1,0.1,0.2,0.3,0.2,0.4c0,0.2,0.1,0.3,0.1,0.5c0,0.4-0.1,0.7-0.4,1C458.4-10.2,458.1-10.1,457.7-10.1z
				"/>
		</g>
	</g>
</g>
<g class="st5">
	<g>
		<path class="st0" d="M179.6,220l-10.5-6.1c-1.8-1-3.3-3.6-3.3-5.7v-2.5c0-2-1.4-4.4-3.1-5.4l-2.2-1.3l0.2-0.3l2.2,1.3
			c1.8,1,3.3,3.6,3.3,5.7v2.5c0,2,1.4,4.4,3.1,5.4l10.5,6.1L179.6,220z"/>
		<path class="st0" d="M183.7,217.6l-10.5-6.1c-1.8-1-3.3-3.6-3.3-5.7v-2.5c0-2-1.4-4.4-3.1-5.4l-2.2-1.3l0.2-0.3l2.2,1.3
			c1.8,1,3.3,3.6,3.3,5.7v2.5c0,2,1.4,4.4,3.1,5.4l10.5,6.1L183.7,217.6z"/>
		<path class="st0" d="M187.8,215.2l-10.5-6.1c-1.8-1-3.3-3.6-3.3-5.7V201c0-2-1.4-4.4-3.1-5.4l-2.2-1.3l0.2-0.3l2.2,1.3
			c1.8,1,3.3,3.6,3.3,5.7v2.5c0,2,1.4,4.4,3.1,5.4L188,215L187.8,215.2z"/>
		<path class="st0" d="M191.9,212.9l-10.5-6.1c-1.8-1-3.3-3.6-3.3-5.7v-2.5c0-2-1.4-4.4-3.1-5.4l-2.2-1.3l0.2-0.3l2.2,1.3
			c1.8,1,3.3,3.6,3.3,5.7v2.5c0,2,1.4,4.4,3.1,5.4l10.5,6.1L191.9,212.9z"/>
		<path class="st0" d="M196,210.5l-10.5-6.1c-1.8-1-3.3-3.6-3.3-5.7v-2.5c0-2-1.4-4.4-3.1-5.4l-2.2-1.3l0.2-0.3l2.2,1.3
			c1.8,1,3.3,3.6,3.3,5.7v2.5c0,2,1.4,4.4,3.1,5.4l10.5,6.1L196,210.5z"/>
		<path class="st0" d="M200.1,208.2l-10.5-6.1c-1.8-1-3.3-3.6-3.3-5.7v-2.5c0-2-1.4-4.4-3.1-5.4l-2.2-1.3l0.2-0.3l2.2,1.3
			c1.8,1,3.3,3.6,3.3,5.7v2.5c0,2,1.4,4.4,3.1,5.4l10.5,6.1L200.1,208.2z"/>
		<path class="st0" d="M204.1,205.8l-10.5-6.1c-1.8-1-3.3-3.6-3.3-5.7v-2.5c0-2-1.4-4.4-3.1-5.4l-2.2-1.3l0.2-0.3l2.2,1.3
			c1.8,1,3.3,3.6,3.3,5.7v2.5c0,2,1.4,4.4,3.1,5.4l10.5,6.1L204.1,205.8z"/>
		<path class="st0" d="M208.2,203.5l-10.5-6.1c-1.8-1-3.3-3.6-3.3-5.7v-2.5c0-2-1.4-4.4-3.1-5.4l-2.2-1.3l0.2-0.3l2.2,1.3
			c1.8,1,3.3,3.6,3.3,5.7v2.5c0,2,1.4,4.4,3.1,5.4l10.5,6.1L208.2,203.5z"/>
		<path class="st0" d="M212.3,201.1l-10.5-6.1c-1.8-1-3.3-3.6-3.3-5.7v-2.5c0-2-1.4-4.4-3.1-5.4l-2.2-1.3l0.2-0.3l2.2,1.3
			c1.8,1,3.3,3.6,3.3,5.7v2.5c0,2,1.4,4.4,3.1,5.4l10.5,6.1L212.3,201.1z"/>
		<path class="st0" d="M216.4,198.7l-10.5-6.1c-1.8-1-3.3-3.6-3.3-5.7v-2.5c0-2-1.4-4.4-3.1-5.4l-2.2-1.3l0.2-0.3l2.2,1.3
			c1.8,1,3.3,3.6,3.3,5.7v2.5c0,2,1.4,4.4,3.1,5.4l10.5,6.1L216.4,198.7z"/>
		<path class="st0" d="M220.5,196.4l-10.5-6.1c-1.8-1-3.3-3.6-3.3-5.7v-2.5c0-2-1.4-4.4-3.1-5.4l-2.2-1.3l0.2-0.3l2.2,1.3
			c1.8,1,3.3,3.6,3.3,5.7v2.5c0,2,1.4,4.4,3.1,5.4l10.5,6.1L220.5,196.4z"/>
		<path class="st0" d="M224.6,194l-10.5-6.1c-1.8-1-3.3-3.6-3.3-5.7v-2.5c0-2-1.4-4.4-3.1-5.4l-2.2-1.3l0.2-0.3l2.2,1.3
			c1.8,1,3.3,3.6,3.3,5.7v2.5c0,2,1.4,4.4,3.1,5.4l10.5,6.1L224.6,194z"/>
		<path class="st0" d="M228.7,191.7l-10.5-6.1c-1.8-1-3.3-3.6-3.3-5.7v-2.5c0-2-1.4-4.4-3.1-5.4l-2.2-1.3l0.2-0.3l2.2,1.3
			c1.8,1,3.3,3.6,3.3,5.7v2.5c0,2,1.4,4.4,3.1,5.4l10.5,6.1L228.7,191.7z"/>
		<path class="st0" d="M232.8,189.3l-10.5-6.1c-1.8-1-3.3-3.6-3.3-5.7v-2.5c0-2-1.4-4.4-3.1-5.4l-2.2-1.3l0.2-0.3l2.2,1.3
			c1.8,1,3.3,3.6,3.3,5.7v2.5c0,2,1.4,4.4,3.1,5.4l10.5,6.1L232.8,189.3z"/>
		<path class="st0" d="M236.9,187l-10.5-6.1c-1.8-1-3.3-3.6-3.3-5.7v-2.5c0-2-1.4-4.4-3.1-5.4l-2.2-1.3l0.2-0.3l2.2,1.3
			c1.8,1,3.3,3.6,3.3,5.7v2.5c0,2,1.4,4.4,3.1,5.4l10.5,6.1L236.9,187z"/>
		<path class="st0" d="M240.9,184.6l-10.5-6.1c-1.8-1-3.3-3.6-3.3-5.7v-2.5c0-2-1.4-4.4-3.1-5.4l-2.2-1.3l0.2-0.3l2.2,1.3
			c1.8,1,3.3,3.6,3.3,5.7v2.5c0,2,1.4,4.4,3.1,5.4l10.5,6.1L240.9,184.6z"/>
		<path class="st0" d="M245,182.3l-10.5-6.1c-1.8-1-3.3-3.6-3.3-5.7V168c0-2-1.4-4.4-3.1-5.4l-2.2-1.3l0.2-0.3l2.2,1.3
			c1.8,1,3.3,3.6,3.3,5.7v2.5c0,2,1.4,4.4,3.1,5.4l10.5,6.1L245,182.3z"/>
		<path class="st0" d="M249.1,179.9l-10.5-6.1c-1.8-1-3.3-3.6-3.3-5.7v-2.5c0-2-1.4-4.4-3.1-5.4L230,159l0.2-0.3l2.2,1.3
			c1.8,1,3.3,3.6,3.3,5.7v2.5c0,2,1.4,4.4,3.1,5.4l10.5,6.1L249.1,179.9z"/>
		<path class="st0" d="M253.2,177.5l-10.5-6.1c-1.8-1-3.3-3.6-3.3-5.7v-2.5c0-2-1.4-4.4-3.1-5.4l-2.2-1.3l0.2-0.3l2.2,1.3
			c1.8,1,3.3,3.6,3.3,5.7v2.5c0,2,1.4,4.4,3.1,5.4l10.5,6.1L253.2,177.5z"/>
		<path class="st0" d="M257.3,175.2l-10.5-6.1c-1.8-1-3.3-3.6-3.3-5.7v-2.5c0-2-1.4-4.4-3.1-5.4l-2.2-1.3l0.2-0.3l2.2,1.3
			c1.8,1,3.3,3.6,3.3,5.7v2.5c0,2,1.4,4.4,3.1,5.4l10.5,6.1L257.3,175.2z"/>
	</g>
	<g>
		<path class="st0" d="M138.9,220l-0.2-0.3l10.5-6.1c1.7-1,3.1-3.4,3.1-5.4v-2.5c0-2.1,1.5-4.6,3.3-5.7l2.2-1.3l0.2,0.3l-2.2,1.3
			c-1.7,1-3.1,3.4-3.1,5.4v2.5c0,2.1-1.5,4.6-3.3,5.7L138.9,220z"/>
		<path class="st0" d="M134.8,217.6l-0.2-0.3l10.5-6.1c1.7-1,3.1-3.4,3.1-5.4v-2.5c0-2.1,1.5-4.6,3.3-5.7l2.2-1.3l0.2,0.3l-2.2,1.3
			c-1.7,1-3.1,3.4-3.1,5.4v2.5c0,2.1-1.5,4.6-3.3,5.7L134.8,217.6z"/>
		<path class="st0" d="M130.8,215.2l-0.2-0.3l10.5-6.1c1.7-1,3.1-3.4,3.1-5.4V201c0-2.1,1.5-4.6,3.3-5.7l2.2-1.3l0.2,0.3l-2.2,1.3
			c-1.7,1-3.1,3.4-3.1,5.4v2.5c0,2.1-1.5,4.6-3.3,5.7L130.8,215.2z"/>
		<path class="st0" d="M126.7,212.9l-0.2-0.3l10.5-6.1c1.7-1,3.1-3.4,3.1-5.4v-2.5c0-2.1,1.5-4.6,3.3-5.7l2.2-1.3l0.2,0.3l-2.2,1.3
			c-1.7,1-3.1,3.4-3.1,5.4v2.5c0,2.1-1.5,4.6-3.3,5.7L126.7,212.9z"/>
		<path class="st0" d="M122.6,210.5l-0.2-0.3l10.5-6.1c1.7-1,3.1-3.4,3.1-5.4v-2.5c0-2.1,1.5-4.6,3.3-5.7l2.2-1.3l0.2,0.3l-2.2,1.3
			c-1.7,1-3.1,3.4-3.1,5.4v2.5c0,2.1-1.5,4.6-3.3,5.7L122.6,210.5z"/>
		<path class="st0" d="M118.5,208.2l-0.2-0.3l10.5-6.1c1.7-1,3.1-3.4,3.1-5.4v-2.5c0-2.1,1.5-4.6,3.3-5.7l2.2-1.3l0.2,0.3l-2.2,1.3
			c-1.7,1-3.1,3.4-3.1,5.4v2.5c0,2.1-1.5,4.6-3.3,5.7L118.5,208.2z"/>
		<path class="st0" d="M114.4,205.8l-0.2-0.3l10.5-6.1c1.7-1,3.1-3.4,3.1-5.4v-2.5c0-2.1,1.5-4.6,3.3-5.7l2.2-1.3l0.2,0.3l-2.2,1.3
			c-1.7,1-3.1,3.4-3.1,5.4v2.5c0,2.1-1.5,4.6-3.3,5.7L114.4,205.8z"/>
		<path class="st0" d="M110.3,203.5l-0.2-0.3l10.5-6.1c1.7-1,3.1-3.4,3.1-5.4v-2.5c0-2.1,1.5-4.6,3.3-5.7l2.2-1.3l0.2,0.3l-2.2,1.3
			c-1.7,1-3.1,3.4-3.1,5.4v2.5c0,2.1-1.5,4.6-3.3,5.7L110.3,203.5z"/>
		<path class="st0" d="M106.2,201.1l-0.2-0.3l10.5-6.1c1.7-1,3.1-3.4,3.1-5.4v-2.5c0-2.1,1.5-4.6,3.3-5.7l2.2-1.3l0.2,0.3l-2.2,1.3
			c-1.7,1-3.1,3.4-3.1,5.4v2.5c0,2.1-1.5,4.6-3.3,5.7L106.2,201.1z"/>
		<path class="st0" d="M102.1,198.7l-0.2-0.3l10.5-6.1c1.7-1,3.1-3.4,3.1-5.4v-2.5c0-2.1,1.5-4.6,3.3-5.7l2.2-1.3l0.2,0.3l-2.2,1.3
			c-1.7,1-3.1,3.4-3.1,5.4v2.5c0,2.1-1.5,4.6-3.3,5.7L102.1,198.7z"/>
		<path class="st0" d="M98.1,196.4l-0.2-0.3l10.5-6.1c1.7-1,3.1-3.4,3.1-5.4v-2.5c0-2.1,1.5-4.6,3.3-5.7l2.2-1.3l0.2,0.3l-2.2,1.3
			c-1.7,1-3.1,3.4-3.1,5.4v2.5c0,2.1-1.5,4.6-3.3,5.7L98.1,196.4z"/>
		<path class="st0" d="M94,194l-0.2-0.3l10.5-6.1c1.7-1,3.1-3.4,3.1-5.4v-2.5c0-2.1,1.5-4.6,3.3-5.7l2.2-1.3l0.2,0.3l-2.2,1.3
			c-1.7,1-3.1,3.4-3.1,5.4v2.5c0,2.1-1.5,4.6-3.3,5.7L94,194z"/>
		<path class="st0" d="M89.9,191.7l-0.2-0.3l10.5-6.1c1.7-1,3.1-3.4,3.1-5.4v-2.5c0-2.1,1.5-4.6,3.3-5.7l2.2-1.3l0.2,0.3l-2.2,1.3
			c-1.7,1-3.1,3.4-3.1,5.4v2.5c0,2.1-1.5,4.6-3.3,5.7L89.9,191.7z"/>
		<path class="st0" d="M85.8,189.3l-0.2-0.3l10.5-6.1c1.7-1,3.1-3.4,3.1-5.4v-2.5c0-2.1,1.5-4.6,3.3-5.7l2.2-1.3l0.2,0.3l-2.2,1.3
			c-1.7,1-3.1,3.4-3.1,5.4v2.5c0,2.1-1.5,4.6-3.3,5.7L85.8,189.3z"/>
		<path class="st0" d="M81.7,187l-0.2-0.3l10.5-6.1c1.7-1,3.1-3.4,3.1-5.4v-2.5c0-2.1,1.5-4.6,3.3-5.7l2.2-1.3l0.2,0.3l-2.2,1.3
			c-1.7,1-3.1,3.4-3.1,5.4v2.5c0,2.1-1.5,4.6-3.3,5.7L81.7,187z"/>
		<path class="st0" d="M77.6,184.6l-0.2-0.3l10.5-6.1c1.7-1,3.1-3.4,3.1-5.4v-2.5c0-2.1,1.5-4.6,3.3-5.7l2.2-1.3l0.2,0.3l-2.2,1.3
			c-1.7,1-3.1,3.4-3.1,5.4v2.5c0,2.1-1.5,4.6-3.3,5.7L77.6,184.6z"/>
		<path class="st0" d="M73.5,182.3l-0.2-0.3l10.5-6.1c1.7-1,3.1-3.4,3.1-5.4V168c0-2.1,1.5-4.6,3.3-5.7l2.2-1.3l0.2,0.3l-2.2,1.3
			c-1.7,1-3.1,3.4-3.1,5.4v2.5c0,2.1-1.5,4.6-3.3,5.7L73.5,182.3z"/>
		<path class="st0" d="M69.4,179.9l-0.2-0.3l10.5-6.1c1.7-1,3.1-3.4,3.1-5.4v-2.5c0-2.1,1.5-4.6,3.3-5.7l2.2-1.3l0.2,0.3l-2.2,1.3
			c-1.7,1-3.1,3.4-3.1,5.4v2.5c0,2.1-1.5,4.6-3.3,5.7L69.4,179.9z"/>
		<path class="st0" d="M65.3,177.5l-0.2-0.3l10.5-6.1c1.7-1,3.1-3.4,3.1-5.4v-2.5c0-2.1,1.5-4.6,3.3-5.7l2.2-1.3l0.2,0.3l-2.2,1.3
			c-1.7,1-3.1,3.4-3.1,5.4v2.5c0,2.1-1.5,4.6-3.3,5.7L65.3,177.5z"/>
		<path class="st0" d="M61.3,175.2l-0.2-0.3l10.5-6.1c1.7-1,3.1-3.4,3.1-5.4v-2.5c0-2.1,1.5-4.6,3.3-5.7l2.2-1.3l0.2,0.3l-2.2,1.3
			c-1.7,1-3.1,3.4-3.1,5.4v2.5c0,2.1-1.5,4.6-3.3,5.7L61.3,175.2z"/>
	</g>
	<g>
		<g>
			<linearGradient id="SVGID_1_" gradientUnits="userSpaceOnUse" x1="38.7162" y1="185.9897" x2="245.7125" y2="185.9897">
				<stop  offset="0" style="stop-color:#5761D7"/>
				<stop  offset="0.1645" style="stop-color:#5E67DA"/>
				<stop  offset="0.4051" style="stop-color:#727AE2"/>
				<stop  offset="0.6924" style="stop-color:#9297EE"/>
				<stop  offset="1" style="stop-color:#BCBEFF"/>
			</linearGradient>
			<polygon class="st6" points="240.2,158 240.2,167.3 159.4,214 78.7,167.3 78.7,158 			"/>
			<polygon class="st7" points="159.4,204.6 78.7,158 159.4,111.4 240.2,158 			"/>
			<polygon class="st3" points="159.4,203.5 79.6,157.5 78.7,158 159.4,204.6 240.2,158 239.2,157.5 			"/>
		</g>
	</g>
</g>
<g>
	<g>
		<path class="st0" d="M151,98.1c-0.5,0-1-0.2-1.5-0.5L139,91.5l0.2-0.3l10.5,6.1c0.8,0.5,1.5,0.5,2.1,0.2c0.6-0.3,0.9-1,0.9-1.9
			v-2.5c0-1,0.4-1.8,1-2.2c0.7-0.4,1.5-0.3,2.4,0.2l2.2,1.3l-0.2,0.3l-2.2-1.3c-0.8-0.5-1.5-0.5-2.1-0.2c-0.6,0.3-0.9,1-0.9,1.9v2.5
			c0,1-0.4,1.8-1,2.2C151.6,98,151.3,98.1,151,98.1z"/>
		<path class="st0" d="M146.9,100.4c-0.5,0-1-0.2-1.5-0.5l-10.5-6.1l0.2-0.3l10.5,6.1c0.8,0.5,1.5,0.5,2.1,0.2
			c0.6-0.3,0.9-1,0.9-1.9v-2.5c0-1,0.4-1.8,1-2.2c0.7-0.4,1.5-0.3,2.4,0.2l2.2,1.3L154,95l-2.2-1.3c-0.8-0.5-1.5-0.5-2.1-0.2
			c-0.6,0.3-0.9,1-0.9,1.9V98c0,1-0.4,1.8-1,2.2C147.6,100.3,147.3,100.4,146.9,100.4z"/>
		<path class="st0" d="M142.8,102.8c-0.5,0-1-0.2-1.5-0.5l-10.5-6.1L131,96l10.5,6.1c0.8,0.5,1.5,0.5,2.1,0.2c0.6-0.3,0.9-1,0.9-1.9
			v-2.5c0-1,0.4-1.8,1-2.2c0.7-0.4,1.5-0.3,2.4,0.2l2.2,1.3l-0.2,0.3l-2.2-1.3c-0.8-0.5-1.5-0.5-2.1-0.2c-0.6,0.3-0.9,1-0.9,1.9v2.5
			c0,1-0.4,1.8-1,2.2C143.5,102.7,143.2,102.8,142.8,102.8z"/>
		<path class="st0" d="M138.7,105.1c-0.5,0-1-0.2-1.5-0.5l-10.5-6.1l0.2-0.3l10.5,6.1c0.8,0.5,1.5,0.5,2.1,0.2
			c0.6-0.3,0.9-1,0.9-1.9v-2.5c0-1,0.4-1.8,1-2.2c0.7-0.4,1.5-0.3,2.4,0.2l2.2,1.3l-0.2,0.3l-2.2-1.3c-0.8-0.5-1.5-0.5-2.1-0.2
			c-0.6,0.3-0.9,1-0.9,1.9v2.5c0,1-0.4,1.8-1,2.2C139.4,105,139.1,105.1,138.7,105.1z"/>
		<path class="st0" d="M134.7,107.5c-0.5,0-1-0.2-1.5-0.5l-10.5-6.1l0.2-0.3l10.5,6.1c0.8,0.5,1.5,0.5,2.1,0.2
			c0.6-0.3,0.9-1,0.9-1.9v-2.5c0-1,0.4-1.8,1-2.2c0.7-0.4,1.5-0.3,2.4,0.2l2.2,1.3l-0.2,0.3l-2.2-1.3c-0.8-0.5-1.5-0.5-2.1-0.2
			c-0.6,0.3-0.9,1-0.9,1.9v2.5c0,1-0.4,1.8-1,2.2C135.3,107.4,135,107.5,134.7,107.5z"/>
		<path class="st0" d="M130.6,109.8c-0.5,0-1-0.2-1.5-0.5l-10.5-6.1l0.2-0.3l10.5,6.1c0.8,0.5,1.5,0.5,2.1,0.2
			c0.6-0.3,0.9-1,0.9-1.9v-2.5c0-1,0.4-1.8,1-2.2c0.7-0.4,1.5-0.3,2.4,0.2l2.2,1.3l-0.2,0.3l-2.2-1.3c-0.8-0.5-1.5-0.5-2.1-0.2
			c-0.6,0.3-0.9,1-0.9,1.9v2.5c0,1-0.4,1.8-1,2.2C131.2,109.7,130.9,109.8,130.6,109.8z"/>
		<path class="st0" d="M126.5,112.2c-0.5,0-1-0.2-1.5-0.5l-10.5-6.1l0.2-0.3l10.5,6.1c0.8,0.5,1.5,0.5,2.1,0.2
			c0.6-0.3,0.9-1,0.9-1.9v-2.5c0-1,0.4-1.8,1-2.2c0.7-0.4,1.5-0.3,2.4,0.2l2.2,1.3l-0.2,0.3l-2.2-1.3c-0.8-0.5-1.5-0.5-2.1-0.2
			c-0.6,0.3-0.9,1-0.9,1.9v2.5c0,1-0.4,1.8-1,2.2C127.1,112.1,126.8,112.2,126.5,112.2z"/>
		<path class="st0" d="M122.4,114.5c-0.5,0-1-0.2-1.5-0.5l-10.5-6.1l0.2-0.3l10.5,6.1c0.8,0.5,1.5,0.5,2.1,0.2
			c0.6-0.3,0.9-1,0.9-1.9v-2.5c0-1,0.4-1.8,1-2.2c0.7-0.4,1.5-0.3,2.4,0.2l2.2,1.3l-0.2,0.3l-2.2-1.3c-0.8-0.5-1.5-0.5-2.1-0.2
			c-0.6,0.3-0.9,1-0.9,1.9v2.5c0,1-0.4,1.8-1,2.2C123,114.4,122.7,114.5,122.4,114.5z"/>
		<path class="st0" d="M118.3,116.9c-0.5,0-1-0.2-1.5-0.5l-10.5-6.1l0.2-0.3l10.5,6.1c0.8,0.5,1.5,0.5,2.1,0.2
			c0.6-0.3,0.9-1,0.9-1.9v-2.5c0-1,0.4-1.8,1-2.2c0.7-0.4,1.5-0.3,2.4,0.2l2.2,1.3l-0.2,0.3l-2.2-1.3c-0.8-0.5-1.5-0.5-2.1-0.2
			c-0.6,0.3-0.9,1-0.9,1.9v2.5c0,1-0.4,1.8-1,2.2C118.9,116.8,118.6,116.9,118.3,116.9z"/>
		<path class="st0" d="M114.2,119.2c-0.5,0-1-0.2-1.5-0.5l-10.5-6.1l0.2-0.3l10.5,6.1c0.8,0.5,1.5,0.5,2.1,0.2
			c0.6-0.3,0.9-1,0.9-1.9v-2.5c0-1,0.4-1.8,1-2.2c0.7-0.4,1.5-0.3,2.4,0.2l2.2,1.3l-0.2,0.3l-2.2-1.3c-0.8-0.5-1.5-0.5-2.1-0.2
			c-0.6,0.3-0.9,1-0.9,1.9v2.5c0,1-0.4,1.8-1,2.2C114.9,119.1,114.5,119.2,114.2,119.2z"/>
		<path class="st0" d="M110.1,121.6c-0.5,0-1-0.2-1.5-0.5L98.1,115l0.2-0.3l10.5,6.1c0.8,0.5,1.5,0.5,2.1,0.2c0.6-0.3,0.9-1,0.9-1.9
			v-2.5c0-1,0.4-1.8,1-2.2c0.7-0.4,1.5-0.3,2.4,0.2l2.2,1.3l-0.2,0.3l-2.2-1.3c-0.8-0.5-1.5-0.5-2.1-0.2c-0.6,0.3-0.9,1-0.9,1.9v2.5
			c0,1-0.4,1.8-1,2.2C110.8,121.5,110.5,121.6,110.1,121.6z"/>
		<path class="st0" d="M106,123.9c-0.5,0-1-0.2-1.5-0.5L94,117.4l0.2-0.3l10.5,6.1c0.8,0.5,1.5,0.5,2.1,0.2c0.6-0.3,0.9-1,0.9-1.9
			v-2.5c0-1,0.4-1.8,1-2.2c0.7-0.4,1.5-0.3,2.4,0.2l2.2,1.3l-0.2,0.3l-2.2-1.3c-0.8-0.5-1.5-0.5-2.1-0.2c-0.6,0.3-0.9,1-0.9,1.9v2.5
			c0,1-0.4,1.8-1,2.2C106.7,123.8,106.4,123.9,106,123.9z"/>
		<path class="st0" d="M102,126.3c-0.5,0-1-0.2-1.5-0.5l-10.5-6.1l0.2-0.3l10.5,6.1c0.8,0.5,1.5,0.5,2.1,0.2c0.6-0.3,0.9-1,0.9-1.9
			v-2.5c0-1,0.4-1.8,1-2.2c0.7-0.4,1.5-0.3,2.4,0.2l2.2,1.3l-0.2,0.3l-2.2-1.3c-0.8-0.5-1.5-0.5-2.1-0.2c-0.6,0.3-0.9,1-0.9,1.9v2.5
			c0,1-0.4,1.8-1,2.2C102.6,126.2,102.3,126.3,102,126.3z"/>
		<path class="st0" d="M97.9,128.6c-0.5,0-1-0.2-1.5-0.5l-10.5-6.1l0.2-0.3l10.5,6.1c0.8,0.5,1.5,0.5,2.1,0.2c0.6-0.3,0.9-1,0.9-1.9
			v-2.5c0-1,0.4-1.8,1-2.2c0.7-0.4,1.5-0.3,2.4,0.2l2.2,1.3l-0.2,0.3l-2.2-1.3c-0.8-0.5-1.5-0.5-2.1-0.2c-0.6,0.3-0.9,1-0.9,1.9v2.5
			c0,1-0.4,1.8-1,2.2C98.5,128.5,98.2,128.6,97.9,128.6z"/>
		<path class="st0" d="M93.8,131c-0.5,0-1-0.2-1.5-0.5l-10.5-6.1l0.2-0.3l10.5,6.1c0.8,0.5,1.5,0.5,2.1,0.2c0.6-0.3,0.9-1,0.9-1.9
			V126c0-1,0.4-1.8,1-2.2c0.7-0.4,1.5-0.3,2.4,0.2l2.2,1.3l-0.2,0.3l-2.2-1.3c-0.8-0.5-1.5-0.5-2.1-0.2c-0.6,0.3-0.9,1-0.9,1.9v2.5
			c0,1-0.4,1.8-1,2.2C94.4,130.9,94.1,131,93.8,131z"/>
		<path class="st0" d="M89.7,133.3c-0.5,0-1-0.2-1.5-0.5l-10.5-6.1l0.2-0.3l10.5,6.1c0.8,0.5,1.5,0.5,2.1,0.2c0.6-0.3,0.9-1,0.9-1.9
			v-2.5c0-1,0.4-1.8,1-2.2c0.7-0.4,1.5-0.3,2.4,0.2l2.2,1.3l-0.2,0.3l-2.2-1.3c-0.8-0.5-1.5-0.5-2.1-0.2c-0.6,0.3-0.9,1-0.9,1.9v2.5
			c0,1-0.4,1.8-1,2.2C90.3,133.2,90,133.3,89.7,133.3z"/>
		<path class="st0" d="M85.6,135.7c-0.5,0-1-0.2-1.5-0.5l-10.5-6.1l0.2-0.3l10.5,6.1c0.8,0.5,1.5,0.5,2.1,0.2c0.6-0.3,0.9-1,0.9-1.9
			v-2.5c0-1,0.4-1.8,1-2.2c0.7-0.4,1.5-0.3,2.4,0.2l2.2,1.3l-0.2,0.3l-2.2-1.3c-0.8-0.5-1.5-0.5-2.1-0.2c-0.6,0.3-0.9,1-0.9,1.9v2.5
			c0,1-0.4,1.8-1,2.2C86.2,135.6,85.9,135.7,85.6,135.7z"/>
		<path class="st0" d="M81.5,138c-0.5,0-1-0.2-1.5-0.5l-10.5-6.1l0.2-0.3l10.5,6.1c0.8,0.5,1.5,0.5,2.1,0.2c0.6-0.3,0.9-1,0.9-1.9
			v-2.5c0-1,0.4-1.8,1-2.2c0.7-0.4,1.5-0.3,2.4,0.2l2.2,1.3l-0.2,0.3l-2.2-1.3c-0.8-0.5-1.5-0.5-2.1-0.2c-0.6,0.3-0.9,1-0.9,1.9v2.5
			c0,1-0.4,1.8-1,2.2C82.1,138,81.8,138,81.5,138z"/>
		<path class="st0" d="M77.4,140.4c-0.5,0-1-0.2-1.5-0.5l-10.5-6.1l0.2-0.3l10.5,6.1c0.8,0.5,1.5,0.5,2.1,0.2c0.6-0.3,0.9-1,0.9-1.9
			v-2.5c0-1,0.4-1.8,1-2.2c0.7-0.4,1.5-0.3,2.4,0.2l2.2,1.3l-0.2,0.3l-2.2-1.3c-0.8-0.5-1.5-0.5-2.1-0.2c-0.6,0.3-0.9,1-0.9,1.9v2.5
			c0,1-0.4,1.8-1,2.2C78.1,140.3,77.8,140.4,77.4,140.4z"/>
		<path class="st0" d="M73.3,142.7c-0.5,0-1-0.2-1.5-0.5l-10.5-6.1l0.2-0.3L72,142c0.8,0.5,1.5,0.5,2.1,0.2c0.6-0.3,0.9-1,0.9-1.9
			v-2.5c0-1,0.4-1.8,1-2.2c0.7-0.4,1.5-0.3,2.4,0.2l2.2,1.3l-0.2,0.3l-2.2-1.3c-0.8-0.5-1.5-0.5-2.1-0.2c-0.6,0.3-0.9,1-0.9,1.9v2.5
			c0,1-0.4,1.8-1,2.2C74,142.7,73.7,142.7,73.3,142.7z"/>
	</g>
	<g>
		<path class="st0" d="M167.8,98.2c-0.3,0-0.6-0.1-0.9-0.2c-0.7-0.4-1-1.2-1-2.2v-2.5c0-0.9-0.3-1.6-0.9-1.9
			c-0.6-0.3-1.3-0.2-2.1,0.2l-2.2,1.3l-0.2-0.3l2.2-1.3c0.9-0.5,1.8-0.6,2.4-0.2c0.7,0.4,1,1.2,1,2.2v2.5c0,0.9,0.3,1.6,0.9,1.9
			c0.6,0.3,1.3,0.2,2.1-0.2l10.5-6.1l0.2,0.3l-10.5,6.1C168.7,98.1,168.2,98.2,167.8,98.2z"/>
		<path class="st0" d="M171.8,100.6c-0.3,0-0.6-0.1-0.9-0.2c-0.7-0.4-1-1.2-1-2.2v-2.5c0-0.9-0.3-1.6-0.9-1.9
			c-0.6-0.3-1.3-0.2-2.1,0.2l-2.2,1.3l-0.2-0.3l2.2-1.3c0.9-0.5,1.8-0.6,2.4-0.2c0.7,0.4,1,1.2,1,2.2v2.5c0,0.9,0.3,1.6,0.9,1.9
			c0.6,0.3,1.3,0.2,2.1-0.2l10.5-6.1l0.2,0.3l-10.5,6.1C172.8,100.4,172.3,100.6,171.8,100.6z"/>
		<path class="st0" d="M175.9,102.9c-0.3,0-0.6-0.1-0.9-0.2c-0.7-0.4-1-1.2-1-2.2V98c0-0.9-0.3-1.6-0.9-1.9
			c-0.6-0.3-1.3-0.2-2.1,0.2l-2.2,1.3l-0.2-0.3l2.2-1.3c0.9-0.5,1.8-0.6,2.4-0.2c0.7,0.4,1,1.2,1,2.2v2.5c0,0.9,0.3,1.6,0.9,1.9
			c0.6,0.3,1.3,0.2,2.1-0.2l10.5-6.1l0.2,0.3l-10.5,6.1C176.9,102.8,176.4,102.9,175.9,102.9z"/>
		<path class="st0" d="M180,105.3c-0.3,0-0.6-0.1-0.9-0.2c-0.7-0.4-1-1.2-1-2.2v-2.5c0-0.9-0.3-1.6-0.9-1.9
			c-0.6-0.3-1.3-0.2-2.1,0.2l-2.2,1.3l-0.2-0.3l2.2-1.3c0.9-0.5,1.8-0.6,2.4-0.2c0.7,0.4,1,1.2,1,2.2v2.5c0,0.9,0.3,1.6,0.9,1.9
			c0.6,0.3,1.3,0.2,2.1-0.2l10.5-6.1l0.2,0.3l-10.5,6.1C181,105.1,180.5,105.3,180,105.3z"/>
		<path class="st0" d="M184.1,107.7c-0.3,0-0.6-0.1-0.9-0.2c-0.7-0.4-1-1.2-1-2.2v-2.5c0-0.9-0.3-1.6-0.9-1.9
			c-0.6-0.3-1.3-0.2-2.1,0.2l-2.2,1.3l-0.2-0.3l2.2-1.3c0.9-0.5,1.8-0.6,2.4-0.2c0.7,0.4,1,1.2,1,2.2v2.5c0,0.9,0.3,1.6,0.9,1.9
			c0.6,0.3,1.3,0.2,2.1-0.2l10.5-6.1l0.2,0.3l-10.5,6.1C185.1,107.5,184.6,107.7,184.1,107.7z"/>
		<path class="st0" d="M188.2,110c-0.3,0-0.6-0.1-0.9-0.2c-0.7-0.4-1-1.2-1-2.2V105c0-0.9-0.3-1.6-0.9-1.9c-0.6-0.3-1.3-0.2-2.1,0.2
			l-2.2,1.3l-0.2-0.3l2.2-1.3c0.9-0.5,1.8-0.6,2.4-0.2c0.7,0.4,1,1.2,1,2.2v2.5c0,0.9,0.3,1.6,0.9,1.9c0.6,0.3,1.3,0.2,2.1-0.2
			l10.5-6.1l0.2,0.3l-10.5,6.1C189.2,109.8,188.7,110,188.2,110z"/>
		<path class="st0" d="M192.3,112.4c-0.3,0-0.6-0.1-0.9-0.2c-0.7-0.4-1-1.2-1-2.2v-2.5c0-0.9-0.3-1.6-0.9-1.9
			c-0.6-0.3-1.3-0.2-2.1,0.2l-2.2,1.3l-0.2-0.3l2.2-1.3c0.9-0.5,1.8-0.6,2.4-0.2c0.7,0.4,1,1.2,1,2.2v2.5c0,0.9,0.3,1.6,0.9,1.9
			c0.6,0.3,1.3,0.2,2.1-0.2l10.5-6.1l0.2,0.3l-10.5,6.1C193.3,112.2,192.8,112.4,192.3,112.4z"/>
		<path class="st0" d="M196.4,114.7c-0.3,0-0.6-0.1-0.9-0.2c-0.7-0.4-1-1.2-1-2.2v-2.5c0-0.9-0.3-1.6-0.9-1.9
			c-0.6-0.3-1.3-0.2-2.1,0.2l-2.2,1.3l-0.2-0.3l2.2-1.3c0.9-0.5,1.8-0.6,2.4-0.2c0.7,0.4,1,1.2,1,2.2v2.5c0,0.9,0.3,1.6,0.9,1.9
			c0.6,0.3,1.3,0.2,2.1-0.2l10.5-6.1l0.2,0.3l-10.5,6.1C197.4,114.6,196.8,114.7,196.4,114.7z"/>
		<path class="st0" d="M200.5,117.1c-0.3,0-0.6-0.1-0.9-0.2c-0.7-0.4-1-1.2-1-2.2v-2.5c0-0.9-0.3-1.6-0.9-1.9
			c-0.6-0.3-1.3-0.2-2.1,0.2l-2.2,1.3l-0.2-0.3l2.2-1.3c0.9-0.5,1.8-0.6,2.4-0.2c0.7,0.4,1,1.2,1,2.2v2.5c0,0.9,0.3,1.6,0.9,1.9
			c0.6,0.3,1.3,0.2,2.1-0.2l10.5-6.1l0.2,0.3l-10.5,6.1C201.4,116.9,200.9,117.1,200.5,117.1z"/>
		<path class="st0" d="M204.6,119.4c-0.3,0-0.6-0.1-0.9-0.2c-0.7-0.4-1-1.2-1-2.2v-2.5c0-0.9-0.3-1.6-0.9-1.9
			c-0.6-0.3-1.3-0.2-2.1,0.2l-2.2,1.3l-0.2-0.3l2.2-1.3c0.9-0.5,1.8-0.6,2.4-0.2c0.7,0.4,1,1.2,1,2.2v2.5c0,0.9,0.3,1.6,0.9,1.9
			c0.6,0.3,1.3,0.2,2.1-0.2l10.5-6.1l0.2,0.3l-10.5,6.1C205.5,119.3,205,119.4,204.6,119.4z"/>
		<path class="st0" d="M208.6,121.8c-0.3,0-0.6-0.1-0.9-0.2c-0.7-0.4-1-1.2-1-2.2v-2.5c0-0.9-0.3-1.6-0.9-1.9
			c-0.6-0.3-1.3-0.2-2.1,0.2l-2.2,1.3l-0.2-0.3l2.2-1.3c0.9-0.5,1.8-0.6,2.4-0.2c0.7,0.4,1,1.2,1,2.2v2.5c0,0.9,0.3,1.6,0.9,1.9
			c0.6,0.3,1.3,0.2,2.1-0.2l10.5-6.1l0.2,0.3l-10.5,6.1C209.6,121.6,209.1,121.8,208.6,121.8z"/>
		<path class="st0" d="M212.7,124.1c-0.3,0-0.6-0.1-0.9-0.2c-0.7-0.4-1-1.2-1-2.2v-2.5c0-0.9-0.3-1.6-0.9-1.9
			c-0.6-0.3-1.3-0.2-2.1,0.2l-2.2,1.3l-0.2-0.3l2.2-1.3c0.9-0.5,1.8-0.6,2.4-0.2c0.7,0.4,1,1.2,1,2.2v2.5c0,0.9,0.3,1.6,0.9,1.9
			c0.6,0.3,1.3,0.2,2.1-0.2l10.5-6.1l0.2,0.3l-10.5,6.1C213.7,124,213.2,124.1,212.7,124.1z"/>
		<path class="st0" d="M216.8,126.5c-0.3,0-0.6-0.1-0.9-0.2c-0.7-0.4-1-1.2-1-2.2v-2.5c0-0.9-0.3-1.6-0.9-1.9
			c-0.6-0.3-1.3-0.2-2.1,0.2l-2.2,1.3l-0.2-0.3l2.2-1.3c0.9-0.5,1.8-0.6,2.4-0.2c0.7,0.4,1,1.2,1,2.2v2.5c0,0.9,0.3,1.6,0.9,1.9
			c0.6,0.3,1.3,0.2,2.1-0.2l10.5-6.1l0.2,0.3l-10.5,6.1C217.8,126.3,217.3,126.5,216.8,126.5z"/>
		<path class="st0" d="M220.9,128.8c-0.3,0-0.6-0.1-0.9-0.2c-0.7-0.4-1-1.2-1-2.2v-2.5c0-0.9-0.3-1.6-0.9-1.9
			c-0.6-0.3-1.3-0.2-2.1,0.2l-2.2,1.3l-0.2-0.3l2.2-1.3c0.9-0.5,1.8-0.6,2.4-0.2c0.7,0.4,1,1.2,1,2.2v2.5c0,0.9,0.3,1.6,0.9,1.9
			c0.6,0.3,1.3,0.2,2.1-0.2l10.5-6.1l0.2,0.3l-10.5,6.1C221.9,128.7,221.4,128.8,220.9,128.8z"/>
		<path class="st0" d="M225,131.2c-0.3,0-0.6-0.1-0.9-0.2c-0.7-0.4-1-1.2-1-2.2v-2.5c0-0.9-0.3-1.6-0.9-1.9
			c-0.6-0.3-1.3-0.2-2.1,0.2l-2.2,1.3l-0.2-0.3l2.2-1.3c0.9-0.5,1.8-0.6,2.4-0.2c0.7,0.4,1,1.2,1,2.2v2.5c0,0.9,0.3,1.6,0.9,1.9
			c0.6,0.3,1.3,0.2,2.1-0.2l10.5-6.1l0.2,0.3l-10.5,6.1C226,131,225.5,131.2,225,131.2z"/>
		<path class="st0" d="M229.1,133.5c-0.3,0-0.6-0.1-0.9-0.2c-0.7-0.4-1-1.2-1-2.2v-2.5c0-0.9-0.3-1.6-0.9-1.9
			c-0.6-0.3-1.3-0.2-2.1,0.2l-2.2,1.3l-0.2-0.3l2.2-1.3c0.9-0.5,1.8-0.6,2.4-0.2c0.7,0.4,1,1.2,1,2.2v2.5c0,0.9,0.3,1.6,0.9,1.9
			c0.6,0.3,1.3,0.2,2.1-0.2l10.5-6.1l0.2,0.3l-10.5,6.1C230.1,133.4,229.5,133.5,229.1,133.5z"/>
		<path class="st0" d="M233.2,135.9c-0.3,0-0.6-0.1-0.9-0.2c-0.7-0.4-1-1.2-1-2.2v-2.5c0-0.9-0.3-1.6-0.9-1.9
			c-0.6-0.3-1.3-0.2-2.1,0.2l-2.2,1.3l-0.2-0.3l2.2-1.3c0.9-0.5,1.8-0.6,2.4-0.2c0.7,0.4,1,1.2,1,2.2v2.5c0,0.9,0.3,1.6,0.9,1.9
			c0.6,0.3,1.3,0.2,2.1-0.2l10.5-6.1l0.2,0.3l-10.5,6.1C234.1,135.7,233.6,135.9,233.2,135.9z"/>
		<path class="st0" d="M237.3,138.2c-0.3,0-0.6-0.1-0.9-0.2c-0.7-0.4-1-1.2-1-2.2v-2.5c0-0.9-0.3-1.6-0.9-1.9
			c-0.6-0.3-1.3-0.2-2.1,0.2l-2.2,1.3l-0.2-0.3l2.2-1.3c0.9-0.5,1.8-0.6,2.4-0.2c0.7,0.4,1,1.2,1,2.2v2.5c0,0.9,0.3,1.6,0.9,1.9
			c0.6,0.3,1.3,0.2,2.1-0.2l10.5-6.1l0.2,0.3l-10.5,6.1C238.2,138.1,237.7,138.2,237.3,138.2z"/>
		<path class="st0" d="M241.3,140.6c-0.3,0-0.6-0.1-0.9-0.2c-0.7-0.4-1-1.2-1-2.2v-2.5c0-0.9-0.3-1.6-0.9-1.9
			c-0.6-0.3-1.3-0.2-2.1,0.2l-2.2,1.3l-0.2-0.3l2.2-1.3c0.9-0.5,1.8-0.6,2.4-0.2c0.7,0.4,1,1.2,1,2.2v2.5c0,0.9,0.3,1.6,0.9,1.9
			c0.6,0.3,1.3,0.2,2.1-0.2l10.5-6.1l0.2,0.3l-10.5,6.1C242.3,140.4,241.8,140.6,241.3,140.6z"/>
		<path class="st0" d="M245.4,142.9c-0.3,0-0.6-0.1-0.9-0.2c-0.7-0.4-1-1.2-1-2.2V138c0-0.9-0.3-1.6-0.9-1.9
			c-0.6-0.3-1.3-0.2-2.1,0.2l-2.2,1.3l-0.2-0.3l2.2-1.3c0.9-0.5,1.8-0.6,2.4-0.2c0.7,0.4,1,1.2,1,2.2v2.5c0,0.9,0.3,1.6,0.9,1.9
			c0.6,0.3,1.3,0.2,2.1-0.2l10.5-6.1l0.2,0.3l-10.5,6.1C246.4,142.8,245.9,142.9,245.4,142.9z"/>
	</g>
	<g>
		<g>
			<linearGradient id="SVGID_2_" gradientUnits="userSpaceOnUse" x1="38.7162" y1="166.2681" x2="245.7125" y2="166.2681">
				<stop  offset="0" style="stop-color:#5761D7"/>
				<stop  offset="0.1645" style="stop-color:#5E67DA"/>
				<stop  offset="0.4051" style="stop-color:#727AE2"/>
				<stop  offset="0.6924" style="stop-color:#9297EE"/>
				<stop  offset="1" style="stop-color:#BCBEFF"/>
			</linearGradient>
			<polygon class="st8" points="240.2,138.3 240.2,147.6 159.4,194.3 78.7,147.6 78.7,138.3 			"/>
			<polygon class="st7" points="159.4,184.9 78.7,138.3 159.4,91.7 240.2,138.3 			"/>
			<polygon class="st3" points="159.4,183.8 79.6,137.7 78.7,138.3 159.4,184.9 240.2,138.3 239.2,137.7 			"/>
		</g>
		<g>
			<polygon class="st9" points="159.4,174.2 97.3,138.3 159.4,102.4 221.5,138.3 			"/>
			<g>
				<linearGradient id="SVGID_3_" gradientUnits="userSpaceOnUse" x1="97.2965" y1="138.2971" x2="221.5411" y2="138.2971">
					<stop  offset="0" style="stop-color:#42E8E0"/>
					<stop  offset="0.1507" style="stop-color:#43E3E0"/>
					<stop  offset="0.3285" style="stop-color:#45D5DF"/>
					<stop  offset="0.5199" style="stop-color:#49BDDD"/>
					<stop  offset="0.7209" style="stop-color:#4E9CDB"/>
					<stop  offset="0.9274" style="stop-color:#5472D8"/>
					<stop  offset="1" style="stop-color:#5761D7"/>
				</linearGradient>
				<polygon class="st10" points="159.4,174.2 97.3,138.3 159.4,102.4 221.5,138.3 				"/>
				<g>
					<linearGradient id="SVGID_4_" gradientUnits="userSpaceOnUse" x1="159.4179" y1="115.8417" x2="221.5411" y2="115.8417">
						<stop  offset="0" style="stop-color:#42E8E0"/>
						<stop  offset="0.1507" style="stop-color:#43E3E0"/>
						<stop  offset="0.3285" style="stop-color:#45D5DF"/>
						<stop  offset="0.5199" style="stop-color:#49BDDD"/>
						<stop  offset="0.7209" style="stop-color:#4E9CDB"/>
						<stop  offset="0.9274" style="stop-color:#5472D8"/>
						<stop  offset="1" style="stop-color:#5761D7"/>
					</linearGradient>
					<polygon class="st11" points="159.4,93.4 221.5,129.3 221.5,138.3 159.4,102.4 					"/>
					<linearGradient id="SVGID_5_" gradientUnits="userSpaceOnUse" x1="97.2965" y1="115.8412" x2="159.4197" y2="115.8412">
						<stop  offset="0" style="stop-color:#42E8E0"/>
						<stop  offset="0.1507" style="stop-color:#43E3E0"/>
						<stop  offset="0.3285" style="stop-color:#45D5DF"/>
						<stop  offset="0.5199" style="stop-color:#49BDDD"/>
						<stop  offset="0.7209" style="stop-color:#4E9CDB"/>
						<stop  offset="0.9274" style="stop-color:#5472D8"/>
						<stop  offset="1" style="stop-color:#5761D7"/>
					</linearGradient>
					<polygon class="st12" points="159.4,102.4 97.3,138.3 97.3,129.3 159.4,93.4 					"/>
					<linearGradient id="SVGID_6_" gradientUnits="userSpaceOnUse" x1="97.2965" y1="129.2527" x2="221.5411" y2="129.2527">
						<stop  offset="0" style="stop-color:#42E8E0"/>
						<stop  offset="0.1507" style="stop-color:#43E3E0"/>
						<stop  offset="0.3285" style="stop-color:#45D5DF"/>
						<stop  offset="0.5199" style="stop-color:#49BDDD"/>
						<stop  offset="0.7209" style="stop-color:#4E9CDB"/>
						<stop  offset="0.9274" style="stop-color:#5472D8"/>
						<stop  offset="1" style="stop-color:#5761D7"/>
					</linearGradient>
					<polygon class="st13" points="159.4,165.1 97.3,129.3 159.4,93.4 221.5,129.3 					"/>
					<polygon class="st14" points="159.4,143.6 134.6,129.3 159.4,114.9 184.2,129.3 					"/>
					<polygon class="st14" points="159.4,116.2 183.1,129.9 184.2,129.3 159.4,114.9 134.6,129.3 135.7,129.9 					"/>
					<linearGradient id="SVGID_7_" gradientUnits="userSpaceOnUse" x1="159.4197" y1="151.7081" x2="221.5411" y2="151.7081">
						<stop  offset="0" style="stop-color:#42E8E0"/>
						<stop  offset="0.1507" style="stop-color:#43E3E0"/>
						<stop  offset="0.3285" style="stop-color:#45D5DF"/>
						<stop  offset="0.5199" style="stop-color:#49BDDD"/>
						<stop  offset="0.7209" style="stop-color:#4E9CDB"/>
						<stop  offset="0.9274" style="stop-color:#5472D8"/>
						<stop  offset="1" style="stop-color:#5761D7"/>
					</linearGradient>
					<polygon class="st15" points="159.4,165.1 159.4,174.2 221.5,138.3 221.5,129.3 					"/>
				</g>
				<linearGradient id="SVGID_8_" gradientUnits="userSpaceOnUse" x1="97.2965" y1="151.7075" x2="159.4197" y2="151.7075">
					<stop  offset="0" style="stop-color:#42E8E0"/>
					<stop  offset="0.1507" style="stop-color:#43E3E0"/>
					<stop  offset="0.3285" style="stop-color:#45D5DF"/>
					<stop  offset="0.5199" style="stop-color:#49BDDD"/>
					<stop  offset="0.7209" style="stop-color:#4E9CDB"/>
					<stop  offset="0.9274" style="stop-color:#5472D8"/>
					<stop  offset="1" style="stop-color:#5761D7"/>
				</linearGradient>
				<polygon class="st16" points="97.3,129.3 97.3,138.3 159.4,174.2 159.4,165.1 				"/>
			</g>
			<polygon class="st17" points="159.4,164.1 98.2,128.8 97.3,129.3 159.4,165.1 221.5,129.3 220.7,128.8 			"/>
		</g>
	</g>
	<g>
		<path class="st0" d="M179.6,205.2l-10.5-6.1c-1.8-1-3.3-3.6-3.3-5.7v-2.5c0-2-1.4-4.4-3.1-5.4l-2.2-1.3l0.2-0.3l2.2,1.3
			c1.8,1,3.3,3.6,3.3,5.7v2.5c0,2,1.4,4.4,3.1,5.4l10.5,6.1L179.6,205.2z"/>
		<path class="st0" d="M183.7,202.9l-10.5-6.1c-1.8-1-3.3-3.6-3.3-5.7v-2.5c0-2-1.4-4.4-3.1-5.4l-2.2-1.3l0.2-0.3l2.2,1.3
			c1.8,1,3.3,3.6,3.3,5.7v2.5c0,2,1.4,4.4,3.1,5.4l10.5,6.1L183.7,202.9z"/>
		<path class="st0" d="M187.8,200.5l-10.5-6.1c-1.8-1-3.3-3.6-3.3-5.7v-2.5c0-2-1.4-4.4-3.1-5.4l-2.2-1.3l0.2-0.3l2.2,1.3
			c1.8,1,3.3,3.6,3.3,5.7v2.5c0,2,1.4,4.4,3.1,5.4l10.5,6.1L187.8,200.5z"/>
		<path class="st0" d="M191.9,198.1l-10.5-6.1c-1.8-1-3.3-3.6-3.3-5.7v-2.5c0-2-1.4-4.4-3.1-5.4l-2.2-1.3l0.2-0.3l2.2,1.3
			c1.8,1,3.3,3.6,3.3,5.7v2.5c0,2,1.4,4.4,3.1,5.4l10.5,6.1L191.9,198.1z"/>
		<path class="st0" d="M196,195.8l-10.5-6.1c-1.8-1-3.3-3.6-3.3-5.7v-2.5c0-2-1.4-4.4-3.1-5.4l-2.2-1.3l0.2-0.3l2.2,1.3
			c1.8,1,3.3,3.6,3.3,5.7v2.5c0,2,1.4,4.4,3.1,5.4l10.5,6.1L196,195.8z"/>
		<path class="st0" d="M200.1,193.4l-10.5-6.1c-1.8-1-3.3-3.6-3.3-5.7v-2.5c0-2-1.4-4.4-3.1-5.4l-2.2-1.3l0.2-0.3l2.2,1.3
			c1.8,1,3.3,3.6,3.3,5.7v2.5c0,2,1.4,4.4,3.1,5.4l10.5,6.1L200.1,193.4z"/>
		<path class="st0" d="M204.1,191.1l-10.5-6.1c-1.8-1-3.3-3.6-3.3-5.7v-2.5c0-2-1.4-4.4-3.1-5.4l-2.2-1.3l0.2-0.3l2.2,1.3
			c1.8,1,3.3,3.6,3.3,5.7v2.5c0,2,1.4,4.4,3.1,5.4l10.5,6.1L204.1,191.1z"/>
		<path class="st0" d="M208.2,188.7l-10.5-6.1c-1.8-1-3.3-3.6-3.3-5.7v-2.5c0-2-1.4-4.4-3.1-5.4l-2.2-1.3l0.2-0.3l2.2,1.3
			c1.8,1,3.3,3.6,3.3,5.7v2.5c0,2,1.4,4.4,3.1,5.4l10.5,6.1L208.2,188.7z"/>
		<path class="st0" d="M212.3,186.4l-10.5-6.1c-1.8-1-3.3-3.6-3.3-5.7v-2.5c0-2-1.4-4.4-3.1-5.4l-2.2-1.3l0.2-0.3l2.2,1.3
			c1.8,1,3.3,3.6,3.3,5.7v2.5c0,2,1.4,4.4,3.1,5.4l10.5,6.1L212.3,186.4z"/>
		<path class="st0" d="M216.4,184l-10.5-6.1c-1.8-1-3.3-3.6-3.3-5.7v-2.5c0-2-1.4-4.4-3.1-5.4l-2.2-1.3l0.2-0.3l2.2,1.3
			c1.8,1,3.3,3.6,3.3,5.7v2.5c0,2,1.4,4.4,3.1,5.4l10.5,6.1L216.4,184z"/>
		<path class="st0" d="M220.5,181.7l-10.5-6.1c-1.8-1-3.3-3.6-3.3-5.7v-2.5c0-2-1.4-4.4-3.1-5.4l-2.2-1.3l0.2-0.3l2.2,1.3
			c1.8,1,3.3,3.6,3.3,5.7v2.5c0,2,1.4,4.4,3.1,5.4l10.5,6.1L220.5,181.7z"/>
		<path class="st0" d="M224.6,179.3l-10.5-6.1c-1.8-1-3.3-3.6-3.3-5.7V165c0-2-1.4-4.4-3.1-5.4l-2.2-1.3l0.2-0.3l2.2,1.3
			c1.8,1,3.3,3.6,3.3,5.7v2.5c0,2,1.4,4.4,3.1,5.4l10.5,6.1L224.6,179.3z"/>
		<path class="st0" d="M228.7,176.9l-10.5-6.1c-1.8-1-3.3-3.6-3.3-5.7v-2.5c0-2-1.4-4.4-3.1-5.4l-2.2-1.3l0.2-0.3l2.2,1.3
			c1.8,1,3.3,3.6,3.3,5.7v2.5c0,2,1.4,4.4,3.1,5.4l10.5,6.1L228.7,176.9z"/>
		<path class="st0" d="M232.8,174.6l-10.5-6.1c-1.8-1-3.3-3.6-3.3-5.7v-2.5c0-2-1.4-4.4-3.1-5.4l-2.2-1.3l0.2-0.3l2.2,1.3
			c1.8,1,3.3,3.6,3.3,5.7v2.5c0,2,1.4,4.4,3.1,5.4l10.5,6.1L232.8,174.6z"/>
		<path class="st0" d="M236.9,172.2l-10.5-6.1c-1.8-1-3.3-3.6-3.3-5.7V158c0-2-1.4-4.4-3.1-5.4l-2.2-1.3l0.2-0.3l2.2,1.3
			c1.8,1,3.3,3.6,3.3,5.7v2.5c0,2,1.4,4.4,3.1,5.4L237,172L236.9,172.2z"/>
		<path class="st0" d="M240.9,169.9l-10.5-6.1c-1.8-1-3.3-3.6-3.3-5.7v-2.5c0-2-1.4-4.4-3.1-5.4l-2.2-1.3l0.2-0.3l2.2,1.3
			c1.8,1,3.3,3.6,3.3,5.7v2.5c0,2,1.4,4.4,3.1,5.4l10.5,6.1L240.9,169.9z"/>
		<path class="st0" d="M245,167.5l-10.5-6.1c-1.8-1-3.3-3.6-3.3-5.7v-2.5c0-2-1.4-4.4-3.1-5.4l-2.2-1.3l0.2-0.3l2.2,1.3
			c1.8,1,3.3,3.6,3.3,5.7v2.5c0,2,1.4,4.4,3.1,5.4l10.5,6.1L245,167.5z"/>
		<path class="st0" d="M249.1,165.2l-10.5-6.1c-1.8-1-3.3-3.6-3.3-5.7v-2.5c0-2-1.4-4.4-3.1-5.4l-2.2-1.3l0.2-0.3l2.2,1.3
			c1.8,1,3.3,3.6,3.3,5.7v2.5c0,2,1.4,4.4,3.1,5.4l10.5,6.1L249.1,165.2z"/>
		<path class="st0" d="M253.2,162.8l-10.5-6.1c-1.8-1-3.3-3.6-3.3-5.7v-2.5c0-2-1.4-4.4-3.1-5.4l-2.2-1.3l0.2-0.3l2.2,1.3
			c1.8,1,3.3,3.6,3.3,5.7v2.5c0,2,1.4,4.4,3.1,5.4l10.5,6.1L253.2,162.8z"/>
		<path class="st0" d="M257.3,160.5l-10.5-6.1c-1.8-1-3.3-3.6-3.3-5.7v-2.5c0-2-1.4-4.4-3.1-5.4l-2.2-1.3l0.2-0.3l2.2,1.3
			c1.8,1,3.3,3.6,3.3,5.7v2.5c0,2,1.4,4.4,3.1,5.4l10.5,6.1L257.3,160.5z"/>
	</g>
	<g>
		<path class="st0" d="M138.9,205.2l-0.2-0.3l10.5-6.1c1.7-1,3.1-3.4,3.1-5.4v-2.5c0-2.1,1.5-4.6,3.3-5.7l2.2-1.3l0.2,0.3l-2.2,1.3
			c-1.7,1-3.1,3.4-3.1,5.4v2.5c0,2.1-1.5,4.6-3.3,5.7L138.9,205.2z"/>
		<path class="st0" d="M134.8,202.9l-0.2-0.3l10.5-6.1c1.7-1,3.1-3.4,3.1-5.4v-2.5c0-2.1,1.5-4.6,3.3-5.7l2.2-1.3l0.2,0.3l-2.2,1.3
			c-1.7,1-3.1,3.4-3.1,5.4v2.5c0,2.1-1.5,4.6-3.3,5.7L134.8,202.9z"/>
		<path class="st0" d="M130.8,200.5l-0.2-0.3l10.5-6.1c1.7-1,3.1-3.4,3.1-5.4v-2.5c0-2.1,1.5-4.6,3.3-5.7l2.2-1.3l0.2,0.3l-2.2,1.3
			c-1.7,1-3.1,3.4-3.1,5.4v2.5c0,2.1-1.5,4.6-3.3,5.7L130.8,200.5z"/>
		<path class="st0" d="M126.7,198.1l-0.2-0.3l10.5-6.1c1.7-1,3.1-3.4,3.1-5.4v-2.5c0-2.1,1.5-4.6,3.3-5.7l2.2-1.3l0.2,0.3l-2.2,1.3
			c-1.7,1-3.1,3.4-3.1,5.4v2.5c0,2.1-1.5,4.6-3.3,5.7L126.7,198.1z"/>
		<path class="st0" d="M122.6,195.8l-0.2-0.3l10.5-6.1c1.7-1,3.1-3.4,3.1-5.4v-2.5c0-2.1,1.5-4.6,3.3-5.7l2.2-1.3l0.2,0.3l-2.2,1.3
			c-1.7,1-3.1,3.4-3.1,5.4v2.5c0,2.1-1.5,4.6-3.3,5.7L122.6,195.8z"/>
		<path class="st0" d="M118.5,193.4l-0.2-0.3l10.5-6.1c1.7-1,3.1-3.4,3.1-5.4v-2.5c0-2.1,1.5-4.6,3.3-5.7l2.2-1.3l0.2,0.3l-2.2,1.3
			c-1.7,1-3.1,3.4-3.1,5.4v2.5c0,2.1-1.5,4.6-3.3,5.7L118.5,193.4z"/>
		<path class="st0" d="M114.4,191.1l-0.2-0.3l10.5-6.1c1.7-1,3.1-3.4,3.1-5.4v-2.5c0-2.1,1.5-4.6,3.3-5.7l2.2-1.3l0.2,0.3l-2.2,1.3
			c-1.7,1-3.1,3.4-3.1,5.4v2.5c0,2.1-1.5,4.6-3.3,5.7L114.4,191.1z"/>
		<path class="st0" d="M110.3,188.7l-0.2-0.3l10.5-6.1c1.7-1,3.1-3.4,3.1-5.4v-2.5c0-2.1,1.5-4.6,3.3-5.7l2.2-1.3l0.2,0.3l-2.2,1.3
			c-1.7,1-3.1,3.4-3.1,5.4v2.5c0,2.1-1.5,4.6-3.3,5.7L110.3,188.7z"/>
		<path class="st0" d="M89.3,195.9L89.3,195.9l-44.8-25.7l0.2-0.3l44.6,25.6l16.8-9.5l10.5-6.1c1.7-1,3.1-3.4,3.1-5.4v-2.5
			c0-2.1,1.5-4.6,3.3-5.7l2.2-1.3l0.2,0.3l-2.2,1.3c-1.7,1-3.1,3.4-3.1,5.4v2.5c0,2.1-1.5,4.6-3.3,5.7l-10.5,6.1L89.3,195.9z"/>
		<path class="st0" d="M102.1,184l-0.2-0.3l10.5-6.1c1.7-1,3.1-3.4,3.1-5.4v-2.5c0-2.1,1.5-4.6,3.3-5.7l2.2-1.3l0.2,0.3l-2.2,1.3
			c-1.7,1-3.1,3.4-3.1,5.4v2.5c0,2.1-1.5,4.6-3.3,5.7L102.1,184z"/>
		<path class="st0" d="M98.1,181.7l-0.2-0.3l10.5-6.1c1.7-1,3.1-3.4,3.1-5.4v-2.5c0-2.1,1.5-4.6,3.3-5.7l2.2-1.3l0.2,0.3l-2.2,1.3
			c-1.7,1-3.1,3.4-3.1,5.4v2.5c0,2.1-1.5,4.6-3.3,5.7L98.1,181.7z"/>
		<path class="st0" d="M94,179.3l-0.2-0.3l10.5-6.1c1.7-1,3.1-3.4,3.1-5.4V165c0-2.1,1.5-4.6,3.3-5.7l2.2-1.3l0.2,0.3l-2.2,1.3
			c-1.7,1-3.1,3.4-3.1,5.4v2.5c0,2.1-1.5,4.6-3.3,5.7L94,179.3z"/>
		<path class="st0" d="M89.9,176.9l-0.2-0.3l10.5-6.1c1.7-1,3.1-3.4,3.1-5.4v-2.5c0-2.1,1.5-4.6,3.3-5.7l2.2-1.3l0.2,0.3l-2.2,1.3
			c-1.7,1-3.1,3.4-3.1,5.4v2.5c0,2.1-1.5,4.6-3.3,5.7L89.9,176.9z"/>
		<path class="st0" d="M85.8,174.6l-0.2-0.3l10.5-6.1c1.7-1,3.1-3.4,3.1-5.4v-2.5c0-2.1,1.5-4.6,3.3-5.7l2.2-1.3l0.2,0.3l-2.2,1.3
			c-1.7,1-3.1,3.4-3.1,5.4v2.5c0,2.1-1.5,4.6-3.3,5.7L85.8,174.6z"/>
		<path class="st0" d="M81.7,172.2l-0.2-0.3l10.5-6.1c1.7-1,3.1-3.4,3.1-5.4V158c0-2.1,1.5-4.6,3.3-5.7l2.2-1.3l0.2,0.3l-2.2,1.3
			c-1.7,1-3.1,3.4-3.1,5.4v2.5c0,2.1-1.5,4.6-3.3,5.7L81.7,172.2z"/>
		<path class="st0" d="M77.6,169.9l-0.2-0.3l10.5-6.1c1.7-1,3.1-3.4,3.1-5.4v-2.5c0-2.1,1.5-4.6,3.3-5.7l2.2-1.3l0.2,0.3l-2.2,1.3
			c-1.7,1-3.1,3.4-3.1,5.4v2.5c0,2.1-1.5,4.6-3.3,5.7L77.6,169.9z"/>
		<path class="st0" d="M73.5,167.5l-0.2-0.3l10.5-6.1c1.7-1,3.1-3.4,3.1-5.4v-2.5c0-2.1,1.5-4.6,3.3-5.7l2.2-1.3l0.2,0.3l-2.2,1.3
			c-1.7,1-3.1,3.4-3.1,5.4v2.5c0,2.1-1.5,4.6-3.3,5.7L73.5,167.5z"/>
		<path class="st0" d="M69.4,165.2l-0.2-0.3l10.5-6.1c1.7-1,3.1-3.4,3.1-5.4v-2.5c0-2.1,1.5-4.6,3.3-5.7l2.2-1.3l0.2,0.3l-2.2,1.3
			c-1.7,1-3.1,3.4-3.1,5.4v2.5c0,2.1-1.5,4.6-3.3,5.7L69.4,165.2z"/>
		<path class="st0" d="M65.3,162.8l-0.2-0.3l10.5-6.1c1.7-1,3.1-3.4,3.1-5.4v-2.5c0-2.1,1.5-4.6,3.3-5.7l2.2-1.3l0.2,0.3l-2.2,1.3
			c-1.7,1-3.1,3.4-3.1,5.4v2.5c0,2.1-1.5,4.6-3.3,5.7L65.3,162.8z"/>
		<path class="st0" d="M61.3,160.5l-0.2-0.3l10.5-6.1c1.7-1,3.1-3.4,3.1-5.4v-2.5c0-2.1,1.5-4.6,3.3-5.7l2.2-1.3l0.2,0.3l-2.2,1.3
			c-1.7,1-3.1,3.4-3.1,5.4v2.5c0,2.1-1.5,4.6-3.3,5.7L61.3,160.5z"/>
	</g>
</g>
<g>
	<g class="st1">
		<polygon class="st0" points="78.7,116.3 63.6,107.6 63.6,125 78.7,133.7 93.7,125 93.7,107.6 		"/>
		<polygon class="st0" points="78.7,133.7 63.6,125 63.6,107.6 78.7,116.3 		"/>
		<polygon class="st2" points="93.7,125 78.7,133.7 78.7,116.3 93.7,107.6 		"/>
		<polygon class="st0" points="78.7,116.3 63.6,107.6 78.7,98.9 93.7,107.6 		"/>
		<polygon class="st3" points="78.7,116.3 63.6,107.6 63.6,108.3 78.7,117 93.7,108.3 93.7,107.6 		"/>
	</g>
	<polygon class="st18" points="78.7,105.7 63.6,97 78.7,88.3 93.7,97 	"/>
	<polygon class="st0" points="78.7,75.1 63.6,66.4 63.6,83.8 78.7,92.5 93.7,83.8 93.7,66.4 	"/>
	<polygon class="st0" points="78.7,92.5 63.6,83.8 63.6,66.4 78.7,75.1 	"/>
	<polygon class="st2" points="93.7,83.8 78.7,92.5 78.7,75.1 93.7,66.4 	"/>
	<polygon class="st0" points="78.7,75.1 63.6,66.4 78.7,57.7 93.7,66.4 	"/>
	<polygon class="st2" points="78.7,73 67.3,66.4 78.7,59.9 90,66.4 	"/>
	<polygon class="st3" points="78.7,75.1 63.6,66.4 63.6,67.2 78.7,75.9 93.7,67.2 93.7,66.4 	"/>
	<polygon class="st0" points="78.7,49 63.6,40.3 63.6,57.7 78.7,66.4 93.7,57.7 93.7,40.3 	"/>
	<polygon class="st0" points="78.7,66.4 63.6,57.7 63.6,40.3 78.7,49 	"/>
	<polygon class="st2" points="93.7,57.7 78.7,66.4 78.7,49 93.7,40.3 	"/>
	<polygon class="st0" points="78.7,49 63.6,40.3 78.7,31.6 93.7,40.3 	"/>
	<polygon class="st3" points="78.7,49 63.6,40.3 63.6,41.1 78.7,49.8 93.7,41.1 93.7,40.3 	"/>
</g>
<g>
	<g class="st1">
		<polygon class="st0" points="277,126.3 261.9,117.6 261.9,135 277,143.7 292,135 292,117.6 		"/>
		<polygon class="st0" points="277,143.7 261.9,135 261.9,117.6 277,126.3 		"/>
		<polygon class="st2" points="292,135 277,143.7 277,126.3 292,117.6 		"/>
		<polygon class="st0" points="277,126.3 261.9,117.6 277,108.9 292,117.6 		"/>
		<polygon class="st3" points="277,126.3 261.9,117.6 261.9,118.3 277,127 292,118.3 292,117.6 		"/>
	</g>
	<path class="st0" d="M277.4,119.8L277.4,119.8L255.2,107l0.2-0.1l21.9-12.6l0.1,0l22.1,12.7l-0.2,0.1L277.4,119.8z M255.9,107
		l21.5,12.4l21.5-12.4l-21.5-12.4L255.9,107z"/>
	<polygon class="st18" points="277,115.7 261.9,107 277,98.3 292,107 	"/>
	<polygon class="st0" points="277,85.1 261.9,76.4 261.9,93.8 277,102.5 292,93.8 292,76.4 	"/>
	<polygon class="st0" points="277,102.5 261.9,93.8 261.9,76.4 277,85.1 	"/>
	<polygon class="st2" points="292,93.8 277,102.5 277,85.1 292,76.4 	"/>
	<polygon class="st0" points="277,85.1 261.9,76.4 277,67.7 292,76.4 	"/>
	<polygon class="st3" points="277,85.1 261.9,76.4 261.9,77.2 277,85.9 292,77.2 292,76.4 	"/>
</g>
<g>
	<path class="st0" d="M33.8,176.5L33.8,176.5l-22.1-12.8l0.2-0.1l21.9-12.6l0.1,0l22.1,12.7l-0.2,0.1L33.8,176.5z M12.3,163.7
		l21.5,12.4l21.5-12.4l-21.5-12.4L12.3,163.7z"/>
	<g class="st1">
		<polygon class="st0" points="33.8,183.2 18.7,174.5 18.7,191.9 33.8,200.6 48.8,191.9 48.8,174.5 		"/>
		<polygon class="st0" points="33.8,200.6 18.7,191.9 18.7,174.5 33.8,183.2 		"/>
		<polygon class="st2" points="48.8,191.9 33.8,200.6 33.8,183.2 48.8,174.5 		"/>
		<polygon class="st0" points="33.8,183.2 18.7,174.5 33.8,165.8 48.8,174.5 		"/>
		<polygon class="st3" points="33.8,183.2 18.7,174.5 18.7,175.3 33.8,184 48.8,175.3 48.8,174.5 		"/>
	</g>
	<polygon class="st18" points="33.8,172.7 18.7,164 33.8,155.3 48.8,164 	"/>
	<polygon class="st0" points="33.8,142.1 18.7,133.4 18.7,150.8 33.8,159.5 48.8,150.8 48.8,133.4 	"/>
	<polygon class="st0" points="33.8,159.5 18.7,150.8 18.7,133.4 33.8,142.1 	"/>
	<polygon class="st2" points="48.8,150.8 33.8,159.5 33.8,142.1 48.8,133.4 	"/>
	<polygon class="st0" points="33.8,142.1 18.7,133.4 33.8,124.7 48.8,133.4 	"/>
	<polygon class="st3" points="33.8,142.1 18.7,133.4 18.7,134.2 33.8,142.9 48.8,134.2 48.8,133.4 	"/>
</g>
<g>
	<g class="st1">
		<polygon class="st0" points="157.9,266.2 142.9,257.5 142.9,274.9 157.9,283.6 173,274.9 173,257.5 		"/>
		<polygon class="st0" points="157.9,283.6 142.9,274.9 142.9,257.5 157.9,266.2 		"/>
		<polygon class="st2" points="173,274.9 157.9,283.6 157.9,266.2 173,257.5 		"/>
		<polygon class="st0" points="157.9,266.2 142.9,257.5 157.9,248.8 173,257.5 		"/>
		<polygon class="st3" points="157.9,266.2 142.9,257.5 142.9,258.2 157.9,266.9 173,258.2 173,257.5 		"/>
	</g>
	<polygon class="st18" points="157.9,255.6 142.9,246.9 157.9,238.2 173,246.9 	"/>
	<polygon class="st0" points="157.9,225 142.9,216.3 142.9,233.7 157.9,242.4 173,233.7 173,216.3 	"/>
	<polygon class="st0" points="157.9,242.4 142.9,233.7 142.9,216.3 157.9,225 	"/>
	<polygon class="st2" points="173,233.7 157.9,242.4 157.9,225 173,216.3 	"/>
	<polygon class="st0" points="157.9,225 142.9,216.3 157.9,207.6 173,216.3 	"/>
	<polygon class="st3" points="157.9,225 142.9,216.3 142.9,217.1 157.9,225.8 173,217.1 173,216.3 	"/>
</g>
<g>
	<g class="st1">
		<polygon class="st0" points="281.8,225.4 294.9,236.9 298.3,219.9 285.3,208.4 268.8,213.9 265.3,230.9 		"/>
		<polygon class="st0" points="285.3,208.4 298.3,219.9 294.9,236.9 281.8,225.4 		"/>
		<polygon class="st2" points="268.8,213.9 285.3,208.4 281.8,225.4 265.3,230.9 		"/>
		<polygon class="st0" points="281.8,225.4 294.9,236.9 278.4,242.5 265.3,230.9 		"/>
		<polygon class="st3" points="281.8,225.4 294.9,236.9 295,236.2 282,224.7 265.5,230.2 265.3,230.9 		"/>
	</g>
	<g>
		<polygon class="st18" points="284.5,218.8 269.4,210.1 284.5,201.4 299.6,210.1 		"/>
	</g>
	<g>
		<path class="st19" d="M284.5,233.9c-9.9,0-19.9-2.2-27.4-6.5c-7.4-4.2-11.4-9.9-11.4-15.9c0-6,4.1-11.7,11.4-15.9
			c15.1-8.7,39.7-8.7,54.8,0c7.4,4.2,11.4,9.9,11.4,15.9c0,6-4.1,11.7-11.4,15.9C304.4,231.7,294.4,233.9,284.5,233.9z M284.5,189.3
			c-9.9,0-19.7,2.2-27.3,6.5c-7.3,4.2-11.2,9.7-11.2,15.7c0,5.9,4,11.5,11.2,15.7c15,8.7,39.5,8.7,54.5,0
			c7.3-4.2,11.2-9.7,11.2-15.6c0-5.9-4-11.5-11.2-15.7C304.3,191.4,294.4,189.3,284.5,189.3z"/>
		<path class="st20" d="M284.5,239.9c-12.6,0-25.2-2.8-34.8-8.3c-9.3-5.4-14.5-12.6-14.5-20.2c0-7.6,5.1-14.8,14.5-20.2
			c19.2-11.1,50.4-11.1,69.6,0c9.3,5.4,14.5,12.6,14.5,20.2c0,7.6-5.1,14.8-14.5,20.2l-0.1-0.1l0.1,0.1
			C309.7,237.1,297.1,239.9,284.5,239.9z M284.5,183.2c-12.5,0-25.1,2.8-34.6,8.3c-9.2,5.3-14.3,12.4-14.3,19.9
			c0,7.5,5.1,14.6,14.3,19.9c19.1,11,50.2,11,69.3,0l0,0c9.2-5.3,14.3-12.4,14.3-19.9s-5.1-14.6-14.3-19.9
			C309.6,186,297.1,183.2,284.5,183.2z"/>
		<path class="st0" d="M284.5,229.2c-7.8,0-15.7-1.7-21.6-5.2c-5.8-3.3-9-7.8-9-12.6c0-4.8,3.2-9.2,9-12.6c11.9-6.9,31.3-6.9,43.2,0
			c5.8,3.4,9,7.8,9,12.6c0,4.8-3.2,9.2-9,12.6C300.2,227.4,292.3,229.2,284.5,229.2z M284.5,194c-7.8,0-15.5,1.7-21.5,5.1
			c-5.7,3.3-8.8,7.7-8.8,12.3s3.1,9,8.8,12.3c11.8,6.8,31.1,6.8,42.9,0l0.1,0.1l-0.1-0.1c5.7-3.3,8.8-7.7,8.8-12.3
			c0-4.6-3.1-9-8.8-12.3C300.1,195.7,292.3,194,284.5,194z"/>
	</g>
	<g>
		<polygon class="st0" points="282.8,194.8 281.1,177.5 266.9,187.6 268.6,204.9 284.5,212.1 298.6,201.9 		"/>
		<polygon class="st0" points="268.6,204.9 266.9,187.6 281.1,177.5 282.8,194.8 		"/>
		<polygon class="st2" points="284.5,212.1 268.6,204.9 282.8,194.8 298.6,201.9 		"/>
		<polygon class="st0" points="282.8,194.8 281.1,177.5 296.9,184.6 298.6,201.9 		"/>
		<polygon class="st3" points="282.8,194.8 281.1,177.5 280.4,177.9 282.2,195.2 298,202.4 298.6,201.9 		"/>
	</g>
	<polygon class="st18" points="275.6,208.1 290.1,208.1 284.5,212.1 	"/>
</g>
<g>
	<g>
		<polygon class="st0" points="159.4,97.7 144.4,89 144.4,106.4 159.4,115.1 174.5,106.4 174.5,89 		"/>
		<polygon class="st0" points="159.4,115.1 144.4,106.4 144.4,89 159.4,97.7 		"/>
		<polygon class="st2" points="174.5,106.4 159.4,115.1 159.4,97.7 174.5,89 		"/>
		<polygon class="st0" points="159.4,97.7 144.4,89 159.4,80.3 174.5,89 		"/>
		<polygon class="st3" points="159.4,97.7 145,89.4 144.4,89.8 159.4,98.5 174.5,89.8 173.8,89.4 		"/>
	</g>
	<g>
		<polygon class="st0" points="179,108.9 163.9,100.2 163.9,117.6 179,126.3 194.1,117.6 194.1,100.2 		"/>
		<polygon class="st0" points="179,126.3 163.9,117.6 163.9,100.2 179,108.9 		"/>
		<polygon class="st2" points="194.1,117.6 179,126.3 179,108.9 194.1,100.2 		"/>
		<polygon class="st0" points="179,108.9 163.9,100.2 179,91.5 194.1,100.2 		"/>
		<polygon class="st3" points="179,108.9 164.6,100.6 163.9,100.9 179,109.6 194.1,100.9 193.4,100.6 		"/>
	</g>
	<g>
		<polygon class="st0" points="198.6,120 183.5,111.3 183.5,128.7 198.6,137.4 213.6,128.7 213.6,111.3 		"/>
		<polygon class="st0" points="198.6,137.4 183.5,128.7 183.5,111.3 198.6,120 		"/>
		<polygon class="st2" points="213.6,128.7 198.6,137.4 198.6,120 213.6,111.3 		"/>
		<polygon class="st0" points="198.6,120 183.5,111.3 198.6,102.6 213.6,111.3 		"/>
		<polygon class="st3" points="198.6,120 184.1,111.7 183.5,112.1 198.6,120.8 213.6,112.1 213.6,111.3 		"/>
	</g>
	<g>
		<polygon class="st0" points="139.8,109.6 124.8,100.9 124.8,118.3 139.8,127 154.9,118.3 154.9,100.9 		"/>
		<polygon class="st0" points="139.8,127 124.8,118.3 124.8,100.9 139.8,109.6 		"/>
		<polygon class="st2" points="154.9,118.3 139.8,127 139.8,109.6 154.9,100.9 		"/>
		<polygon class="st0" points="139.8,109.6 124.8,100.9 139.8,92.2 154.9,100.9 		"/>
		<polygon class="st3" points="139.8,109.6 125.4,101.3 124.8,101.7 139.8,110.4 154.9,101.7 154.3,101.3 		"/>
	</g>
	<g>
		<polygon class="st0" points="159.4,120.8 144.4,112.1 144.4,129.5 159.4,138.2 174.5,129.5 174.5,112.1 		"/>
		<polygon class="st0" points="159.4,138.2 144.4,129.5 144.4,112.1 159.4,120.8 		"/>
		<polygon class="st2" points="174.5,129.5 159.4,138.2 159.4,120.8 174.5,112.1 		"/>
		<polygon class="st0" points="159.4,120.8 144.4,112.1 159.4,103.4 174.5,112.1 		"/>
		<polygon class="st3" points="159.4,120.8 145,112.5 144.4,112.9 159.4,121.6 174.5,112.9 173.8,112.5 		"/>
	</g>
	<g>
		<polygon class="st0" points="179,132 163.9,123.3 163.9,140.7 179,149.4 194.1,140.7 194.1,123.3 		"/>
		<polygon class="st0" points="179,149.4 163.9,140.7 163.9,123.3 179,132 		"/>
		<polygon class="st2" points="194.1,140.7 179,149.4 179,132 194.1,123.3 		"/>
		<polygon class="st0" points="179,132 163.9,123.3 179,114.6 194.1,123.3 		"/>
		<polygon class="st3" points="179,132 164.6,123.6 163.9,124 179,132.7 194.1,124 194.1,123.3 		"/>
	</g>
	<g>
		<polygon class="st0" points="120.3,121.6 105.2,112.9 105.2,130.3 120.3,139 135.3,130.3 135.3,112.9 		"/>
		<polygon class="st0" points="120.3,139 105.2,130.3 105.2,112.9 120.3,121.6 		"/>
		<polygon class="st2" points="135.3,130.3 120.3,139 120.3,121.6 135.3,112.9 		"/>
		<polygon class="st0" points="120.3,121.6 105.2,112.9 120.3,104.2 135.3,112.9 		"/>
		<polygon class="st3" points="120.3,121.6 105.2,112.9 105.2,113.6 120.3,122.3 135.3,113.6 134.7,113.2 		"/>
	</g>
	<g>
		<polygon class="st0" points="139.8,132.7 124.8,124 124.8,141.4 139.8,150.1 154.9,141.4 154.9,124 		"/>
		<polygon class="st0" points="139.8,150.1 124.8,141.4 124.8,124 139.8,132.7 		"/>
		<polygon class="st2" points="154.9,141.4 139.8,150.1 139.8,132.7 154.9,124 		"/>
		<polygon class="st0" points="139.8,132.7 124.8,124 139.8,115.3 154.9,124 		"/>
		<polygon class="st3" points="139.8,132.7 124.8,124 124.8,124.8 139.8,133.5 154.9,124.8 154.3,124.4 		"/>
	</g>
	<g>
		<polygon class="st0" points="159.4,143.9 144.4,135.2 144.4,152.6 159.4,161.3 174.5,152.6 174.5,135.2 		"/>
		<polygon class="st0" points="159.4,161.3 144.4,152.6 144.4,135.2 159.4,143.9 		"/>
		<polygon class="st2" points="174.5,152.6 159.4,161.3 159.4,143.9 174.5,135.2 		"/>
		<polygon class="st0" points="159.4,143.9 144.4,135.2 159.4,126.5 174.5,135.2 		"/>
		<polygon class="st3" points="159.4,143.9 144.4,135.2 144.4,135.9 159.4,144.6 174.5,135.9 174.5,135.2 		"/>
	</g>
	<g>
		<polygon class="st0" points="159.4,74.6 144.4,65.9 144.4,83.3 159.4,92 174.5,83.3 174.5,65.9 		"/>
		<polygon class="st0" points="159.4,92 144.4,83.3 144.4,65.9 159.4,74.6 		"/>
		<polygon class="st2" points="174.5,83.3 159.4,92 159.4,74.6 174.5,65.9 		"/>
		<polygon class="st0" points="159.4,74.6 144.4,65.9 159.4,57.2 174.5,65.9 		"/>
		<polygon class="st3" points="159.4,74.6 145,66.3 144.4,66.7 159.4,75.4 174.5,66.7 173.8,66.3 		"/>
	</g>
	<g>
		<polygon class="st4" points="159.4,141.1 149.1,135.1 159.4,129.2 169.7,135.1 		"/>
		<polygon class="st4" points="139.8,129.9 129.6,124 139.8,118 150.1,124 		"/>
		<polygon class="st4" points="179,129.1 168.7,123.2 179,117.3 189.3,123.2 		"/>
		<polygon class="st4" points="198.6,117.3 188.3,111.4 198.6,105.5 208.9,111.4 		"/>
		<polygon class="st4" points="120.3,118.7 110,112.8 120.3,106.9 130.6,112.8 		"/>
	</g>
	<g>
		<polygon class="st0" points="179,85.8 163.9,77.1 163.9,94.5 179,103.2 194.1,94.5 194.1,77.1 		"/>
		<polygon class="st0" points="179,103.2 163.9,94.5 163.9,77.1 179,85.8 		"/>
		<polygon class="st2" points="194.1,94.5 179,103.2 179,85.8 194.1,77.1 		"/>
		<polygon class="st0" points="179,85.8 163.9,77.1 179,68.4 194.1,77.1 		"/>
		<polygon class="st3" points="179,85.8 164.6,77.5 163.9,77.8 179,86.5 194.1,77.8 193.4,77.5 		"/>
	</g>
	<g>
		<polygon class="st0" points="198.6,97 183.5,88.3 183.5,105.7 198.6,114.4 213.6,105.7 213.6,88.3 		"/>
		<polygon class="st0" points="198.6,114.4 183.5,105.7 183.5,88.3 198.6,97 		"/>
		<polygon class="st2" points="213.6,105.7 198.6,114.4 198.6,97 213.6,88.3 		"/>
		<polygon class="st0" points="198.6,97 183.5,88.3 198.6,79.6 213.6,88.3 		"/>
		<polygon class="st3" points="198.6,97 184.1,88.6 183.5,89 198.6,97.7 213.6,89 213.6,88.3 		"/>
	</g>
	<g>
		<polygon class="st0" points="139.8,86.5 124.8,77.8 124.8,95.2 139.8,103.9 154.9,95.2 154.9,77.8 		"/>
		<polygon class="st0" points="139.8,103.9 124.8,95.2 124.8,77.8 139.8,86.5 		"/>
		<polygon class="st2" points="154.9,95.2 139.8,103.9 139.8,86.5 154.9,77.8 		"/>
		<polygon class="st0" points="139.8,86.5 124.8,77.8 139.8,69.1 154.9,77.8 		"/>
		<polygon class="st3" points="139.8,86.5 125.4,78.2 124.8,78.6 139.8,87.3 154.9,78.6 154.3,78.2 		"/>
	</g>
	<g>
		<polygon class="st0" points="159.4,97.7 144.4,89 144.4,106.4 159.4,115.1 174.5,106.4 174.5,89 		"/>
		<polygon class="st0" points="159.4,115.1 144.4,106.4 144.4,89 159.4,97.7 		"/>
		<polygon class="st2" points="174.5,106.4 159.4,115.1 159.4,97.7 174.5,89 		"/>
		<polygon class="st0" points="159.4,97.7 144.4,89 159.4,80.3 174.5,89 		"/>
		<polygon class="st3" points="159.4,97.7 145,89.4 144.4,89.8 159.4,98.5 174.5,89.8 173.8,89.4 		"/>
	</g>
	<g>
		<polygon class="st0" points="179,108.9 163.9,100.2 163.9,117.6 179,126.3 194.1,117.6 194.1,100.2 		"/>
		<polygon class="st0" points="179,126.3 163.9,117.6 163.9,100.2 179,108.9 		"/>
		<polygon class="st2" points="194.1,117.6 179,126.3 179,108.9 194.1,100.2 		"/>
		<polygon class="st0" points="179,108.9 163.9,100.2 179,91.5 194.1,100.2 		"/>
		<polygon class="st3" points="179,108.9 164.6,100.6 163.9,100.9 179,109.6 194.1,100.9 194.1,100.2 		"/>
	</g>
	<g>
		<polygon class="st0" points="120.3,98.5 105.2,89.8 105.2,107.2 120.3,115.9 135.3,107.2 135.3,89.8 		"/>
		<polygon class="st0" points="120.3,115.9 105.2,107.2 105.2,89.8 120.3,98.5 		"/>
		<polygon class="st2" points="135.3,107.2 120.3,115.9 120.3,98.5 135.3,89.8 		"/>
		<polygon class="st0" points="120.3,98.5 105.2,89.8 120.3,81.1 135.3,89.8 		"/>
		<polygon class="st3" points="120.3,98.5 105.9,90.1 105.2,90.5 120.3,99.2 135.3,90.5 134.7,90.1 		"/>
	</g>
	<g>
		<polygon class="st0" points="139.8,109.6 124.8,100.9 124.8,118.3 139.8,127 154.9,118.3 154.9,100.9 		"/>
		<polygon class="st0" points="139.8,127 124.8,118.3 124.8,100.9 139.8,109.6 		"/>
		<polygon class="st2" points="154.9,118.3 139.8,127 139.8,109.6 154.9,100.9 		"/>
		<polygon class="st0" points="139.8,109.6 124.8,100.9 139.8,92.2 154.9,100.9 		"/>
		<polygon class="st3" points="139.8,109.6 124.8,100.9 124.8,101.7 139.8,110.4 154.9,101.7 154.3,101.3 		"/>
	</g>
	<g>
		<polygon class="st0" points="159.4,120.8 144.4,112.1 144.4,129.5 159.4,138.2 174.5,129.5 174.5,112.1 		"/>
		<polygon class="st0" points="159.4,138.2 144.4,129.5 144.4,112.1 159.4,120.8 		"/>
		<polygon class="st2" points="174.5,129.5 159.4,138.2 159.4,120.8 174.5,112.1 		"/>
		<polygon class="st0" points="159.4,120.8 144.4,112.1 159.4,103.4 174.5,112.1 		"/>
		<polygon class="st3" points="159.4,120.8 144.4,112.1 144.4,112.9 159.4,121.6 174.5,112.9 174.5,112.1 		"/>
	</g>
	<g>
		<polygon class="st4" points="198.6,94.4 188.3,88.4 198.6,82.5 208.9,88.4 		"/>
		<polygon class="st4" points="120.3,95.7 110,89.8 120.3,83.9 130.6,89.8 		"/>
	</g>
	<g>
		<polygon class="st0" points="159.4,51.5 144.4,42.8 144.4,60.2 159.4,68.9 174.5,60.2 174.5,42.8 		"/>
		<polygon class="st0" points="159.4,68.9 144.4,60.2 144.4,42.8 159.4,51.5 		"/>
		<polygon class="st2" points="174.5,60.2 159.4,68.9 159.4,51.5 174.5,42.8 		"/>
		<polygon class="st0" points="159.4,51.5 144.4,42.8 159.4,34.1 174.5,42.8 		"/>
		<polygon class="st3" points="159.4,51.5 144.4,42.8 144.4,43.6 159.4,52.3 174.5,43.6 174.5,42.8 		"/>
	</g>
	<g>
		<polygon class="st0" points="179,62.7 163.9,54 163.9,71.4 179,80.1 194.1,71.4 194.1,54 		"/>
		<polygon class="st0" points="179,80.1 163.9,71.4 163.9,54 179,62.7 		"/>
		<polygon class="st2" points="194.1,71.4 179,80.1 179,62.7 194.1,54 		"/>
		<polygon class="st0" points="179,62.7 163.9,54 179,45.3 194.1,54 		"/>
		<polygon class="st3" points="179,62.7 163.9,54 163.9,54.8 179,63.5 194.1,54.8 194.1,54 		"/>
	</g>
	<g>
		<polygon class="st0" points="198.6,73.9 183.5,65.2 183.5,82.6 198.6,91.3 213.6,82.6 213.6,65.2 		"/>
		<polygon class="st0" points="198.6,91.3 183.5,82.6 183.5,65.2 198.6,73.9 		"/>
		<polygon class="st2" points="213.6,82.6 198.6,91.3 198.6,73.9 213.6,65.2 		"/>
		<polygon class="st0" points="198.6,73.9 183.5,65.2 198.6,56.5 213.6,65.2 		"/>
		<polygon class="st3" points="198.6,73.9 183.5,65.2 183.5,65.9 198.6,74.6 213.6,65.9 213.6,65.2 		"/>
	</g>
	<g>
		<polygon class="st0" points="139.8,63.5 124.8,54.8 124.8,72.2 139.8,80.9 154.9,72.2 154.9,54.8 		"/>
		<polygon class="st0" points="139.8,80.9 124.8,72.2 124.8,54.8 139.8,63.5 		"/>
		<polygon class="st2" points="154.9,72.2 139.8,80.9 139.8,63.5 154.9,54.8 		"/>
		<polygon class="st0" points="139.8,63.5 124.8,54.8 139.8,46.1 154.9,54.8 		"/>
		<polygon class="st3" points="139.8,63.5 124.8,54.8 124.8,55.5 139.8,64.2 154.9,55.5 154.9,54.8 		"/>
	</g>
	<g>
		<polygon class="st0" points="120.3,75.4 105.2,66.7 105.2,84.1 120.3,92.8 135.3,84.1 135.3,66.7 		"/>
		<polygon class="st0" points="120.3,92.8 105.2,84.1 105.2,66.7 120.3,75.4 		"/>
		<polygon class="st2" points="135.3,84.1 120.3,92.8 120.3,75.4 135.3,66.7 		"/>
		<polygon class="st0" points="120.3,75.4 105.2,66.7 120.3,58 135.3,66.7 		"/>
		<polygon class="st3" points="120.3,75.4 105.2,66.7 105.2,67.4 120.3,76.1 135.3,67.4 135.3,66.7 		"/>
	</g>
</g>
<g>
	<path class="st19" d="M69.8,185.6c0,1.1,0.9,2,2,2c1.1,0,2-0.9,2-2c0-1.1-0.9-2-2-2C70.7,183.6,69.8,184.5,69.8,185.6z"/>
	<circle class="st0" cx="71.8" cy="185.6" r="0.9"/>
</g>
<g>
	<path class="st19" d="M249.6,92.9c0,1.1,0.9,2,2,2s2-0.9,2-2c0-1.1-0.9-2-2-2S249.6,91.8,249.6,92.9z"/>
	<path class="st0" d="M250.8,92.9c0,0.5,0.4,0.9,0.9,0.9c0.5,0,0.9-0.4,0.9-0.9c0-0.5-0.4-0.9-0.9-0.9
		C251.2,92,250.8,92.4,250.8,92.9z"/>
</g>
<g>
	<path class="st19" d="M308.9,220.2c0,1.1,0.9,2,2,2c1.1,0,2-0.9,2-2s-0.9-2-2-2C309.8,218.2,308.9,219.1,308.9,220.2z"/>
	<circle class="st0" cx="310.9" cy="220.2" r="0.9"/>
</g>
<g>
	<circle class="st19" cx="272.2" cy="227.4" r="3.2"/>
	<path class="st0" d="M270.8,227.4c0,0.8,0.6,1.4,1.4,1.4s1.4-0.6,1.4-1.4c0-0.8-0.6-1.4-1.4-1.4S270.8,226.7,270.8,227.4z"/>
</g>
<g>
	<path class="st19" d="M259.4,199.8c0,1.2,1,2.2,2.2,2.2s2.2-1,2.2-2.2c0-1.2-1-2.2-2.2-2.2S259.4,198.6,259.4,199.8z"/>
	<path class="st0" d="M260.7,199.8c0,0.5,0.4,0.9,0.9,0.9s0.9-0.4,0.9-0.9c0-0.5-0.4-0.9-0.9-0.9S260.7,199.2,260.7,199.8z"/>
</g>
<g>
	<path class="st19" d="M228,81.2c0,1.1,0.9,2,2,2s2-0.9,2-2c0-1.1-0.9-2-2-2S228,80.1,228,81.2z"/>
	<path class="st0" d="M229.1,81.2c0,0.5,0.4,0.9,0.9,0.9c0.5,0,0.9-0.4,0.9-0.9c0-0.5-0.4-0.9-0.9-0.9
		C229.5,80.3,229.1,80.7,229.1,81.2z"/>
</g>
<g>
	<path class="st19" d="M46.8,172.7c0,1.1,0.9,2,2,2c1.1,0,2-0.9,2-2s-0.9-2-2-2C47.7,170.7,46.8,171.6,46.8,172.7z"/>
	<path class="st0" d="M47.9,172.7c0,0.5,0.4,0.9,0.9,0.9c0.5,0,0.9-0.4,0.9-0.9s-0.4-0.9-0.9-0.9C48.3,171.8,47.9,172.2,47.9,172.7z
		"/>
</g>
</svg>
