<?xml version="1.0" encoding="utf-8"?>
<!-- Generator: Adobe Illustrator 23.0.1, SVG Export Plug-In . SVG Version: 6.00 Build 0)  -->
<svg version="1.1" id="Layer_1" xmlns="http://www.w3.org/2000/svg" xmlns:xlink="http://www.w3.org/1999/xlink" x="0px" y="0px"
	 viewBox="0 0 428 159" style="enable-background:new 0 0 428 159;" xml:space="preserve">
<style type="text/css">
	.st0{fill:#FFFFFF;}
	.st1{opacity:0.46;fill:#FFFFFF;enable-background:new    ;}
	.st2{fill:#262233;}
	.st3{opacity:0.46;fill:#262233;enable-background:new    ;}
	.st4{opacity:0.45;}
	.st5{fill:url(#SVGID_1_);}
	.st6{opacity:0.46;fill:url(#SVGID_2_);enable-background:new    ;}
	.st7{fill:#4AA4EB;}
</style>
<g id="OBJECTS">
	<g>
		<path class="st7" d="M101.7,90.2l-16.6-9.6v8.5l16.4,9.7l21.7-12v4.7l-21.8,12.1L80.9,91.5V56.6l-5.3,3c-2.6,1.5-4.1,4.2-4.1,7.1
			l-0.1,25.4c0,2.9,1.5,5.7,4.1,7.1L97.4,112c2.5,1.5,5.7,1.5,8.2,0l22.1-12.6c2.6-1.5,4.1-4.2,4.1-7.1l0.1-20.1L101.7,90.2z"/>
		<path class="st7" d="M112.5,51l-6.6-3.9c-2.5-1.5-5.7-1.5-8.2,0l-12.5,7.1v12.9L112.5,51z"/>
		<path class="st7" d="M85.2,75.7l16.6,9.6L132,67.5v-0.3c0-2.9-1.5-5.6-4-7.1l-26.3,15.5l-4.4-2.4l26.5-15.6l-7-4.1L85.2,72.1V75.7
			z"/>
	</g>
</g>
<g>
	<path class="st7" d="M177.8,65.3v5.5H169v23.1h-6.4V70.7h-8.7v-5.5H177.8z"/>
	<path class="st7" d="M203,65.3v5.3h-15.3v6.2h13.8v5.3h-13.8v6.3h15.8v5.3h-22.2V65.3H203z"/>
	<path class="st7" d="M221.8,70.7c-4.9,0-8.7,3.8-8.7,8.8c0,5,3.8,8.8,8.7,8.8c2.6,0,5.4-1.3,7.4-3.3L233,89
		c-3,3.1-7.4,5.1-11.6,5.1c-8.5,0-15-6.3-15-14.6c0-8.2,6.6-14.4,15.2-14.4c4.1,0,8.4,1.8,11.3,4.7l-3.8,4.6
		C227.2,72.1,224.4,70.7,221.8,70.7z"/>
	<path class="st7" d="M243.3,65.3v11.9h12.9V65.3h6.4v28.6h-6.4V82.6h-12.9v11.3h-6.4V65.3H243.3z"/>
	<path class="st7" d="M275.4,65.3v22.9h12.2v5.6H269V65.3H275.4z"/>
	<path class="st7" d="M310.5,88.3h-13.2l-2.2,5.6h-6.7l12.4-28.6h6.7l12.2,28.6h-6.9L310.5,88.3z M308.4,83.1L303.9,72l-4.5,11.1
		H308.4z"/>
	<path class="st7" d="M346,72.4c0,3.1-1.9,5.5-4.9,6.3c3.7,0.7,6,3.5,6,7.2c0,4.9-4.1,7.9-10.8,7.9h-13.6V65.3h13.1
		C342.1,65.3,346,68,346,72.4z M339.4,73.6c0-2-1.5-3.1-3.9-3.1h-6.4v6.2h6.4C337.9,76.8,339.4,75.6,339.4,73.6z M340.4,85.1
		c0-2.1-1.8-3.3-4.9-3.3h-6.4v6.8h6.4C338.5,88.6,340.4,87.3,340.4,85.1z"/>
</g>
</svg>
