<?xml version="1.0" encoding="utf-8"?>
<!-- Generator: Adobe Illustrator 23.0.1, SVG Export Plug-In . SVG Version: 6.00 Build 0)  -->
<svg version="1.1" id="_x30_" xmlns="http://www.w3.org/2000/svg" xmlns:xlink="http://www.w3.org/1999/xlink" x="0px" y="0px"
	 viewBox="0 0 225 179.9" style="enable-background:new 0 0 225 179.9;" xml:space="preserve">
<style type="text/css">
	.st0{opacity:0.4;fill:#500393;}
	.st1{opacity:0.6;clip-path:url(#SVGID_2_);fill:#55128A;}
	.st2{fill:#BA7EEE;}
	.st3{fill:#6687FF;}
	.st4{fill:#B833FF;}
	.st5{opacity:0.5;fill:#8C28DA;}
	.st6{fill:#FFFFF7;}
	.st7{fill:#FFD2FF;}
	.st8{fill:#373A4C;}
	.st9{enable-background:new    ;}
	.st10{fill:url(#SVGID_3_);}
	.st11{fill:url(#SVGID_4_);}
	.st12{fill:url(#SVGID_5_);}
	.st13{fill:url(#SVGID_6_);}
	.st14{fill:url(#SVGID_7_);}
	.st15{fill:url(#SVGID_8_);}
	.st16{fill:#282A35;}
	.st17{fill:#1E1F27;}
	.st18{fill:#333644;}
	.st19{fill:#2E313D;}
	.st20{fill:url(#Cylinder_body_1_);}
	.st21{fill:#B33EFF;}
	.st22{fill:url(#Cylinder_body_2_);}
	.st23{fill:#3E31A4;}
	.st24{fill:url(#SVGID_9_);}
	.st25{fill:#252734;}
	.st26{fill:#181A23;}
	.st27{opacity:0.9;}
	.st28{fill:#120C0C;}
	.st29{fill:url(#SVGID_10_);}
	.st30{fill:#8B3DCE;}
	.st31{fill:url(#SVGID_11_);}
	.st32{opacity:0.1;fill:#EFF6F6;}
	.st33{opacity:0.2;fill:#EFF6F6;}
	.st34{clip-path:url(#SVGID_13_);fill:#AD852C;}
	.st35{fill:#604CF6;}
	.st36{opacity:0.6;fill:#FFD4FF;}
	.st37{fill:#2D2987;}
	.st38{fill:#44E0F0;}
	.st39{fill:#B879D9;}
	.st40{fill:url(#SVGID_14_);}
	.st41{fill:#FFC9FF;}
	.st42{fill:#F9B6FF;}
	.st43{fill:#CB89F0;}
	.st44{fill:url(#SVGID_15_);}
</style>
<ellipse class="st0" cx="112.5" cy="120.4" rx="84.3" ry="48.7"/>
<g>
	<defs>
		<ellipse id="SVGID_1_" cx="112.5" cy="108.2" rx="84.3" ry="48.7"/>
	</defs>
	<use xlink:href="#SVGID_1_"  style="overflow:visible;fill:#750CBF;"/>
	<clipPath id="SVGID_2_">
		<use xlink:href="#SVGID_1_"  style="overflow:visible;"/>
	</clipPath>
	<path class="st1" d="M37.3,73.8c-0.5,0-34.8,38.3-34.5,38.3h39.5l14.5-29.6L37.3,73.8z"/>
	<path class="st1" d="M170.4,116.4L113,83.3c-1.5-0.9-3.5-1.3-5.5-1.3l-6.9,0c-2.1,0-4.2,0.4-5.7,1.3l-30.6,17.7
		c-3.1,1.8-3.1,4.6,0,6.4l57.4,33.1c1.6,0.9,3.6,1.3,5.6,1.3l7,0c2,0,4-0.4,5.5-1.3l30.6-17.7C173.4,121,173.5,118.2,170.4,116.4z"
		/>
	<path class="st1" d="M60.3,110.1c2,0.5,42.1,25.1,50.9,30.9c6.5,4.2,9.4,6.4,11.2,7.9c0,0,0.1,0.1,0.2,0.2l1.7,1.3
		c0,0-0.1,0-0.2-0.1c0.1,0,0.1,0,0.2,0.1c0.2,0.1,0.2,0.3,0.3,0.5c0.5,0.4,1.3,1.2,1.5,1.4c0.2,0.2,0.3,0.3,0.3,0.4
		c0.1,0.2-0.1,0.3-0.1,0.3c-0.2,0.1-0.3,0-0.6-0.1c-0.3-0.1-1.4-0.4-2-0.6c-0.2,0.1-0.4,0.1-0.5,0c-0.2-0.1-0.2-0.1,0,0l-2-0.8
		c0,0-0.2-0.1-0.3-0.1c-0.3-0.1-0.7-0.3-1.2-0.5c-1.6-0.6-4.1-1.8-9.1-4.4c-4.7-2.5-11.7-6.2-22-12.1c-1-0.6-33.6-19.9-34.6-20.4
		C51.7,112.9,57.9,108.8,60.3,110.1z"/>
</g>
<g>
	<g id="_x37__2_">
		<g>
			<path class="st2" d="M97.8,59.2l-38,21.9V64.9l34.7-20c1.8-1.1,3.3-0.4,3.3,1.4V59.2z"/>
			<g>
				<g>
					<polygon class="st3" points="92,60.9 52.9,83.5 52.9,53.4 92,30.8 					"/>
					<polygon class="st4" points="92,31 52.9,53.6 52.9,49.9 92,27.2 					"/>
				</g>
				<g>
					<polygon class="st5" points="86.1,33.6 84,34.8 84,32.7 86.1,31.5 					"/>
					<polygon class="st5" points="88.7,32.1 86.6,33.3 86.6,31.2 88.7,29.9 					"/>
					<path class="st6" d="M86.9,31.3v1.4l1.4-0.8v-1.4L86.9,31.3z M88.1,31.8l-0.9,0.5v-0.9l0.9-0.5V31.8z"/>
					<polygon class="st5" points="91.3,30.5 89.2,31.8 89.2,29.7 91.3,28.4 					"/>
					<polygon class="st6" points="89.5,30 90.1,30.2 89.5,31.1 89.7,31.2 90.3,30.3 90.8,30.5 91,30.2 90.5,30 91,29.1 90.8,29 
						90.3,29.9 89.7,29.7 					"/>
					<polygon class="st6" points="85.7,33.4 84.4,34.2 84.4,34 85.7,33.2 					"/>
				</g>
				<path class="st6" d="M67.3,50.5v0.4l3.1-1.8v-0.4L67.3,50.5z M66.9,52.8l5.6-3.2v-0.4l-5.6,3.2V52.8z M72.6,54l3.1-1.8v-0.4
					l-3.1,1.8V54z M70.2,57.1l5.6-3.2v-0.4l-5.6,3.2V57.1z M77.7,48.9L73,51.6v0.4l4.7-2.7V48.9z M77.6,42.8l-4.7,2.7v0.4l4.7-2.7
					V42.8z M66.4,49.3l-8,4.6v0.4l8-4.6V49.3z M80.6,41.1l-2.5,1.4V43l2.5-1.4V41.1z M66.9,50.7l-8.4,4.9V56l8.4-4.9V50.7z
					 M72.5,45.8L66.9,49v0.4l5.6-3.2V45.8z M76.3,53.6l4.7-2.7v-0.4l-4.7,2.7V53.6z M84.6,38.8L81,40.9v0.4l3.6-2.1V38.8z
					 M85.1,40.2l-5.2,3v0.4l5.2-3V40.2z M78.1,46.4l5.2-3V43l-5.2,3V46.4z M83.7,45.5v0.4l3-1.7v-0.4L83.7,45.5z M79.1,50.3l5.7-3.3
					v-0.4l-5.7,3.3V50.3z M58.4,57.7l8-4.6v-0.4l-8,4.6V57.7z M64.9,58.4l7.2-4.1v-0.4L64.9,58V58.4z M64.5,58.7v-0.4l-6,3.5v0.4
					L64.5,58.7z M58.4,60.5l8-4.6v-0.4l-8,4.6V60.5z M66.9,55.6l5.6-3.2v-0.4l-5.6,3.2V55.6z M70.9,48.8l2.5-1.4V47l-2.5,1.4V48.8z
					 M83.2,45.7l-5.2,3v0.4l5.2-3V45.7z M76.1,52l2.5-1.4v-0.4l-2.5,1.4V52z M69.8,56.9l-11.3,6.5v0.4l11.3-6.5V56.9z M79.5,43.4
					l-5.7,3.3v0.4l5.7-3.3V43.4z M73,49.3l4.7-2.7v-0.4L73,48.9V49.3z"/>
			</g>
			<path class="st7" d="M68.6,65.8c-0.6,0.4-1.4,0.3-1.9-0.3l-4.5-4.5c-0.8-0.8-2.3-0.8-3.8,0.1l-13.8,7.9c-2.1,1.2-3.7,3.8-3.7,5.9
				v35.4c0,1.6,1.3,2.2,2.9,1.2l51.2-29.6c1.6-0.9,2.9-3,2.9-4.6l0-28.6L68.6,65.8z"/>
		</g>
	</g>
	<g>
		<path class="st8" d="M58.6,70.6l-13.4,7.7c-0.2,0.1-0.3,0.1-0.3-0.1v-4c0-0.2,0.2-0.5,0.4-0.6l13.4-7.7c0.2-0.1,0.3-0.1,0.3,0.1v4
			C59,70.2,58.8,70.5,58.6,70.6z"/>
	</g>
</g>
<g class="st9">
	
		<linearGradient id="SVGID_3_" gradientUnits="userSpaceOnUse" x1="57.9175" y1="35.3253" x2="52.6747" y2="44.406" gradientTransform="matrix(-1 0 0 1 195.6085 0)">
		<stop  offset="0" style="stop-color:#F5ABFF"/>
		<stop  offset="0.2522" style="stop-color:#EBA3F9"/>
		<stop  offset="0.684" style="stop-color:#CF8DE8"/>
		<stop  offset="1" style="stop-color:#B779D9"/>
	</linearGradient>
	<path class="st10" d="M139.8,34.1c2.1-1.2,5-1.1,8.2,0.7c1.7,1,3.3,2.3,4.7,3.9l-11.8,6.9c-1.4-1.6-3-2.9-4.7-3.9
		c-3.2-1.8-6.1-2-8.2-0.8L139.8,34.1z"/>
	
		<linearGradient id="SVGID_4_" gradientUnits="userSpaceOnUse" x1="45.0373" y1="39.0743" x2="42.9176" y2="42.7457" gradientTransform="matrix(-1 0 0 1 195.6085 0)">
		<stop  offset="0" style="stop-color:#F5ABFF"/>
		<stop  offset="0.2522" style="stop-color:#EBA3F9"/>
		<stop  offset="0.684" style="stop-color:#CF8DE8"/>
		<stop  offset="1" style="stop-color:#B779D9"/>
	</linearGradient>
	<path class="st11" d="M154.3,36.9c1.4-0.8,3.3-0.7,5.5,0.5c0.3,0.2,0.6,0.4,1,0.6l-11.8,6.9c-0.3-0.2-0.6-0.4-1-0.6
		c-2.1-1.2-4.1-1.3-5.5-0.5L154.3,36.9z"/>
	
		<linearGradient id="SVGID_5_" gradientUnits="userSpaceOnUse" x1="34.3725" y1="33.6823" x2="23.3051" y2="52.8515" gradientTransform="matrix(-1 0 0 1 195.6085 0)">
		<stop  offset="0" style="stop-color:#FFD2FF"/>
		<stop  offset="0.199" style="stop-color:#FFCAFF"/>
		<stop  offset="0.4754" style="stop-color:#FFC5FF"/>
		<stop  offset="1" style="stop-color:#F5ABFF"/>
	</linearGradient>
	<path class="st12" d="M163.7,32.2c1.8-1,4.2-0.9,6.9,0.6c4.9,2.8,8.9,9.4,9.6,15.4l-11.8,6.9c-0.7-6-4.7-12.5-9.6-15.4
		c-2.7-1.5-5.1-1.7-6.9-0.6L163.7,32.2z"/>
	
		<linearGradient id="SVGID_6_" gradientUnits="userSpaceOnUse" x1="19.0623" y1="50.3572" x2="7.386" y2="70.5811" gradientTransform="matrix(-1 0 0 1 195.6085 0)">
		<stop  offset="0" style="stop-color:#FFD2FF"/>
		<stop  offset="0.199" style="stop-color:#FFCAFF"/>
		<stop  offset="0.4754" style="stop-color:#FFC5FF"/>
		<stop  offset="1" style="stop-color:#F5ABFF"/>
	</linearGradient>
	<path class="st13" d="M180.2,48.2c1.2,0.1,2.6,0.5,4,1.4c5.5,3.1,9.9,10.7,10.3,17.3l-11.8,6.9c-0.4-6.6-4.8-14.2-10.3-17.3
		c-1.4-0.8-2.8-1.3-4-1.4L180.2,48.2z"/>
	
		<linearGradient id="SVGID_7_" gradientUnits="userSpaceOnUse" x1="6.5607" y1="70.06" x2="-6.9772" y2="93.5083" gradientTransform="matrix(-1 0 0 1 195.6085 0)">
		<stop  offset="0" style="stop-color:#FFD2FF"/>
		<stop  offset="0.199" style="stop-color:#FFCAFF"/>
		<stop  offset="0.4754" style="stop-color:#FFC5FF"/>
		<stop  offset="1" style="stop-color:#F5ABFF"/>
	</linearGradient>
	<path class="st14" d="M194.5,66.9c1.1,0.1,2.3,0.5,3.6,1.3c5.4,3.1,9.8,10.9,9.8,17.3c0,3.3-1.2,5.6-3,6.6L193,99
		c1.8-1.1,3-3.4,3-6.6c0-6.5-4.3-14.2-9.8-17.3c-1.3-0.7-2.5-1.1-3.6-1.3L194.5,66.9z"/>
	<linearGradient id="SVGID_8_" gradientUnits="userSpaceOnUse" x1="173.1259" y1="48.0143" x2="154.537" y2="80.2111">
		<stop  offset="0" style="stop-color:#C579E9"/>
		<stop  offset="1" style="stop-color:#8B3DCE"/>
	</linearGradient>
	<path class="st15" d="M136.1,41.7c1.7,1,3.3,2.3,4.7,3.9c1.3-2.5,4-3.2,7.1-1.3c0.3,0.2,0.6,0.4,1,0.6c0.4-5.8,4.7-8.2,9.8-5.2
		c4.9,2.8,8.9,9.4,9.6,15.4c1.2,0.1,2.6,0.5,4,1.4c5.5,3.1,9.9,10.7,10.3,17.3c1.1,0.1,2.3,0.5,3.6,1.3c5.4,3.1,9.8,10.9,9.8,17.3
		c0,6.4-4.5,9.1-9.9,6L136,69.5c-6.5-3.7-11.6-12.9-11.6-20.6C124.4,41.2,129.7,38,136.1,41.7z"/>
</g>
<g>
	<polygon class="st16" points="170.2,85.9 177.9,90.4 177.9,85.3 170.2,80.9 	"/>
	<g>
		<g>
			<g>
				<g class="st9">
					<path class="st17" d="M172.7,89.5l0-1.2l3.3-1.9l0,1.2c0,0.1,0,0.1-0.1,0.2l-3.3,1.9C172.7,89.6,172.7,89.6,172.7,89.5z"/>
					<path class="st18" d="M172.2,84c0,0,0.1,0,0.2,0l3.3,1.9l-3.3,1.9l-3.3-1.9c-0.1,0-0.1,0-0.2,0L172.2,84z"/>
					<path class="st19" d="M175.7,85.9c0.2,0.1,0.3,0.3,0.3,0.5l-3.3,1.9c0-0.2-0.1-0.4-0.3-0.5L175.7,85.9z"/>
					<path class="st16" d="M168.9,86.1c0-0.2,0.1-0.2,0.3-0.2l3.3,1.9c0.2,0.1,0.3,0.3,0.3,0.5l0,1.2c0,0.2-0.1,0.2-0.3,0.2
						l-3.3-1.9c-0.2-0.1-0.3-0.3-0.3-0.5L168.9,86.1z"/>
				</g>
				<g id="Axonometric_Cylinder_9_">
					<path id="Cylinder_face_45_" class="st16" d="M169.9,87.5c-0.4-0.2-0.7,0-0.7,0.4c0,0.4,0.3,1,0.7,1.2c0.4,0.2,0.7,0,0.7-0.4
						C170.6,88.3,170.3,87.7,169.9,87.5z"/>
					
						<linearGradient id="Cylinder_body_1_" gradientUnits="userSpaceOnUse" x1="-58.177" y1="-181.9572" x2="-57.1809" y2="-180.2319" gradientTransform="matrix(0.5 -0.866 -0.866 -0.5 42.5647 -52.5696)">
						<stop  offset="0" style="stop-color:#1E1F27"/>
						<stop  offset="0.3648" style="stop-color:#21232B"/>
						<stop  offset="0.766" style="stop-color:#2B2D39"/>
						<stop  offset="1" style="stop-color:#333644"/>
					</linearGradient>
					<path id="Cylinder_body_42_" class="st20" d="M170.4,89.2l0.9-0.5c0.1-0.1,0.2-0.2,0.2-0.5c0-0.4-0.3-1-0.7-1.2
						c-0.2-0.1-0.4-0.1-0.5-0.1l-0.9,0.5c0.1-0.1,0.3-0.1,0.5,0.1c0.4,0.2,0.7,0.8,0.7,1.2C170.6,89,170.5,89.1,170.4,89.2z"/>
				</g>
			</g>
		</g>
		<path class="st21" d="M147.3,116.3l16.3-9.4c0.9-0.5,1.5-1.5,1.5-2.6V92.5c0-1.2,0.6-2.3,1.6-2.8l2.8-1.6c0.3-0.2,0.8,0.6,0.4,0.8
			l-2.8,1.6c-0.7,0.4-1.2,1.2-1.2,2.1v11.8c0,1.4-0.7,2.7-1.9,3.3l-16.3,9.4c-0.1,0-0.1,0.1-0.2,0.1c-0.2,0-0.3-0.1-0.4-0.2
			C147,116.7,147.1,116.4,147.3,116.3z"/>
	</g>
</g>
<g>
	<polygon class="st16" points="179.7,91.4 187.4,95.8 187.4,90.8 179.7,86.4 	"/>
	<g>
		<g>
			<g>
				<g class="st9">
					<path class="st17" d="M182.1,95l0-1.2l3.3-1.9l0,1.2c0,0.1,0,0.1-0.1,0.2l-3.3,1.9C182.1,95.1,182.1,95,182.1,95z"/>
					<path class="st18" d="M181.7,89.5c0,0,0.1,0,0.2,0l3.3,1.9l-3.3,1.9l-3.3-1.9c-0.1,0-0.1,0-0.2,0L181.7,89.5z"/>
					<path class="st19" d="M185.2,91.4c0.2,0.1,0.3,0.3,0.3,0.5l-3.3,1.9c0-0.2-0.1-0.4-0.3-0.5L185.2,91.4z"/>
					<path class="st16" d="M178.3,91.5c0-0.2,0.1-0.2,0.3-0.2l3.3,1.9c0.2,0.1,0.3,0.3,0.3,0.5l0,1.2c0,0.2-0.1,0.2-0.3,0.2
						l-3.3-1.9c-0.2-0.1-0.3-0.3-0.3-0.5L178.3,91.5z"/>
				</g>
				<g id="Axonometric_Cylinder_7_">
					<path id="Cylinder_face_43_" class="st16" d="M179.3,93c-0.4-0.2-0.7,0-0.7,0.4c0,0.4,0.3,1,0.7,1.2c0.4,0.2,0.7,0,0.7-0.4
						C180,93.7,179.7,93.2,179.3,93z"/>
					
						<linearGradient id="Cylinder_body_2_" gradientUnits="userSpaceOnUse" x1="-58.1769" y1="-192.8774" x2="-57.1808" y2="-191.1521" gradientTransform="matrix(0.5 -0.866 -0.866 -0.5 42.5647 -52.5696)">
						<stop  offset="0" style="stop-color:#1E1F27"/>
						<stop  offset="0.3648" style="stop-color:#21232B"/>
						<stop  offset="0.766" style="stop-color:#2B2D39"/>
						<stop  offset="1" style="stop-color:#333644"/>
					</linearGradient>
					<path id="Cylinder_body_40_" class="st22" d="M179.8,94.7l0.9-0.5c0.1-0.1,0.2-0.2,0.2-0.5c0-0.4-0.3-1-0.7-1.2
						c-0.2-0.1-0.4-0.1-0.5-0.1l-0.9,0.5c0.1-0.1,0.3-0.1,0.5,0.1c0.4,0.2,0.7,0.8,0.7,1.2C180,94.4,179.9,94.6,179.8,94.7z"/>
				</g>
			</g>
		</g>
		<path class="st21" d="M156.8,121.8l16.3-9.4c0.9-0.5,1.5-1.5,1.5-2.6V98c0-1.2,0.6-2.3,1.6-2.8l2.8-1.6c0.3-0.2,0.8,0.6,0.4,0.8
			l-2.8,1.6c-0.7,0.4-1.2,1.2-1.2,2.1v11.8c0,1.4-0.7,2.7-1.9,3.3l-16.3,9.4c-0.1,0-0.1,0.1-0.2,0.1c-0.2,0-0.3-0.1-0.4-0.2
			C156.5,122.2,156.5,121.9,156.8,121.8z"/>
	</g>
</g>
<g>
	<g>
		<g>
			<path class="st23" d="M166,118l-33.5,19.4c-0.5,0.3-1.2,0.3-1.7,0l-62.8-36.2c-1.1-0.7-2.6-2.3-0.8-4.2l31.1-18.2
				c2.1-1.2,5.1-2,7.4-1.7c1.1,0.1,2.4,0.4,3,0.7l58.8,33.9C170,113.1,168.4,116.6,166,118z"/>
			<linearGradient id="SVGID_9_" gradientUnits="userSpaceOnUse" x1="130.0035" y1="120.0464" x2="140.8393" y2="120.0464">
				<stop  offset="0" style="stop-color:#8B3DCE"/>
				<stop  offset="1" style="stop-color:#CB89F0"/>
			</linearGradient>
			<path class="st24" d="M173,116.2c0,1.2-0.8,2.3-2.3,3.2l-30.6,17.7c-3.1,1.8-8,1.8-11.1,0l-60.8-35.1c-1.5-0.9-2.3-2-2.3-3.2
				l0,2.8c0,1.2,0.8,2.3,2.3,3.2l60.8,35.1c3,1.8,8,1.8,11.1,0l30.6-17.7c1.5-0.9,2.3-2.1,2.3-3.2L173,116.2z"/>
			<path class="st25" d="M170.7,113.1L109.9,78c-3-1.8-8-1.8-11.1,0L68.3,95.7c-3.1,1.8-3.1,4.6,0,6.4l60.8,35.1c3,1.8,8,1.8,11.1,0
				l30.6-17.7C173.8,117.7,173.8,114.8,170.7,113.1z M128.1,135.5l-60.3-34.8c-1.4-0.8-1.4-2.9,0-3.8l7-4l5.6-0.7l12.7-7.4l2.1-3.8
				l4.3-2.5c3.1-1.8,6.9-1.8,9.9,0l58.2,33.6c0.5,0.3,0.5,1,0,1.3l-38.1,22C129.1,135.7,128.5,135.7,128.1,135.5z"/>
			<path class="st26" d="M156.6,124.3l-1.4-0.8c-0.7-0.4-1.9-0.4-2.7,0.1l-5,2.9c-0.3,0.2-0.5,0.3-0.6,0.6c-0.3,0.5-0.1,1,0.4,1.3
				l1.4,0.8c0.7,0.4,1.9,0.4,2.7-0.1l5-2.9c0.3-0.2,0.5-0.3,0.6-0.6C157.3,125.1,157.2,124.6,156.6,124.3z"/>
			<g class="st27">
				<path class="st25" d="M156.6,124.8l-1.4-0.8c-0.7-0.4-1.9-0.4-2.7,0.1l-5,2.9c-0.3,0.2-0.5,0.3-0.6,0.6c0,0.1-0.1,0.1-0.1,0.2
					c0.1,0.2,0.2,0.4,0.5,0.6l1.4,0.8c0.7,0.4,1.9,0.4,2.7-0.1l5-2.9c0.3-0.2,0.5-0.3,0.6-0.6c0-0.1,0.1-0.1,0.1-0.2
					C157.1,125.1,156.9,124.9,156.6,124.8z"/>
			</g>
			<path class="st28" d="M88.2,85.4L82,88.9c-0.3,0.2-0.3,0.4-0.1,0.6c0.3,0.2,0.7,0.1,1,0l6.2-3.6c0.3-0.2,0.3-0.4,0.1-0.6
				C89,85.2,88.5,85.2,88.2,85.4z"/>
			<g>
				<g>
					<linearGradient id="SVGID_10_" gradientUnits="userSpaceOnUse" x1="74.2466" y1="105.0654" x2="77.8402" y2="111.2898">
						<stop  offset="0.6207" style="stop-color:#FFBFFF"/>
						<stop  offset="0.8638" style="stop-color:#E09CFF"/>
						<stop  offset="1" style="stop-color:#CB89F0"/>
					</linearGradient>
					<path class="st29" d="M79.1,109.6c-0.1-0.2-0.1-0.3-0.2-0.4c-0.1-0.2-0.2-0.3-0.4-0.4l-5.1-2.9c-0.2-0.1-0.4-0.1-0.5,0
						l-0.5,0.3c0.1-0.1,0.3-0.1,0.5,0L78,109c0.1,0.1,0.3,0.2,0.4,0.4c0.1,0.1,0.2,0.3,0.2,0.4c0,0.1,0.1,0.3,0.1,0.4v0.2
						c0,0.2-0.1,0.4-0.2,0.4l0.5-0.3c0.1-0.1,0.2-0.2,0.2-0.4v-0.2C79.2,109.8,79.2,109.7,79.1,109.6z"/>
					<path class="st30" d="M78,109l-5.1-2.9c-0.4-0.2-0.7,0-0.7,0.4v0.2c0,0.4,0.3,1,0.7,1.2l5.1,2.9c0.4,0.2,0.7,0,0.7-0.4v-0.2
						C78.7,109.8,78.4,109.3,78,109z"/>
				</g>
				<g>
					<linearGradient id="SVGID_11_" gradientUnits="userSpaceOnUse" x1="81.9547" y1="109.5157" x2="85.5482" y2="115.74">
						<stop  offset="0.6207" style="stop-color:#FFBFFF"/>
						<stop  offset="0.8638" style="stop-color:#E09CFF"/>
						<stop  offset="1" style="stop-color:#CB89F0"/>
					</linearGradient>
					<path class="st31" d="M86.9,114c-0.1-0.2-0.1-0.3-0.2-0.4c-0.1-0.2-0.2-0.3-0.4-0.4l-5.1-2.9c-0.2-0.1-0.4-0.1-0.5,0l-0.5,0.3
						c0.1-0.1,0.3-0.1,0.5,0l5.1,2.9c0.1,0.1,0.3,0.2,0.4,0.4c0.1,0.1,0.2,0.3,0.2,0.4c0,0.1,0.1,0.3,0.1,0.4v0.2
						c0,0.2-0.1,0.4-0.2,0.4l0.5-0.3c0.1-0.1,0.2-0.2,0.2-0.4v-0.2C86.9,114.3,86.9,114.1,86.9,114z"/>
					<path class="st30" d="M85.7,113.5l-5.1-2.9c-0.4-0.2-0.7,0-0.7,0.4v0.2c0,0.4,0.3,1,0.7,1.2l5.1,2.9c0.4,0.2,0.7,0,0.7-0.4
						v-0.2C86.4,114.2,86.1,113.7,85.7,113.5z"/>
				</g>
			</g>
			<g>
				<g>
					<path class="st28" d="M79.6,91.5c-0.3,0.2-0.9,0.2-1.2,0c-0.3-0.2-0.3-0.5,0-0.7c0.3-0.2,0.9-0.2,1.2,0
						C80,91,80,91.3,79.6,91.5z"/>
				</g>
				<g>
					<path class="st32" d="M78.6,91.4c0.3,0.1,0.7,0.1,0.9,0c0.2-0.2,0.2-0.4,0-0.5c-0.3-0.1-0.7-0.1-0.9,0
						C78.3,91,78.3,91.3,78.6,91.4z"/>
					<path class="st32" d="M78.8,91.3c0.1,0.1,0.4,0.1,0.5,0c0.1-0.1,0.1-0.2,0-0.3c-0.1-0.1-0.4-0.1-0.5,0
						C78.6,91.1,78.6,91.2,78.8,91.3z"/>
					<path class="st33" d="M78.9,91.2c0.1,0,0.1,0,0.2,0c0.1,0,0-0.1,0-0.1c-0.1,0-0.1,0-0.2,0C78.9,91.1,78.9,91.1,78.9,91.2z"/>
				</g>
			</g>
			<g>
				<g>
					<defs>
						<path id="SVGID_12_" d="M156.5,129.9l-3.6,2.1c-0.4,0.2-0.8,0.1-0.8-0.3c0-0.4,0.3-1,0.8-1.2l3.6-2.1c0.4-0.2,0.8-0.1,0.8,0.3
							C157.2,129.1,156.9,129.6,156.5,129.9z"/>
					</defs>
					<use xlink:href="#SVGID_12_"  style="overflow:visible;fill:#313440;"/>
					<clipPath id="SVGID_13_">
						<use xlink:href="#SVGID_12_"  style="overflow:visible;"/>
					</clipPath>
					<path class="st34" d="M151.5,130.4l-0.5,0.3l1.8,1l0.5-0.3L151.5,130.4z M152.6,129.8l-0.5,0.3l1.8,1l0.5-0.3L152.6,129.8z
						 M153.7,129.2l-0.5,0.3l1.8,1l0.5-0.3L153.7,129.2z M154.8,128.5l-0.5,0.3l1.8,1l0.5-0.3L154.8,128.5z"/>
				</g>
			</g>
		</g>
	</g>
	<g>
		<g>
			<polygon class="st23" points="162,111.6 127,131.7 79.7,104.4 114.7,84.3 			"/>
			<polygon class="st35" points="114.9,84.4 79.9,104.5 76.2,102.4 111.1,82.2 			"/>
		</g>
		<g>
			<polygon class="st23" points="162,103.7 127,123.9 79.7,96.6 114.7,76.4 			"/>
			<polygon class="st35" points="114.9,76.5 79.9,96.7 76.2,94.5 111.1,74.4 			"/>
		</g>
		<g>
			<g>
				<polygon class="st36" points="162,96 127,116.1 79.7,88.8 114.7,68.6 				"/>
				<polygon class="st4" points="114.9,68.8 79.9,88.9 76.2,86.8 111.1,66.6 				"/>
			</g>
			<path class="st6" d="M133.6,85.7l-3.1,1.8l-0.4-0.2l3.1-1.8L133.6,85.7z M133.7,87.1l-3.5,2l0.4,0.2l3.5-2L133.7,87.1z
				 M133.1,89.3l-2.7,1.6l0.4,0.2l2.7-1.6L133.1,89.3z M125.6,90.3l4.5-2.6l-0.4-0.2l-4.5,2.6L125.6,90.3z M129.8,89.3l-2.3,1.3
				l0.4,0.2l2.3-1.3L129.8,89.3z M119.8,93.7l5.3-3.1l-0.4-0.2l-5.3,3.1L119.8,93.7z M127.1,90.9l-5.3,3l0.4,0.2l5.3-3L127.1,90.9z
				 M130,91.1l-3,1.7l0.4,0.2l3-1.7L130,91.1z M124.7,88.9l5.4-3.1l-0.4-0.2l-5.4,3.1L124.7,88.9z M131.7,84.4l-1.6,0.9l0.4,0.2
				l1.6-0.9L131.7,84.4z M129.7,93.9l-2.4,1.4l0.4,0.2l2.4-1.4L129.7,93.9z M140.2,89.7l-3.4,2l0.4,0.2l3.4-2L140.2,89.7z
				 M138.9,88.6l-3,1.7l0.4,0.2l3-1.7L138.9,88.6z M133.6,93.6l-4.5,2.6l0.4,0.2l4.5-2.6L133.6,93.6z M129.3,98.5l2.4-1.4l-0.4-0.2
				l-2.4,1.4L129.3,98.5z M136.4,91.9l-2.4,1.4l0.4,0.2l2.4-1.4L136.4,91.9z M137,93.5l-5.4,3.1l0.4,0.2l5.4-3.1L137,93.5z
				 M135.5,90.5l-5.4,3.1l0.4,0.2l5.4-3.1L135.5,90.5z M123.9,88.9l-2.4,1.4l0.4,0.2l2.4-1.4L123.9,88.9z M127.3,95.7l-0.4-0.2
				l-3,1.7l0.4,0.2L127.3,95.7z M126.6,93.1l-6.8,3.9l0.4,0.2l6.8-3.9L126.6,93.1z M121.4,94.2l-6.7,3.9l0.4,0.2l6.7-3.9L121.4,94.2
				z M119.8,97.5l-0.4-0.2l-1.4,0.8l0.4,0.2L119.8,97.5z M134.1,102l-6.8,3.9l0.4,0.2l6.8-3.9L134.1,102z M135.8,103.4l-0.4-0.2
				l-5.3,3l0.4,0.2L135.8,103.4z M117.6,98.3l-6.1,3.5l0.4,0.2l6.1-3.5L117.6,98.3z M123,108.4l0.4,0.2l3.9-2.2l-0.4-0.2L123,108.4z
				 M125.1,109.6l5.1-2.9l-0.4-0.2l-5.1,2.9L125.1,109.6z M108.6,100.1l5.1-2.9l-0.4-0.2l-5.1,2.9L108.6,100.1z M116.7,101.9
				l-0.4-0.2l-2.5,1.4l0.4,0.2L116.7,101.9z M119.4,93.9l-0.4-0.2l-5.3,3l0.4,0.2L119.4,93.9z M110.3,101.1l4.3-2.5l-0.4-0.2
				l-4.3,2.5L110.3,101.1z M118.5,92.5l3-1.7l-0.4-0.2l-3,1.7L118.5,92.5z M107,99.1l3.9-2.2l-0.4-0.2l-3.9,2.2L107,99.1z
				 M111.3,96.7l6.8-3.9l-0.4-0.2l-6.8,3.9L111.3,96.7z M125,100.4l-8,4.6l0.4,0.2l8-4.6L125,100.4z M142.4,90.4l-5,2.9l0.4,0.2
				l5-2.9L142.4,90.4z M142,99.8l4.5-2.6L146,97l-4.5,2.6L142,99.8z M146.9,97l3.1-1.8l-0.4-0.2l-3.1,1.8L146.9,97z M146.9,95.1
				l1.6-0.9l-0.4-0.2l-1.6,0.9L146.9,95.1z M126.3,101.6l-7.6,4.4l0.4,0.2l7.6-4.4L126.3,101.6z M146.3,93.5l2-1.2l-0.4-0.2l-2,1.2
				L146.3,93.5z M132,101.3l-10.8,6.2l0.4,0.2l10.8-6.2L132,101.3z M126.7,110.6l4.3-2.5l-0.4-0.2l-4.3,2.5L126.7,110.6z
				 M131.5,107.8l6.7-3.9l-0.4-0.2l-6.7,3.9L131.5,107.8z M138.7,103.7l5.3-3l-0.4-0.2l-5.3,3L138.7,103.7z M144.4,100.4l2.3-1.3
				l-0.4-0.2l-2.3,1.3L144.4,100.4z M128.7,96.4l-5.3,3.1l0.4,0.2l5.3-3.1L128.7,96.4z M141.2,99.8l-5.3,3.1l0.4,0.2l5.3-3.1
				L141.2,99.8z M140.3,98.4l-2.4,1.4l0.4,0.2l2.4-1.4L140.3,98.4z M137.9,100.3l-0.4-0.2l-3,1.7l0.4,0.2L137.9,100.3z M146.1,95.1
				l-5.4,3.1l0.4,0.2l5.4-3.1L146.1,95.1z M142.7,95.1l-4.5,2.6l0.4,0.2l4.5-2.6L142.7,95.1z M132.1,98.3l-5.3,3.1l0.4,0.2l5.3-3.1
				L132.1,98.3z M145.5,93.5l-2.4,1.4l0.4,0.2l2.4-1.4L145.5,93.5z M123.5,97.4l-6.8,3.9l0.4,0.2l6.8-3.9L123.5,97.4z M137.8,97.9
				l-5.3,3.1l0.4,0.2l5.3-3.1L137.8,97.9z M123,99.7l-7.6,4.4l0.4,0.2l7.6-4.4L123,99.7z M128.8,98.7l-0.4-0.2l-3,1.7l0.4,0.2
				L128.8,98.7z"/>
			<g>
				<polygon class="st5" points="108.1,71.7 106,72.9 103.9,71.7 106,70.5 				"/>
				<polygon class="st5" points="110.7,70.2 108.6,71.4 106.5,70.2 108.6,69 				"/>
				<path class="st6" d="M107.1,70.2l1.4,0.8l1.4-0.8l-1.4-0.8L107.1,70.2z M109.5,70.2l-0.9,0.5l-0.9-0.5l0.9-0.5L109.5,70.2z"/>
				<polygon class="st5" points="113.3,68.7 111.2,69.9 109.1,68.7 111.2,67.5 				"/>
				<polygon class="st6" points="109.9,68.8 111,68.8 111,69.5 111.4,69.5 111.4,68.8 112.5,68.8 112.5,68.6 111.4,68.6 111.4,68 
					111,68 111,68.6 109.9,68.6 				"/>
				<polygon class="st6" points="107.4,71.7 106,72.5 105.8,72.3 107.1,71.6 				"/>
			</g>
		</g>
	</g>
	<g>
		<g>
			<path class="st6" d="M115.2,78.7c-0.6,0.3-1,0.7-1.2,1.1c-1.4-0.3-2.9-0.2-4,0.5c-0.1,0.1-0.2,0.1-0.3,0.2
				c-1.9-1-4.7-0.9-6.5,0.1c-1.6,1-1.8,2.5-0.4,3.5c-0.6,0.1-1.1,0.3-1.6,0.6c-1.8,1.1-1.9,2.8-0.1,3.9c-0.5,0.1-1,0.3-1.5,0.6
				c-1.8,1.1-1.8,2.8,0.1,3.9c1.9,1.1,4.9,1.1,6.8,0.1l16.9-9.8c2.2-1.3,2.1-3.3-0.2-4.6C121,77.5,117.4,77.5,115.2,78.7z"/>
			<path class="st30" d="M104.9,88.6l2.6,1.5l10.8-6.3l-2.6-1.5L104.9,88.6z M117.9,83.8l-10.4,6l-2.2-1.3l10.4-6L117.9,83.8z
				 M113.5,84.2l1.5,0.8l-7.5,4.3l-1.5-0.8L113.5,84.2z M104.4,87.4l0.8-0.5l0.2,0.1l-1,0.6l-2-1.2l0.2-0.1L104.4,87.4z M105.9,85.8
				L105.9,85.8c0.4,0.3,0.6,0.5,0.2,0.8c-0.4,0.2-0.9,0.1-1.3-0.1l-0.1,0c-0.4-0.2-0.5-0.5-0.1-0.7
				C105.1,85.5,105.5,85.6,105.9,85.8z M105.7,86c-0.3-0.2-0.6-0.2-0.9-0.1c-0.3,0.2-0.2,0.3,0.1,0.5l0.1,0c0.3,0.2,0.6,0.2,0.9,0.1
				C106.2,86.4,106.1,86.2,105.7,86L105.7,86z M107.5,85.3l0.4,0.2l-0.1,0.1l-0.2-0.1c0,0.1,0,0.3-0.2,0.4c-0.2,0.1-0.5,0.1-0.8,0
				c-0.3-0.2-0.2-0.4,0-0.5l0.3-0.3c-0.3-0.2-0.5-0.2-0.7,0c-0.3,0.1-0.2,0.3,0,0.4l-0.2,0.1c-0.2-0.1-0.4-0.3,0-0.6
				c0.4-0.2,0.7-0.2,1,0L107.5,85.3z M107,85.2l-0.3,0.3c-0.1,0.1-0.2,0.2,0,0.3c0.1,0.1,0.3,0.1,0.5,0c0.2-0.1,0.2-0.3,0.2-0.4
				L107,85.2z M108.9,84.5l0.4,0.2l-0.1,0.1l-0.2-0.1c0,0.1,0,0.2-0.2,0.4c-0.4,0.2-0.8,0.1-1.2-0.1l-0.1,0
				c-0.4-0.2-0.5-0.5-0.2-0.7c0.2-0.1,0.4-0.1,0.6-0.1l-0.9-0.5l0.2-0.1L108.9,84.5z M108,84.3c-0.1,0-0.4,0-0.6,0.1
				c-0.3,0.1-0.2,0.3,0.2,0.5l0.1,0c0.3,0.2,0.6,0.2,0.9,0.1c0.2-0.1,0.2-0.2,0.1-0.3L108,84.3z M107.9,83.6l0.2-0.1l-0.2-0.1
				l-0.2,0.1L107.9,83.6z M109.6,84.6l0.2-0.1l-1.4-0.8l-0.2,0.1L109.6,84.6z M109.3,83.1c-0.2,0.1-0.3,0.3-0.2,0.4l-0.2-0.1
				l-0.1,0.1l0.4,0.2l1,0.6l0.2-0.1l-1-0.6c0-0.1-0.1-0.2,0.2-0.3c0.2-0.1,0.4-0.1,0.6,0l0.9,0.5l0.2-0.1l-1-0.6
				C109.9,83,109.6,82.9,109.3,83.1z M111,82.2l0.1-0.1l0.4,0.2l1,0.6c0.3,0.2,0.4,0.4,0,0.6c-0.4,0.2-0.7,0.2-1,0
				c0,0,0.1-0.1,0.1-0.1c0.3,0.2,0.5,0.2,0.7,0c0.3-0.1,0.2-0.3,0-0.4l-0.3-0.1c0,0.1,0,0.2-0.2,0.3c-0.4,0.2-0.8,0.1-1.2-0.1
				l-0.1,0c-0.3-0.2-0.5-0.5-0.1-0.7c0.2-0.1,0.4-0.1,0.6-0.1L111,82.2z M111.3,82.4c-0.1,0-0.4,0-0.6,0.1c-0.2,0.1-0.2,0.3,0.1,0.5
				l0.1,0c0.3,0.2,0.6,0.2,0.8,0.1c0.2-0.1,0.2-0.2,0.1-0.3L111.3,82.4z M112.8,82.7l0.2-0.1l-0.2-0.1l-0.2,0.1L112.8,82.7z
				 M113.4,82.4l0.2-0.1l-0.2-0.1l-0.2,0.1L113.4,82.4z M113.7,81.9l0.2,0.1l0.2-0.1l-0.2-0.1L113.7,81.9z"/>
		</g>
	</g>
</g>
<g>
	<path class="st37" d="M149.9,66.8l-19.3-11.1c-0.3-0.2-0.5-0.4-0.5-0.7v-5.7c0-0.2,0.3-0.3,0.6-0.2L150,60.2
		c0.3,0.2,0.5,0.4,0.5,0.7v5.7C150.5,66.9,150.2,67,149.9,66.8z"/>
	<path class="st38" d="M136.6,54.4l-4.9-2.9v-0.9l4.9,2.9V54.4z M144.8,58.2l-3.6-2.1V57l3.6,2.1V58.2z M134.9,54.2l-3.3-1.9v0.9
		l3.3,1.9L134.9,54.2z M141.9,58.2l-5.7-3.3v0.9l5.7,3.3V58.2z M139.9,55.4l-2-1.1v0.9l2,1.1V55.4z"/>
</g>
<g>
	<g>
		<path class="st39" d="M123.6,150.7c0,0.3,0.1,0.5,0.3,0.6c0.1,0,0.4,0.1,0.7-0.1c0.6-0.3,1.1-1.4,0.5-1.9c-0.1-0.1-0.4-0.1-0.6,0
			C124,149.6,123.6,150.2,123.6,150.7z"/>
		
			<linearGradient id="SVGID_14_" gradientUnits="userSpaceOnUse" x1="-549.064" y1="126.145" x2="-545.4915" y2="132.3328" gradientTransform="matrix(-1 0 0 1 -458.2283 0)">
			<stop  offset="0" style="stop-color:#1C1E29"/>
			<stop  offset="0.5249" style="stop-color:#252734"/>
			<stop  offset="0.7585" style="stop-color:#1C1E29"/>
			<stop  offset="0.8473" style="stop-color:#181A23"/>
		</linearGradient>
		<path class="st40" d="M53.9,111.5c0-0.1,0-0.1,0-0.2c0-0.3,0.1-0.6,0.2-0.9c0-0.1,0-0.1,0.1-0.2c0.1-0.3,0.2-0.5,0.3-0.8
			c0-0.1,0.1-0.1,0.1-0.2c0.1-0.2,0.2-0.4,0.4-0.6c0-0.1,0.1-0.1,0.1-0.2c0.2-0.2,0.3-0.4,0.5-0.5c0,0,0.1-0.1,0.1-0.1
			c0.3-0.2,0.5-0.3,0.5-0.4c0.3-0.2,1.2-0.6,2.1-0.1c0,0,0,0,0,0c0.4,0.2,34.4,19.8,53.7,32.5c6.5,4.2,9.4,6.4,11.2,7.9
			c0,0,0.2,0.2,0.3,0.2c0.1,0.1,0.2,0.3,0.2,0.6c0,0.7-0.5,1.4-1.1,1.8c-0.2,0.1-0.3,0.1-0.6,0.1c0,0-0.1,0-0.2,0c0,0-0.1,0-0.1,0
			c-0.3-0.1-0.7-0.3-1.2-0.5c-1.6-0.6-4.1-1.8-9.1-4.4c-4.7-2.5-11.7-6.2-22-12.1c-15-8.5-34.2-19.8-34.5-20.1c0,0-0.1,0-0.1,0
			c-0.3-0.2-0.5-0.4-0.6-0.7c0-0.1-0.1-0.2-0.1-0.3c0,0,0-0.1,0-0.1c0-0.1-0.1-0.3-0.1-0.4c0-0.1,0-0.1,0-0.2
			C53.9,111.6,53.9,111.5,53.9,111.5C53.9,111.5,53.9,111.5,53.9,111.5z"/>
		<path class="st41" d="M122.6,148c0.3-0.2,0.6-0.2,0.8,0l1.7,1.3c-0.1-0.1-0.4-0.1-0.6,0c-0.5,0.2-0.8,0.9-0.8,1.4
			c0,0.3,0.1,0.5,0.3,0.6l-2-0.8c-0.2-0.1-0.4-0.3-0.4-0.7C121.6,149.1,122,148.3,122.6,148z"/>
		<path class="st41" d="M124.6,149.6c0.2-0.1,0.4-0.1,0.5,0c0.4,0.4,1.4,1.3,1.6,1.6c-0.1,0-0.1-0.1-0.2,0c-0.2,0.1-0.3,0.3-0.3,0.5
			c0,0.1,0,0.2,0.1,0.2c-0.3-0.1-1.7-0.5-2.2-0.7c-0.2,0-0.3-0.2-0.3-0.5C124,150.3,124.3,149.8,124.6,149.6z"/>
		<path class="st39" d="M126.6,151.2c0.1,0,0.2,0,0.2,0c0.2,0.2,0.3,0.3,0.3,0.4c0.1,0.2-0.1,0.3-0.1,0.3c-0.2,0.1-0.3,0-0.6-0.1
			c-0.1,0-0.1-0.1-0.1-0.2C126.3,151.5,126.4,151.3,126.6,151.2z"/>
	</g>
	<polygon class="st26" points="57.7,110.4 79.7,123.1 81.5,122 59.5,109.4 	"/>
	<g class="st9">
		<g>
			<polygon class="st42" points="62.2,111.2 63.6,110.4 59.5,109.5 58.1,110.3 			"/>
		</g>
		<g>
			<polygon class="st43" points="79.8,121.8 81.3,121 81.3,120.6 79.8,121.4 			"/>
		</g>
		<g>
			
				<linearGradient id="SVGID_15_" gradientUnits="userSpaceOnUse" x1="171.2249" y1="115.9025" x2="190.3157" y2="115.9025" gradientTransform="matrix(-1 0 0 1 252.4969 0)">
				<stop  offset="0" style="stop-color:#F5ABFF"/>
				<stop  offset="0.4557" style="stop-color:#FFC5FF"/>
				<stop  offset="1" style="stop-color:#FFDEFF"/>
			</linearGradient>
			<polygon class="st44" points="79.8,121.4 81.3,120.6 63.6,110.4 62.2,111.2 			"/>
		</g>
		<g>
			<polygon class="st30" points="62.2,111.2 58.1,110.3 63.1,113.3 64,112.7 79.8,121.8 79.8,121.4 			"/>
		</g>
	</g>
</g>
</svg>
